<?xml version="1.0" encoding="utf-8"?>
<!-- Generator: Adobe Illustrator 23.0.6, SVG Export Plug-In . SVG Version: 6.00 Build 0)  -->
<svg version="1.1" id="Calque_1" xmlns="http://www.w3.org/2000/svg" xmlns:xlink="http://www.w3.org/1999/xlink" x="0px" y="0px"
	 viewBox="0 0 43.2 42.6" style="enable-background:new 0 0 43.2 42.6;" xml:space="preserve">
<style type="text/css">
	.st0{fill:#E5E5E5;}
</style>
<g>
	<path class="st0" d="M40,42c-0.3,0-0.6-0.1-0.9-0.2c-0.3-0.1-0.6-0.3-0.8-0.5L25.9,29l-5.7,10.2c-0.3,0.5-0.7,0.9-1.2,1.2
		c-0.4,0.2-0.9,0.4-1.4,0.4c-0.1,0-0.1,0-0.2,0c-0.6,0-1.1-0.2-1.6-0.6c-0.5-0.3-0.8-0.8-1-1.3L0.8,4.3C0.6,3.7,0.6,3.1,0.7,2.6
		C0.8,2,1.1,1.5,1.5,1c0.3-0.3,0.7-0.5,1.1-0.5c0.1,0,0.2,0,0.3,0c0.5,0.1,1,0.3,1.4,0.7C7,3.7,12.9,9.4,18.7,15.1l1,1
		c2.4,2.3,4.6,4.5,6.3,6.1c1,0.9,1.8,1.7,2.4,2.3c0.3,0.3,0.5,0.5,0.7,0.6l0.2,0.2c0,0,0.1,0.1,0.1,0.1l12.3,12.3
		c0.3,0.4,0.6,0.8,0.7,1.3c0.1,0.5,0,1-0.1,1.4c-0.2,0.5-0.5,0.8-0.9,1.1S40.5,42,40,42C40,42,40,42,40,42z"/>
	<path d="M2.6,1.1c0.1,0,0.1,0,0.2,0C3.2,1.1,3.7,1.4,4,1.7c2.7,2.4,8.8,8.4,14.4,13.8c0.4,0.3,0.7,0.7,1,1c2.4,2.3,4.6,4.5,6.3,6.1
		c1,0.9,1.8,1.7,2.4,2.3c0.3,0.3,0.5,0.5,0.7,0.7c0.1,0.1,0.2,0.1,0.2,0.2c0,0,0.1,0,0.1,0.1l0,0c0,0,0,0,0,0l12.3,12.3c0,0,0,0,0,0
		c0.3,0.3,0.5,0.6,0.5,1c0.1,0.4,0,0.8-0.1,1.2c-0.2,0.4-0.4,0.7-0.7,0.9c-0.3,0.2-0.7,0.3-1.1,0.3h0c0,0,0,0,0,0
		c-0.3,0-0.5-0.1-0.7-0.1c-0.2-0.1-0.5-0.2-0.6-0.4l0,0L26.3,28.6l-0.5-0.5l-0.3,0.6L19.8,39l0,0c-0.2,0.4-0.6,0.8-1,1
		c-0.4,0.2-0.8,0.3-1.2,0.3c-0.1,0-0.1,0-0.2,0c-0.5,0-0.9-0.2-1.3-0.5c-0.4-0.3-0.7-0.7-0.9-1.1l0,0L1.3,4.1c0,0,0,0,0,0
		c-0.2-0.5-0.2-1-0.1-1.4c0.1-0.5,0.3-0.9,0.7-1.3C2.1,1.2,2.3,1.1,2.6,1.1 M2.6,0.1C2.6,0.1,2.6,0.1,2.6,0.1
		c-0.6,0-1.1,0.2-1.5,0.6c-0.5,0.5-0.8,1.1-1,1.8c-0.1,0.7-0.1,1.4,0.2,2l14,34.6c0.2,0.6,0.7,1.1,1.2,1.5c0.5,0.4,1.2,0.6,1.8,0.7
		c0.1,0,0.1,0,0.2,0c0.6,0,1.2-0.1,1.7-0.4c0.6-0.3,1.1-0.8,1.4-1.4l5.4-9.7l11.9,11.9c0.3,0.3,0.6,0.5,1,0.7
		c0.4,0.1,0.7,0.2,1.1,0.2c0.6,0,1.2-0.2,1.7-0.5c0.5-0.3,0.9-0.8,1.1-1.3c0.2-0.5,0.3-1.1,0.2-1.7c-0.1-0.6-0.4-1.1-0.8-1.5
		L29.9,25.1c0,0-0.1-0.1-0.1-0.1c-0.1-0.1-0.1-0.1-0.2-0.2c-0.2-0.2-0.4-0.4-0.7-0.6c-0.6-0.5-1.4-1.3-2.4-2.3
		c-1.7-1.6-3.9-3.8-6.2-6l-0.1-0.1l-0.3-0.2l-0.8-0.8C13.2,9.1,7.3,3.3,4.7,1C4.2,0.5,3.6,0.2,3,0.1C2.9,0.1,2.8,0.1,2.6,0.1
		L2.6,0.1z"/>
</g>
<g>
	<path class="st0" d="M35.1,28.8c-0.1,0-0.3,0-0.3-0.1l-1.2-1.2c-0.1-0.1-0.1-0.2-0.2-0.4c0-0.1,0-0.3,0.1-0.4l2.3-2.3l1.5-3.1
		c-0.1,0-0.2-0.1-0.3-0.1l-1-0.9L35.3,21l0.7,0.6c0.1,0.1,0.1,0.2,0.2,0.4c0,0.1,0,0.3-0.1,0.4l-0.9,0.9c-0.1,0.1-0.2,0.1-0.4,0.2
		c0,0,0,0,0,0c-0.1,0-0.3-0.1-0.3-0.1l-0.7-0.6l-1,1l1,1c0.2,0.2,0.2,0.5,0,0.7l-0.8,0.9c-0.1,0.1-0.2,0.2-0.4,0.2
		c-0.1,0-0.3,0-0.3-0.1l-2.6-2.5c-0.1-0.1-0.1-0.2-0.2-0.3c0,0,0,0,0,0c-0.1,0-0.3,0-0.3-0.1l-1.3-1.3c-0.2-0.2-0.2-0.4-0.1-0.6
		l0.5-1.1l-0.7,0.7c-0.1,0.1-0.2,0.2-0.4,0.2c-0.1,0-0.3,0-0.3-0.1l-1.3-1.2c-0.2-0.2-0.2-0.5,0-0.7l4.9-5l-5.5,4.5
		c-0.1,0.1-0.2,0.1-0.3,0.1c-0.1,0-0.3,0-0.3-0.1L23,17.3c-0.2-0.2-0.2-0.5-0.1-0.7l0.8-1l-1,0.8c-0.1,0.1-0.2,0.1-0.3,0.1
		c-0.1,0-0.3,0-0.3-0.1l-1.1-1.1c-0.2-0.2-0.2-0.5,0-0.7l4.9-6.5C25.9,8,26.1,8,26.2,7.9c0,0,0,0,0,0c0.1,0,0.3,0.1,0.3,0.1l1.1,1.1
		c0.2,0.2,0.2,0.5,0,0.7l-0.3,0.3l0.3-0.3c0.1-0.1,0.2-0.1,0.3-0.1c0.1,0,0.3,0,0.3,0.1l0.9,0.8c0.2,0.2,0.2,0.5,0.1,0.7L29,11.9
		l0.4-0.4c0.1-0.1,0.2-0.1,0.3-0.1c0.1,0,0.3,0,0.3,0.1l1.1,1c0.1,0.1,0.2,0.2,0.2,0.4c0,0,0,0.1,0,0.1c0,0,0.1,0,0.1,0c0,0,0,0,0,0
		c0.1,0,0.3,0.1,0.3,0.1l1.3,1.2c0.1,0.1,0.1,0.2,0.2,0.4c0,0.1,0,0.3-0.1,0.4l-0.5,0.6l1-0.4c0.1,0,0.1,0,0.2,0
		c0.1,0,0.3,0,0.3,0.1l1.3,1.2c0.1,0.1,0.2,0.3,0.1,0.4c0,0,0.1,0,0.1,0c0.1,0,0.3,0.1,0.3,0.1l2.6,2.5c0,0,0.1,0.1,0.1,0.1
		c0,0,0.1,0.1,0.1,0.1l1.2,1.2c0.2,0.2,0.2,0.4,0.1,0.6l-0.4,0.8l0.8-0.5c0.1,0,0.2-0.1,0.3-0.1c0.1,0,0.3,0,0.3,0.1l1.2,1.1
		c0.1,0.1,0.2,0.3,0.1,0.4c0,0.2-0.1,0.3-0.3,0.4l-4.4,2.3l-2.3,2.3C35.3,28.8,35.2,28.8,35.1,28.8z M30.2,22.3l4.5-4.7l-3,1.3
		L30.2,22.3z M19.9,13.4c-0.7,0-1.3-0.3-2-1c-0.7-0.7-1.1-1.4-1-2.2c0-0.1,0-0.3,0.1-0.4l-0.4,0.4c-0.1,0.1-0.2,0.2-0.4,0.2
		c-0.1,0-0.3,0-0.3-0.1l-2.6-2.5c-0.2-0.2-0.2-0.5,0-0.7l5.6-5.8c0.1-0.1,0.2-0.1,0.4-0.2c0,0,0,0,0,0c0.1,0,0.3,0.1,0.3,0.1
		l1.3,1.2C21,2.7,21,3,20.8,3.2l-4.5,4.6l1,0.9c0,0,0.1,0.1,0.1,0.1c0.2-0.2,0.3-0.4,0.5-0.7L20.1,6c0.7-0.7,1.4-1.1,2.1-1.2
		c0.1,0,0.1,0,0.2,0c0.7,0,1.3,0.3,2,1c0.7,0.7,1.1,1.5,1,2.2c0,0.7-0.4,1.4-1.1,2.1l-2.1,2.2c-0.7,0.7-1.4,1.1-2.1,1.2
		C20,13.4,19.9,13.4,19.9,13.4z M22.8,7.4c-0.1,0-0.2,0.1-0.4,0.3l-2.7,2.8c-0.2,0.2-0.3,0.3-0.3,0.4l0.1,0c0,0,0.1-0.1,0.3-0.3
		l2.7-2.8C22.8,7.6,22.8,7.5,22.8,7.4C22.8,7.4,22.8,7.4,22.8,7.4z"/>
	<path d="M19.2,1.6l1.3,1.2l-4.8,4.9L17,9.1l-0.8,0.9l-2.6-2.5L19.2,1.6 M22.4,5.3c0.5,0,1.1,0.3,1.7,0.8c0.6,0.6,0.9,1.2,0.9,1.8
		c0,0.6-0.4,1.2-1,1.8l-2.1,2.2c-0.6,0.6-1.2,1-1.8,1c-0.1,0-0.1,0-0.2,0c-0.5,0-1.1-0.3-1.7-0.8c-0.6-0.6-0.9-1.2-0.9-1.8
		c0-0.6,0.4-1.2,1-1.8l2.1-2.2c0.6-0.6,1.2-1,1.8-1C22.3,5.3,22.3,5.3,22.4,5.3 M19.5,11.4c0,0,0.1,0,0.1,0c0.2-0.1,0.4-0.2,0.6-0.4
		l2.7-2.8c0.2-0.2,0.3-0.4,0.4-0.6c0.1-0.2,0-0.4-0.2-0.5c-0.1-0.1-0.2-0.2-0.4-0.2c-0.1,0-0.1,0-0.2,0C22.4,7,22.2,7.1,22,7.3
		l-2.7,2.8c-0.2,0.2-0.3,0.4-0.4,0.6c-0.1,0.2,0,0.3,0.2,0.5C19.2,11.3,19.4,11.4,19.5,11.4 M26.2,8.4l1.1,1.1l-2.9,3.7l3.7-3
		l0.9,0.8l-2.8,3.8l3.6-3l1.1,1l-6.3,5.1L23.4,17l2.9-4L22.4,16l-1.1-1.1L26.2,8.4 M31.5,13.5l1.3,1.2l-2.3,2.4l3.3-1.4L35,17
		l-3.6,1.6l-2,4.3l-1.3-1.3l1.7-3.4l-0.4,0.1l-2.3,2.3l-1.3-1.2L31.5,13.5 M35.5,17.5l2.6,2.5l-0.9,0.9L36,19.6l-1.4,1.4l1,1
		l-0.9,0.9l-1-1L32,23.7l1.3,1.3l-0.8,0.9l-2.6-2.6L35.5,17.5 M38.4,20.2l1.2,1.2l-1.2,2.4l2.3-1.4l1.2,1.1L37.4,26l-2.3,2.4
		l-1.2-1.2l2.3-2.4L38.4,20.2 M19.2,0.6c-0.3,0-0.5,0.1-0.7,0.3l-5.6,5.8c-0.4,0.4-0.4,1,0,1.4l2.6,2.5c0.2,0.2,0.4,0.3,0.7,0.3
		c0,0,0,0,0,0c0.1,0,0.1,0,0.2,0c0.1,0.7,0.5,1.3,1.1,1.9c0.8,0.7,1.6,1.1,2.4,1.1c0.1,0,0.2,0,0.3,0c0.3,0,0.6-0.1,0.8-0.2
		l-0.5,0.6c-0.3,0.4-0.3,1,0.1,1.3l1.1,1.1c0.2,0.2,0.4,0.3,0.7,0.3c0,0.2,0.1,0.5,0.3,0.7l1.1,1.1c0.2,0.2,0.4,0.3,0.7,0.3
		c0.1,0,0.3,0,0.4-0.1c0,0.1-0.1,0.2-0.1,0.4c0,0.3,0.1,0.5,0.3,0.7l1.3,1.2c0.2,0.2,0.4,0.3,0.7,0.3c0,0.2,0.1,0.5,0.3,0.7l1.3,1.3
		c0.1,0.1,0.2,0.2,0.3,0.2c0.1,0.1,0.1,0.2,0.2,0.3l2.6,2.6c0.2,0.2,0.4,0.3,0.7,0.3c0,0,0,0,0,0c0.1,0,0.2,0,0.4-0.1
		c-0.1,0.4-0.1,0.8,0.2,1.1l1.2,1.2c0.2,0.2,0.4,0.3,0.7,0.3c0.3,0,0.5-0.1,0.7-0.3l2.2-2.3l4.3-2.3c0.3-0.2,0.5-0.4,0.5-0.7
		c0-0.3-0.1-0.6-0.3-0.9l-1.2-1.1c-0.2-0.2-0.4-0.3-0.7-0.3c0,0,0,0,0,0c0-0.3-0.1-0.5-0.3-0.7l-1.2-1.2c0,0-0.1-0.1-0.1-0.1
		c0,0-0.1-0.1-0.1-0.1l-2.6-2.5c-0.1-0.1-0.2-0.2-0.3-0.2c-0.1-0.1-0.1-0.2-0.2-0.3L34.4,15c-0.2-0.2-0.4-0.3-0.7-0.3
		c0-0.3-0.1-0.5-0.3-0.7l-1.3-1.2c-0.1-0.1-0.2-0.2-0.4-0.2c-0.1-0.1-0.1-0.3-0.2-0.4l-1.1-1c-0.2-0.1-0.3-0.2-0.5-0.3
		c0-0.2-0.1-0.4-0.3-0.5l-0.9-0.8c-0.1-0.1-0.3-0.2-0.5-0.3c0-0.2-0.1-0.4-0.3-0.5l-1.1-1.1c-0.2-0.2-0.4-0.3-0.7-0.3c0,0,0,0-0.1,0
		c-0.1,0-0.2,0-0.3,0.1c-0.1-0.7-0.5-1.4-1.2-2.1c-0.8-0.7-1.6-1.1-2.3-1.1c-0.1,0-0.2,0-0.3,0c-0.8,0.1-1.6,0.5-2.4,1.3l-2.1,2.2
		c-0.1,0.1-0.2,0.2-0.2,0.2l-0.3-0.3l4.1-4.2c0.2-0.2,0.3-0.4,0.3-0.7c0-0.3-0.1-0.5-0.3-0.7l-1.3-1.2C19.7,0.7,19.4,0.6,19.2,0.6
		L19.2,0.6z M32.1,19.3l0.5-0.2l-0.7,0.8L32.1,19.3L32.1,19.3z M36,21L36,21l0.6,0.6l-0.1,0.1c-0.1-0.1-0.1-0.3-0.2-0.4L36,21L36,21
		z M34.7,23.9c0.3,0,0.5-0.1,0.7-0.3l0.3-0.3l-0.4,0.9l-1,1c0.1-0.3,0-0.7-0.3-0.9l-0.6-0.6l0.3-0.3l0.3,0.3
		C34.2,23.8,34.5,23.9,34.7,23.9L34.7,23.9z"/>
</g>
</svg>
