<?xml version="1.0" encoding="utf-8"?>
<!-- Generator: Adobe Illustrator 23.0.6, SVG Export Plug-In . SVG Version: 6.00 Build 0)  -->
<svg version="1.1" id="Calque_1" xmlns="http://www.w3.org/2000/svg" xmlns:xlink="http://www.w3.org/1999/xlink" x="0px" y="0px"
	 viewBox="0 0 48.4 48" style="enable-background:new 0 0 48.4 48;" xml:space="preserve">
<style type="text/css">
	.st0{fill:#E5E5E5;}
</style>
<g>
	<g>
		<g>
			<path d="M45.1,47.4c-0.4,0-0.7-0.1-1-0.2c-0.3-0.1-0.6-0.3-0.9-0.6l-14-14l-6.5,11.7c-0.3,0.6-0.8,1-1.3,1.3
				c-0.5,0.3-1,0.4-1.6,0.4c-0.1,0-0.1,0-0.2,0c-0.6,0-1.2-0.3-1.7-0.6c-0.5-0.4-0.9-0.9-1.1-1.5L0.8,4.7C0.6,4.1,0.5,3.4,0.7,2.8
				c0.1-0.6,0.4-1.2,0.9-1.7c0.3-0.3,0.7-0.5,1.2-0.5c0.1,0,0.2,0,0.3,0C3.7,0.7,4.2,1,4.7,1.4c2.9,2.7,9.7,9.2,16.3,15.6l1.2,1.2
				c2.7,2.6,5.2,5.1,7.1,6.9c1.1,1.1,2,2,2.7,2.6c0.3,0.3,0.6,0.6,0.8,0.7c0.1,0.1,0.2,0.2,0.2,0.2c0,0,0,0,0.1,0.1
				c0,0,0.1,0,0.1,0.1l13.9,13.9c0.4,0.4,0.6,0.9,0.8,1.4c0.1,0.5,0.1,1.1-0.2,1.6c-0.2,0.5-0.6,0.9-1,1.2
				C46.2,47.2,45.7,47.4,45.1,47.4L45.1,47.4z"/>
			<path class="st0" d="M2.8,1.1c0.1,0,0.2,0,0.2,0C3.5,1.2,4,1.4,4.4,1.8c3,2.7,10,9.5,16.3,15.6c0.4,0.4,0.8,0.8,1.2,1.2
				c2.7,2.6,5.2,5.1,7.1,6.9c1.1,1.1,2,2,2.7,2.6c0.3,0.3,0.6,0.6,0.8,0.7c0.1,0.1,0.2,0.2,0.2,0.2c0,0,0.1,0.1,0.1,0.1l0,0
				c0,0,0,0,0,0l13.9,13.9c0,0,0,0,0,0c0.3,0.3,0.5,0.7,0.6,1.2c0.1,0.4,0,0.9-0.1,1.3c-0.2,0.4-0.5,0.8-0.8,1
				c-0.4,0.2-0.8,0.4-1.3,0.4h0c0,0,0,0,0,0c-0.3,0-0.6-0.1-0.8-0.2c-0.3-0.1-0.5-0.3-0.7-0.5l0,0L29.6,32.3L29,31.8l-0.4,0.7
				L22.2,44l0,0c-0.3,0.5-0.6,0.9-1.1,1.1c-0.4,0.2-0.9,0.3-1.4,0.3c-0.1,0-0.1,0-0.2,0c-0.5,0-1-0.2-1.5-0.5
				c-0.4-0.3-0.8-0.7-1-1.2l0,0L1.3,4.5c0,0,0,0,0,0C1.1,4,1,3.4,1.2,2.9c0.1-0.5,0.4-1,0.8-1.4C2.2,1.2,2.5,1.1,2.8,1.1 M2.8,0.1
				c-0.6,0-1.1,0.2-1.6,0.7C0.7,1.3,0.3,2,0.2,2.7C0,3.4,0.1,4.2,0.4,4.9l15.8,39.2c0.3,0.7,0.7,1.3,1.3,1.7c0.6,0.4,1.3,0.7,2,0.7
				c0.1,0,0.2,0,0.2,0c0.6,0,1.3-0.2,1.8-0.5c0.6-0.3,1.2-0.9,1.5-1.5l6.1-11.1L42.8,47c0.3,0.3,0.7,0.5,1.1,0.7
				c0.4,0.2,0.8,0.2,1.2,0.2c0.7,0,1.3-0.2,1.8-0.6c0.5-0.4,1-0.9,1.2-1.5c0.2-0.6,0.3-1.2,0.2-1.9c-0.1-0.6-0.4-1.2-0.9-1.7
				L33.5,28.4c0,0-0.1-0.1-0.1-0.1l0,0c-0.1,0-0.1-0.1-0.2-0.2c-0.2-0.2-0.5-0.4-0.8-0.7c-0.7-0.6-1.6-1.5-2.7-2.6
				c-1.9-1.9-4.4-4.3-7.1-6.9l-0.1-0.1l-0.2-0.2l-1-1C14.7,10.3,8,3.8,5,1.1C4.5,0.6,3.8,0.2,3.2,0.1C3.1,0.1,2.9,0.1,2.8,0.1
				L2.8,0.1z"/>
		</g>
		<g>
			<path d="M37.5,29.1c-0.1,0-0.3,0-0.3-0.1l-1-1c-0.1-0.1-0.2-0.3-0.1-0.4c-0.4-0.1-0.8-0.3-1.2-0.6c-0.8-0.8-1.1-1.6-1-2.5
				c0.1-0.8,0.6-1.6,1.4-2.5l2.3-2.3c0.8-0.9,1.7-1.4,2.5-1.5c0.1,0,0.2,0,0.3,0c0.8,0,1.5,0.4,2.3,1.1c0.8,0.8,1.2,1.6,1.2,2.4
				c0,0.8-0.4,1.5-1.1,2.3l-0.4,0.4c-0.1,0.1-0.2,0.2-0.4,0.2c-0.1,0-0.3,0-0.3-0.1l-1.5-1.5C40,22.8,40,22.7,40,22.6
				c0-0.1,0-0.3,0.1-0.4l0.5-0.6c0.3-0.3,0.4-0.4,0.4-0.5c0,0,0,0-0.1-0.1C40.9,21,40.8,21,40.8,21c-0.1,0-0.3,0.2-0.5,0.4l-1.1,1.2
				c0.1,0,0.2,0.1,0.2,0.1l2,1.9c0.1,0.1,0.1,0.2,0.2,0.4c0,0.1,0,0.3-0.1,0.4l-3.5,3.6C37.8,29,37.7,29.1,37.5,29.1z M37.2,24.6
				c-0.3,0.3-0.4,0.5-0.4,0.6c0,0,0,0.1,0.1,0.2c0.1,0.1,0.1,0.1,0.2,0.1c0.1,0,0.2,0,0.6-0.4l0.4-0.5l-0.3-0.3
				c-0.1-0.1-0.1-0.1-0.1-0.2L37.2,24.6z M32.8,24.4c-0.1,0-0.3,0-0.3-0.1l-1.6-1.5c-0.2-0.2-0.2-0.4-0.1-0.6l1.4-2.5l-1.8,1.9
				c-0.1,0.1-0.2,0.1-0.4,0.2c0,0,0,0,0,0c-0.1,0-0.3-0.1-0.3-0.1l-1.5-1.5c-0.2-0.2-0.2-0.5,0-0.7l6.7-6.9c0.1-0.1,0.2-0.2,0.4-0.2
				c0.1,0,0.3,0,0.3,0.1l1.9,1.8c0.8,0.8,1.3,1.6,1.5,2.3c0.2,0.8-0.2,1.6-0.9,2.4c-0.5,0.5-1,0.9-1.4,1c-0.2,0.1-0.5,0.2-0.8,0.2
				c-0.1,0-0.3,0-0.4,0l-2.1,3.9C33.1,24.3,33,24.4,32.8,24.4C32.8,24.4,32.8,24.4,32.8,24.4z M34.6,17.3c0.2,0.2,0.3,0.2,0.4,0.2
				c0.1,0,0.4-0.1,0.6-0.4c0.3-0.3,0.4-0.5,0.4-0.6c0-0.1-0.1-0.3-0.2-0.4l-0.1-0.1L34.6,17.3L34.6,17.3z M27.5,19.3
				c-0.1,0-0.3,0-0.3-0.1l-1-1c-0.1-0.1-0.2-0.4-0.1-0.6L27,15l-1.7,1.7c-0.1,0.1-0.2,0.1-0.4,0.2c0,0,0,0,0,0
				c-0.1,0-0.3-0.1-0.3-0.1l-1.3-1.3c-0.1-0.1-0.1-0.2-0.2-0.4c0-0.1,0-0.3,0.1-0.4l6.7-6.9c0.1-0.1,0.2-0.1,0.4-0.2c0,0,0,0,0,0
				c0.1,0,0.3,0.1,0.3,0.1l1.1,1C32,9,32,9.2,32,9.4L31,11.9l1.5-1.6c0.1-0.1,0.2-0.1,0.4-0.2c0,0,0,0,0,0c0.1,0,0.3,0.1,0.3,0.1
				l1.3,1.2c0.2,0.2,0.2,0.5,0,0.7l-6.7,6.9C27.7,19.2,27.6,19.3,27.5,19.3z"/>
			<path class="st0" d="M30.4,8.2l1.1,1L29.7,14l3.2-3.3l1.3,1.2l-6.7,6.9l-1-1l2.1-5L25,16.4l-1.3-1.3L30.4,8.2 M35.2,12.9l1.9,1.8
				c0.8,0.7,1.2,1.4,1.3,2.1c0.1,0.6-0.1,1.3-0.8,2c-0.4,0.5-0.9,0.8-1.2,0.9c-0.2,0.1-0.4,0.1-0.6,0.1c-0.2,0-0.4,0-0.7-0.1
				l-2.3,4.3l-1.6-1.5l2.2-3.8L33,18.2l-3,3.1l-1.5-1.5L35.2,12.9 M35.1,18.1c0,0,0.1,0,0.1,0c0.3,0,0.6-0.2,0.9-0.6
				c0.3-0.3,0.5-0.6,0.5-0.9c0-0.3-0.1-0.5-0.4-0.8l-0.5-0.5l-1.9,1.9l0.4,0.4C34.6,18,34.8,18.1,35.1,18.1 M40.4,18.6
				c0.6,0,1.3,0.3,1.9,1c0.7,0.7,1.1,1.4,1,2c0,0.7-0.4,1.3-1,1.9L41.9,24l-1.5-1.5L41,22c0.3-0.3,0.4-0.5,0.5-0.7
				c0.1-0.2,0-0.4-0.2-0.6c-0.2-0.2-0.3-0.2-0.5-0.2c-0.1,0-0.1,0-0.2,0c-0.2,0.1-0.5,0.3-0.7,0.5l-3.1,3.2
				c-0.3,0.3-0.4,0.5-0.5,0.8c-0.1,0.2,0,0.5,0.2,0.7c0.2,0.2,0.3,0.2,0.5,0.2c0.3,0,0.6-0.2,1-0.5l0.8-0.8l-0.6-0.6L39,23l2,1.9
				l-3.5,3.6l-1-1l0.5-0.7C36.8,27,36.6,27,36.4,27c-0.4,0-0.8-0.2-1.2-0.5c-0.7-0.7-1-1.3-0.9-2c0.1-0.7,0.5-1.4,1.3-2.2l2.3-2.3
				c0.8-0.8,1.5-1.2,2.2-1.3C40.2,18.6,40.3,18.6,40.4,18.6 M30.4,7.2c-0.3,0-0.5,0.1-0.7,0.3L23,14.4c-0.4,0.4-0.4,1,0,1.4l1.3,1.3
				c0.2,0.2,0.4,0.3,0.7,0.3c0,0,0,0,0,0c0.2,0,0.4-0.1,0.5-0.2l-0.1,0.2c-0.2,0.4-0.1,0.8,0.2,1.1l1,1c0.2,0.2,0.4,0.3,0.7,0.3
				c0,0,0,0,0,0c0,0.3,0.1,0.5,0.3,0.7l1.5,1.5c0.2,0.2,0.4,0.3,0.7,0.3c0,0,0,0,0,0c0.1,0,0.1,0,0.2,0c-0.1,0.3,0,0.7,0.3,0.9
				l1.6,1.5c0.2,0.2,0.4,0.3,0.7,0.3c0.1,0,0.1,0,0.2,0c0.2,0,0.3-0.1,0.4-0.2c0,0.7,0.2,1.6,1.2,2.5c0.3,0.3,0.7,0.5,1.1,0.7
				c0,0.1,0.1,0.3,0.3,0.4l1,1c0.2,0.2,0.4,0.3,0.7,0.3c0.3,0,0.5-0.1,0.7-0.3l3.5-3.6c0.2-0.2,0.3-0.4,0.3-0.7
				c0.2,0,0.5-0.1,0.6-0.3l0.4-0.4c0.8-0.8,1.2-1.7,1.3-2.6c0-1-0.4-1.9-1.3-2.8c-0.9-0.8-1.7-1.2-2.6-1.2c-0.1,0-0.3,0-0.4,0
				c-0.2,0-0.4,0.1-0.6,0.2c0.1-0.4,0.1-0.8,0-1.2c-0.2-0.9-0.7-1.7-1.6-2.6l-1.9-1.8c-0.2-0.2-0.4-0.3-0.7-0.3c0,0,0,0,0,0
				c0-0.3-0.1-0.5-0.3-0.7l-1.3-1.2c-0.2-0.2-0.4-0.3-0.7-0.3c0,0,0,0,0,0c-0.2,0-0.4,0.1-0.5,0.2l0.1-0.2c0.1-0.4,0.1-0.8-0.2-1.1
				l-1.1-1C30.9,7.3,30.7,7.2,30.4,7.2L30.4,7.2z M35.5,21l0.1-0.2c0,0,0.1,0,0.1,0L35.5,21L35.5,21z"/>
		</g>
	</g>
</g>
</svg>
