<?xml version="1.0" encoding="utf-8"?>
<!-- Generator: Adobe Illustrator 23.0.6, SVG Export Plug-In . SVG Version: 6.00 Build 0)  -->
<svg version="1.1" id="Calque_1" xmlns="http://www.w3.org/2000/svg" xmlns:xlink="http://www.w3.org/1999/xlink" x="0px" y="0px"
	 viewBox="0 0 45.7 44.2" style="enable-background:new 0 0 45.7 44.2;" xml:space="preserve">
<style type="text/css">
	.st0{fill:#B60016;stroke:#000000;}
	.st1{fill:#B60016;}
</style>
<path class="st0" d="M39.4,43.6L39.4,43.6c-0.3,0-0.5,0-0.8-0.1c-0.2-0.1-0.5-0.2-0.6-0.4l0,0L25.7,30.7l-0.5-0.5l-0.3,0.6
	l-5.7,10.2l0,0c-0.2,0.4-0.6,0.8-1,1c-0.4,0.2-0.9,0.3-1.4,0.3c-0.5,0-0.9-0.2-1.3-0.5c-0.4-0.3-0.7-0.7-0.9-1.1l0,0L0.7,6.2
	c0,0,0,0,0,0c-0.2-0.5-0.2-1-0.1-1.4c0.1-0.5,0.3-0.9,0.7-1.3c0.3-0.3,0.6-0.4,1-0.3C2.6,3.2,3,3.4,3.4,3.8
	c2.7,2.4,8.8,8.4,14.4,13.8c0.4,0.3,0.7,0.7,1,1c2.4,2.3,4.6,4.5,6.3,6.1c1,0.9,1.8,1.7,2.4,2.3c0.3,0.3,0.5,0.5,0.7,0.7
	c0.1,0.1,0.2,0.1,0.2,0.2c0,0,0.1,0,0.1,0.1l0,0c0,0,0,0,0,0l12.3,12.3c0,0,0,0,0,0c0.3,0.3,0.5,0.6,0.5,1c0.1,0.4,0,0.8-0.1,1.2
	c-0.2,0.4-0.4,0.7-0.7,0.9C40.2,43.5,39.8,43.6,39.4,43.6z"/>
<g>
	<path d="M40.1,35.3c-0.2,0-0.4,0-0.6-0.1c-0.4-0.1-0.8-0.3-1.1-0.6c-0.6-0.6-0.9-1.2-0.9-1.8c0-0.1,0-0.3,0.1-0.4l-0.3,0.3
		c-0.1,0.1-0.2,0.2-0.4,0.2c-0.1,0-0.3,0-0.3-0.1l-2.4-2.3C34.1,30.3,34,30.1,34,30c0-0.1,0-0.3,0.1-0.4l1.3-1.3
		c-0.3,0.3-0.6,0.5-0.9,0.6c-0.2,0.1-0.5,0.1-0.7,0.1c-0.2,0-0.5,0-0.7-0.1c-0.4-0.2-0.9-0.5-1.4-1l-1.3-1.3
		c-0.1-0.1-0.1-0.2-0.2-0.4c0,0,0,0,0,0c0,0,0,0,0,0c-0.1,0-0.3-0.1-0.3-0.1l-1.1-1c-0.2-0.2-0.2-0.4-0.1-0.6l0.7-0.9l-0.2-0.2
		l-0.9,0.7c-0.1,0.1-0.2,0.1-0.3,0.1c-0.1,0-0.3,0-0.3-0.1L26.6,23c-0.1-0.1-0.1-0.2-0.1-0.3c-0.1,0-0.2-0.1-0.3-0.1l-0.8-0.7
		c-0.1-0.1-0.1-0.2-0.2-0.3c-0.3-0.1-0.6-0.2-0.8-0.5c-0.6-0.6-0.9-1.3-0.8-2c0-0.1,0-0.2,0.1-0.3l-0.4,0.4
		c-0.1,0.1-0.2,0.1-0.4,0.2c0,0,0,0,0,0c-0.1,0-0.3-0.1-0.3-0.1l-2.4-2.3c-0.1-0.1-0.1-0.2-0.2-0.4c0-0.1,0-0.3,0.1-0.4l5.1-5.2
		c0.1-0.1,0.2-0.1,0.4-0.2c0,0,0,0,0,0c0.1,0,0.3,0.1,0.3,0.1l2.3,2.3c0.2,0.2,0.2,0.5,0,0.7l-0.5,0.5c0.2-0.1,0.3-0.1,0.5-0.1
		c0.1,0,0.2,0,0.3,0c0.6,0,1.2,0.3,1.8,0.9c0.7,0.6,1,1.3,0.9,1.9c0,0.6-0.3,1.2-0.9,1.8l-0.3,0.3c-0.1,0.1-0.2,0.2-0.4,0.2
		c-0.1,0-0.3,0-0.3-0.1L28.3,18c-0.1-0.1-0.1-0.2-0.2-0.4c0-0.1,0-0.3,0.1-0.4l0.4-0.4c0.1-0.1,0.2-0.2,0.2-0.3c0,0,0,0,0,0
		c-0.1,0-0.2,0.1-0.3,0.3l-0.7,0.8c0,0,0,0,0.1,0l1.5,1.5c0.2,0.2,0.2,0.5,0,0.7l-1.3,1.4l4.6-3.2c0.1-0.1,0.2-0.1,0.3-0.1
		c0.1,0,0.3,0,0.3,0.1l1.3,1.3c0.2,0.2,0.2,0.4,0.1,0.6l-3.3,5l4.1-4.2c0.1-0.1,0.2-0.2,0.4-0.2c0.1,0,0.3,0,0.3,0.1l1.3,1.3
		c0.5,0.5,0.8,0.9,1,1.4c0.2,0.5,0.2,1,0,1.4c-0.1,0.3-0.3,0.6-0.5,0.9l1.3-1.3c0.1-0.1,0.2-0.2,0.4-0.2c0.1,0,0.3,0,0.3,0.1
		l2.3,2.3c0.1,0.1,0.1,0.2,0.2,0.4c0,0.1,0,0.3-0.1,0.4l-0.3,0.3c0.1,0,0.3,0,0.4,0c0.7,0,1.3,0.3,1.8,0.8c0.6,0.6,0.9,1.2,0.7,1.9
		c-0.1,0.5-0.4,1.1-0.8,1.6c-0.1,0.1-0.2,0.2-0.4,0.2c-0.1,0-0.2,0-0.3-0.1l-0.9-0.7l0,0.6c0,0.5,0,1-0.1,1.4
		c-0.1,0.5-0.4,0.9-0.8,1.3c-0.3,0.3-0.7,0.5-1,0.6C40.5,35.3,40.3,35.3,40.1,35.3z M38.9,30.6c0.1,0,0.2,0,0.3,0.1l0.9,0.7l0-0.5
		c0-0.5,0-0.9,0.1-1.3c0.1-0.4,0.3-0.8,0.7-1.2c0.1-0.1,0.1-0.1,0.2-0.2c0,0-0.1,0-0.1-0.1L40,27.4L39.5,28l0.6,0.5
		c0.2,0.2,0.2,0.5,0,0.7L39.2,30c-0.1,0.1-0.2,0.1-0.4,0.2c0,0,0,0,0,0c-0.1,0-0.3-0.1-0.3-0.1L38,29.5l-0.8,0.8l0.8,0.8
		c0,0,0.1,0.1,0.1,0.1c0.1-0.2,0.2-0.3,0.4-0.5C38.6,30.7,38.7,30.6,38.9,30.6z M33.4,26.6c0,0,0.1-0.1,0.3-0.3L36,24
		c0.1-0.1,0.2-0.2,0.2-0.3L33.4,26.6C33.4,26.6,33.4,26.6,33.4,26.6z M26.3,19.2c-0.2,0.2-0.2,0.3-0.3,0.4c0,0,0,0,0.1,0
		c0.1,0,0.2-0.1,0.4-0.2l0.2-0.3L26.6,19c0,0,0,0-0.1-0.1L26.3,19.2z M24,17.6c0,0,0.1,0.1,0.1,0.2c0.2-0.2,0.3-0.4,0.6-0.7l1.7-1.8
		c0.2-0.2,0.4-0.4,0.7-0.6c-0.1,0-0.1-0.1-0.2-0.1L26,13.8l-0.6,0.6l0.6,0.5c0.1,0.1,0.2,0.2,0.2,0.4c0,0.1,0,0.3-0.1,0.4l-0.8,0.8
		c-0.1,0.1-0.2,0.2-0.4,0.2c-0.1,0-0.3,0-0.3-0.1L24,15.9l-0.8,0.8L24,17.6z M19.8,16.2c-0.1,0-0.3,0-0.3-0.1l-0.8-0.8
		c-0.1-0.1-0.2-0.4-0.1-0.6l0.6-1.3l-0.8,0.8c-0.1,0.1-0.2,0.1-0.4,0.2c0,0,0,0,0,0c-0.1,0-0.3-0.1-0.3-0.1l-1-1
		c-0.1-0.1-0.2-0.2-0.2-0.4c0,0,0,0,0,0c-0.1,0-0.3-0.1-0.3-0.1l-2.4-2.3c-0.1-0.1-0.2-0.3-0.1-0.5c0,0,0,0-0.1,0c0,0-0.1,0-0.1,0
		c-0.1,0-0.3,0-0.3-0.1l-1.2-1.2c-0.2-0.2-0.2-0.4-0.1-0.6l0.6-1l-0.7,0.7C11.6,7.9,11.5,8,11.3,8c-0.1,0-0.3,0-0.3-0.1L9.8,6.7
		C9.7,6.6,9.7,6.5,9.7,6.3c0-0.1,0-0.3,0.1-0.4l5.1-5.2c0.1-0.1,0.2-0.1,0.4-0.2c0,0,0,0,0,0c0.1,0,0.3,0.1,0.3,0.1l1.4,1.4
		c0.7,0.6,1,1.2,1.1,1.8c0.1,0.5,0,1.1-0.4,1.6l1-1c0.1-0.1,0.2-0.2,0.4-0.2c0.1,0,0.3,0,0.3,0.1l2.3,2.3C21.9,6.9,22,7,22,7.2
		c0,0,0,0,0,0c0.1,0,0.3,0,0.3,0.1l0.8,0.8c0.1,0.1,0.2,0.4,0.1,0.5l-0.5,1.3l0.7-0.8C23.6,9.1,23.8,9,23.9,9c0,0,0,0,0,0
		C24,9,24.2,9,24.3,9.1l1,0.9c0.2,0.2,0.2,0.5,0,0.7L20.1,16C20,16.1,19.9,16.2,19.8,16.2z M17.5,11.2c0.1,0.1,0.1,0.1,0.1,0.2
		l2.9-3c-0.1,0-0.2-0.1-0.2-0.1l-0.8-0.8L19,8.1l0.6,0.5c0.2,0.2,0.2,0.5,0,0.7l-0.8,0.8c-0.1,0.1-0.2,0.1-0.4,0.2c0,0,0,0,0,0
		c-0.1,0-0.3-0.1-0.3-0.1l-0.6-0.5l-0.8,0.8L17.5,11.2z M14.1,9.3l2.9-3c-0.2,0.2-0.5,0.3-0.7,0.4c-0.2,0.1-0.4,0.1-0.6,0.1
		c-0.1,0-0.2,0-0.3,0L14.1,9.3z M15,4.4c0.1,0.1,0.2,0.1,0.2,0.1c0.1,0,0.2,0,0.4-0.3c0.2-0.2,0.2-0.3,0.2-0.4c0,0,0-0.1-0.1-0.2
		l0,0L15,4.4z"/>
	<path class="st1" d="M15.3,1.1l1.4,1.4c0.6,0.6,0.9,1.1,1,1.6c0.1,0.5-0.1,1-0.6,1.5c-0.3,0.3-0.7,0.6-0.9,0.7
		c-0.1,0.1-0.3,0.1-0.5,0.1c-0.2,0-0.3,0-0.5-0.1l-1.7,3.2l-1.2-1.2L14,5.4l-0.3-0.3l-2.3,2.3l-1.2-1.1L15.3,1.1 M15.2,5.1
		C15.2,5.1,15.2,5.1,15.2,5.1c0.3,0,0.5-0.2,0.8-0.4c0.2-0.2,0.4-0.5,0.4-0.7c0-0.2-0.1-0.4-0.3-0.6L15.7,3l-1.4,1.4l0.3,0.3
		C14.8,5,15,5.1,15.2,5.1 M19.1,4.9l2.3,2.3l-0.8,0.8l-1.2-1.2l-1.3,1.3L19.2,9l-0.8,0.8l-0.9-0.9L16,10.4l1.2,1.2l-0.8,0.8
		l-2.4-2.3L19.1,4.9 M22,7.7l0.8,0.8L21.5,12l2.4-2.5l1,0.9l-5.1,5.2L19,14.9l1.6-3.8l-2.6,2.7l-1-1L22,7.7 M25.6,11.2l2.3,2.3
		l-0.8,0.8L26,13.1l-1.3,1.3l0.9,0.9l-0.8,0.8L24,15.2l-1.5,1.6l1.2,1.2l-0.8,0.8l-2.4-2.3L25.6,11.2 M28.6,14.6
		c0.5,0,1,0.2,1.5,0.7c0.5,0.5,0.8,1,0.8,1.5c0,0.5-0.3,1-0.7,1.5l-0.3,0.3l-1.1-1.1l0.4-0.4c0.2-0.2,0.3-0.4,0.4-0.5
		c0.1-0.2,0-0.3-0.2-0.5C29.2,16.1,29.1,16,29,16c0,0-0.1,0-0.1,0c-0.2,0.1-0.3,0.2-0.5,0.4l-2.4,2.4c-0.2,0.2-0.3,0.4-0.4,0.6
		c0,0.2,0,0.3,0.2,0.5c0.1,0.1,0.2,0.2,0.4,0.2c0.2,0,0.5-0.1,0.7-0.4l0.6-0.6L27,18.7l0.7-0.7l1.5,1.5l-2.6,2.7l-0.8-0.7l0.4-0.5
		C25.9,21,25.8,21,25.6,21c-0.3,0-0.6-0.1-0.9-0.4c-0.5-0.5-0.7-1-0.6-1.5c0.1-0.5,0.4-1.1,1-1.7l1.7-1.8c0.6-0.6,1.1-0.9,1.7-1
		C28.5,14.6,28.6,14.6,28.6,14.6 M33,18.4l1.3,1.3l-4.1,6.2l-1.1-1l0.9-1.3l-0.8-0.7L28,23.7L27,22.6L33,18.4 M32.3,20.4l-2.3,1.8
		l0.6,0.5L32.3,20.4 M35.8,21.1l1.3,1.3c0.5,0.4,0.8,0.8,0.9,1.2c0.1,0.4,0.2,0.7,0,1c-0.1,0.3-0.4,0.7-0.8,1.1l-1.8,1.9
		c-0.4,0.4-0.8,0.7-1.1,0.8c-0.2,0.1-0.4,0.1-0.5,0.1c-0.2,0-0.3,0-0.5-0.1c-0.4-0.1-0.8-0.4-1.2-0.8l-1.3-1.3L35.8,21.1 M33.4,27.1
		c0.1,0,0.2,0,0.3-0.1c0.1-0.1,0.3-0.2,0.4-0.4l2.2-2.3c0.2-0.2,0.3-0.3,0.3-0.4c0.1-0.1,0.1-0.2,0-0.4c0-0.1-0.1-0.3-0.3-0.4
		L36.2,23l-3.5,3.6l0.2,0.2c0.2,0.2,0.3,0.3,0.4,0.3C33.4,27.1,33.4,27.1,33.4,27.1 M39.6,24.8L42,27l-0.8,0.8L40,26.7L38.8,28
		l0.9,0.9l-0.8,0.8L38,28.8l-1.5,1.6l1.2,1.2l-0.8,0.8L34.5,30L39.6,24.8 M42.5,28.1C42.5,28.1,42.5,28.1,42.5,28.1
		c0.5,0,1,0.2,1.5,0.7c0.5,0.5,0.7,1,0.6,1.4c-0.1,0.5-0.3,0.9-0.7,1.3l-1.1-0.8c0.3-0.3,0.4-0.5,0.5-0.7c0.1-0.2,0-0.3-0.1-0.4
		c-0.1-0.1-0.2-0.1-0.3-0.1c0,0-0.1,0-0.1,0c-0.1,0-0.2,0.1-0.3,0.2c-0.2,0.2-0.3,0.4-0.3,0.6c0,0.2,0,0.5,0,0.8l0.1,0.8
		c0,0.5,0,0.9-0.1,1.3c-0.1,0.4-0.3,0.7-0.6,1.1c-0.2,0.2-0.5,0.4-0.8,0.5c-0.2,0-0.3,0.1-0.5,0.1c-0.2,0-0.3,0-0.5-0.1
		c-0.3-0.1-0.6-0.3-0.9-0.5c-0.5-0.5-0.7-1-0.7-1.5c0-0.5,0.3-1,0.8-1.6l1.1,0.8c-0.3,0.3-0.5,0.6-0.6,0.8c-0.1,0.2,0,0.4,0.1,0.5
		c0.1,0.1,0.2,0.1,0.3,0.1c0.1,0,0.3-0.1,0.4-0.2c0.2-0.2,0.3-0.4,0.4-0.7c0.1-0.2,0.1-0.5,0-0.9l-0.1-0.8c0-0.4,0-0.8,0.1-1.1
		c0.1-0.3,0.3-0.6,0.6-0.9C41.6,28.3,42,28.1,42.5,28.1 M15.3,0.1c-0.3,0-0.5,0.1-0.7,0.3L9.5,5.6C9.3,5.8,9.2,6.1,9.2,6.3
		c0,0.3,0.1,0.5,0.3,0.7l1.2,1.1c0.2,0.2,0.4,0.3,0.6,0.3c0,0.2,0.1,0.4,0.3,0.6l1.2,1.2c0.1,0.1,0.2,0.2,0.4,0.2
		c0.1,0.1,0.1,0.3,0.2,0.4l2.4,2.3c0.1,0.1,0.2,0.2,0.3,0.2c0.1,0.1,0.1,0.2,0.2,0.3l1,1c0.2,0.2,0.4,0.3,0.7,0.3c0,0,0,0,0,0
		c0,0,0,0,0.1,0c0,0.3,0.1,0.6,0.3,0.8l0.8,0.8c0.1,0.1,0.3,0.2,0.5,0.3c0,0.2,0.1,0.4,0.3,0.5l2.4,2.3c0.2,0.2,0.4,0.3,0.7,0.3
		c0,0,0,0,0,0c0.1,0,0.1,0,0.2,0c0.1,0.5,0.3,1.1,0.9,1.6c0.3,0.3,0.5,0.4,0.8,0.5c0,0.1,0.1,0.2,0.2,0.3l0.8,0.7
		c0.1,0.1,0.2,0.1,0.3,0.2c0,0.1,0.1,0.2,0.2,0.3l1.1,1.1c0.2,0.2,0.4,0.3,0.7,0.3c0,0,0.1,0,0.1,0c0,0.3,0.1,0.6,0.3,0.8l1.1,1
		c0.1,0.1,0.2,0.2,0.3,0.2c0.1,0.1,0.1,0.2,0.2,0.3l1.3,1.3c0.6,0.5,1.1,0.9,1.6,1.1c0.2,0.1,0.4,0.1,0.7,0.1
		c-0.1,0.1-0.1,0.3-0.1,0.5c0,0.3,0.1,0.5,0.3,0.7l2.4,2.3c0.2,0.2,0.4,0.3,0.7,0.3c0,0,0,0,0,0c0,0,0.1,0,0.1,0
		c0.1,0.6,0.5,1.1,1,1.7c0.4,0.4,0.8,0.6,1.3,0.8c0.2,0.1,0.5,0.1,0.7,0.1c0.3,0,0.5,0,0.8-0.1c0.5-0.1,0.9-0.4,1.3-0.8
		c0.4-0.5,0.7-1,0.9-1.5c0.1-0.3,0.1-0.7,0.1-1.1l0.1,0c0.2,0.1,0.4,0.2,0.6,0.2c0.3,0,0.5-0.1,0.7-0.3c0.5-0.6,0.8-1.2,1-1.8
		c0.1-0.6,0.1-1.4-0.9-2.3c-0.5-0.5-1.1-0.8-1.7-0.9c0-0.3-0.1-0.6-0.3-0.8L40.3,24c-0.2-0.2-0.4-0.3-0.7-0.3c-0.2,0-0.3,0-0.5,0.1
		c0-0.2-0.1-0.5-0.2-0.7c-0.2-0.5-0.6-1-1.1-1.5l-1.3-1.3c-0.2-0.2-0.4-0.3-0.7-0.3c-0.3,0-0.5,0.1-0.7,0.3l-0.3,0.3l0.3-0.5
		c0.3-0.4,0.2-0.9-0.1-1.3l-1.3-1.3c-0.2-0.2-0.4-0.3-0.7-0.3c-0.2,0-0.4,0.1-0.6,0.2l-0.9,0.6c0.2-0.4,0.3-0.8,0.3-1.2
		c0-0.8-0.3-1.6-1.1-2.3c-0.6-0.6-1.2-0.9-1.8-1c0.1-0.3,0-0.7-0.3-0.9l-2.3-2.3c-0.1-0.1-0.3-0.2-0.5-0.3c0-0.2-0.1-0.4-0.3-0.5
		l-1-0.9c-0.2-0.2-0.4-0.3-0.7-0.3c0,0,0,0,0,0c0,0,0,0-0.1,0c0-0.3-0.1-0.6-0.3-0.8l-0.8-0.8c-0.1-0.1-0.2-0.2-0.3-0.2
		c-0.1-0.1-0.1-0.2-0.2-0.3l-2.3-2.3c-0.2-0.2-0.4-0.3-0.7-0.3c0,0,0,0,0,0c-0.1,0-0.3,0-0.4,0.1c0,0,0-0.1,0-0.1
		c-0.1-0.7-0.6-1.4-1.3-2.1L16,0.4C15.8,0.2,15.5,0.1,15.3,0.1L15.3,0.1z M17.4,10.4l0.1-0.1l0.2,0.2c0,0,0.1,0.1,0.1,0.1l-0.1,0.1
		L17.4,10.4L17.4,10.4z M23.9,16.7l0.1-0.1l0.2,0.2c0,0,0,0,0,0c0,0-0.1,0.1-0.1,0.1L23.9,16.7L23.9,16.7z M37.9,30.3l0.1-0.1
		l0.2,0.2c0,0,0,0-0.1,0.1c0,0,0,0-0.1,0.1L37.9,30.3L37.9,30.3z"/>
</g>
</svg>
