<?xml version="1.0" encoding="utf-8"?>
<!-- Generator: Adobe Illustrator 23.0.6, SVG Export Plug-In . SVG Version: 6.00 Build 0)  -->
<svg version="1.1" id="Calque_1" xmlns="http://www.w3.org/2000/svg" xmlns:xlink="http://www.w3.org/1999/xlink" x="0px" y="0px"
	 viewBox="0 0 48.8 47.8" style="enable-background:new 0 0 48.8 47.8;" xml:space="preserve">
<style type="text/css">
	.st0{fill:url(#SVGID_1_);}
	.st1{fill:#FFB914;}
	.st2{fill:#E5E5E5;}
	.st3{fill:url(#SVGID_2_);}
	.st4{fill:url(#SVGID_3_);}
</style>
<g>
	<g>
		<g>
			
				<linearGradient id="SVGID_1_" gradientUnits="userSpaceOnUse" x1="-5.729" y1="801.6819" x2="42.3402" y2="849.751" gradientTransform="matrix(1 0 0 1 0 -796)">
				<stop  offset="0" style="stop-color:#000000"/>
				<stop  offset="1" style="stop-color:#000000"/>
			</linearGradient>
			<path class="st0" d="M45,47.2c-0.3,0-0.7-0.1-1-0.2s-0.6-0.3-0.9-0.6L29.1,32.5L22.7,44c-0.3,0.6-0.8,1-1.3,1.3
				c-0.4,0.2-1,0.4-1.6,0.4c-0.1,0-0.1,0-0.2,0c-0.7,0-1.2-0.2-1.8-0.7c-0.6-0.3-0.9-0.9-1.1-1.5L0.9,4.7C0.7,4.2,0.6,3.5,0.8,2.8
				c0.1-0.7,0.4-1.2,0.9-1.7C2,0.8,2.5,0.6,2.9,0.6c0.1,0,0.2,0,0.3,0c0.6,0.1,1.1,0.3,1.6,0.8c2.9,2.7,9.6,9.1,16.2,15.5l1.1,1.1
				c2.7,2.6,5.2,5.1,7.1,6.9c1.1,1,2,1.9,2.7,2.6c0.3,0.3,0.6,0.6,0.8,0.7l0.3,0.3l13.8,13.8c0.3,0.4,0.7,0.9,0.8,1.5
				c0.1,0.6,0,1.1-0.1,1.6c-0.2,0.6-0.6,0.9-1,1.2C46.1,47,45.6,47.2,45,47.2L45,47.2z"/>
			<path class="st1" d="M2.9,1.1c0.1,0,0.1,0,0.2,0c0.4,0.1,0.9,0.3,1.3,0.8c3,2.7,9.9,9.4,16.2,15.5c0.4,0.3,0.8,0.8,1.1,1.1
				c2.7,2.6,5.2,5.1,7.1,6.9c1.1,1,2,1.9,2.7,2.6c0.3,0.3,0.6,0.6,0.8,0.8c0.1,0.1,0.2,0.1,0.2,0.2c0,0,0.1,0,0.1,0.1l0,0l0,0
				L46.6,43l0,0c0.3,0.3,0.6,0.7,0.6,1.1c0.1,0.4,0,0.9-0.1,1.3c-0.2,0.4-0.4,0.8-0.8,1c-0.3,0.2-0.8,0.3-1.2,0.3l0,0l0,0
				c-0.3,0-0.6-0.1-0.8-0.1c-0.2-0.1-0.6-0.2-0.7-0.4l0,0L29.6,32.2L29,31.6l-0.3,0.7l-6.4,11.5l0,0c-0.2,0.4-0.7,0.9-1.1,1.1
				c-0.4,0.2-0.9,0.3-1.3,0.3c-0.1,0-0.1,0-0.2,0c-0.6,0-1-0.2-1.5-0.6c-0.4-0.3-0.8-0.8-1-1.2l0,0L1.5,4.5l0,0
				c-0.2-0.4-0.2-1-0.1-1.6c0-0.6,0.3-1,0.7-1.5C2.4,1.3,2.6,1.1,2.9,1.1 M2.9,0L2.9,0C2.3,0,1.7,0.2,1.2,0.7
				c-0.6,0.6-0.9,1.2-1.1,2C0,3.5,0,4.3,0.4,5l15.7,38.9c0.2,0.7,0.8,1.2,1.3,1.7s1.3,0.7,2,0.8c0.1,0,0.1,0,0.2,0
				c0.7,0,1.3-0.1,1.9-0.4c0.7-0.3,1.2-0.9,1.6-1.6l6.1-10.9l13.4,13.4c0.3,0.3,0.7,0.6,1.1,0.8c0.4,0.1,0.8,0.2,1.2,0.2
				c0.7,0,1.3-0.2,1.9-0.6c0.6-0.3,1-0.9,1.2-1.5c0.2-0.6,0.3-1.2,0.2-1.9c-0.1-0.7-0.4-1.2-0.9-1.7L33.5,28.2l-0.1-0.1L33.3,28l0,0
				c0,0-0.1-0.1-0.2-0.2c-0.2-0.2-0.4-0.4-0.8-0.7c-0.7-0.6-1.6-1.5-2.7-2.6c-1.9-1.8-4.4-4.3-7.1-6.9l-1-1l0-0.1
				C14.9,10.1,8.2,3.7,5.3,1C4.7,0.5,4.1,0.1,3.4,0.1C3.2,0,3,0,2.9,0L2.9,0z"/>
		</g>
	</g>
</g>
<g>
	<g>
		<path class="st2" d="M21.4,2.3l1.2,1.2l-3.4,4.8l4.7-3.6l1.3,1.2l-7.1,5.1l-1.5-1.4L21.4,2.3z M25.8,6.5l1.4,1.3l-6,6.1l-1.4-1.3
			L25.8,6.5z M27.6,10.3l-1-1l1-1.1l3.2,3.2l-1,1.1l-1-0.8l-5,5.2l-1.4-1.4L27.6,10.3z M35.5,16l1.4,1.3l-5.1,5.2l1.4,1.4l-0.8,1
			l-2.7-2.6L35.5,16z M38.9,19.3l1.4,1.3l-6,6.1l-1.4-1.3L38.9,19.3z M40.8,23.1l-1-1l1-1.1l3.2,3.2l-1,1.1l-1-0.8l-5,5.2l-1.4-1.4
			L40.8,23.1z M41.7,29.2l2.3-4.8l1.3,1.3l-1.3,2.5l2.4-1.5l1.3,1.2l-4.7,2.5L40.7,33l-1.3-1.3L41.7,29.2z"/>
		
			<linearGradient id="SVGID_2_" gradientUnits="userSpaceOnUse" x1="17.8205" y1="39.3222" x2="45.3082" y2="11.8345" gradientTransform="matrix(1 0 0 -1 0 43.7593)">
			<stop  offset="0" style="stop-color:#000000"/>
			<stop  offset="1" style="stop-color:#000000"/>
		</linearGradient>
		<path class="st3" d="M21.4,2.3l1.2,1.2l-3.4,4.8l4.7-3.6l1.3,1.2l-7.1,5.1l-1.5-1.4L21.4,2.3 M25.8,6.5l1.4,1.3l-6,6.1l-1.4-1.3
			L25.8,6.5 M27.6,8.3l3.2,3.2l-1,1.1l-1-0.8l-5,5.2l-1.4-1.4l5-5.2l-1-1L27.6,8.3 M35.5,16l1.4,1.3l-5.1,5.2l1.4,1.4l-0.8,1
			l-2.7-2.6L35.5,16 M38.9,19.3l1.4,1.3l-6,6.1l-1.4-1.3L38.9,19.3 M40.8,21.2l3.2,3.2l-1,1.1l-1-0.8l-5,5.2l-1.4-1.4l5-5.2l-1-1
			L40.8,21.2 M44.2,24.4l1.3,1.3l-1.3,2.5l2.4-1.5l1.3,1.2l-4.7,2.5L40.8,33l-1.3-1.3l2.4-2.5L44.2,24.4 M21.4,1.3h-0.1
			c-0.3,0-0.6,0.2-0.7,0.4l-4.9,7.2c-0.3,0.4-0.2,1,0.1,1.4l1.5,1.4c0.2,0.2,0.4,0.3,0.7,0.3c0.2,0,0.4-0.1,0.6-0.2l1.6-1.1
			l-1.2,1.2c-0.4,0.4-0.4,1.1,0,1.5l1.4,1.3c0.2,0.2,0.4,0.3,0.7,0.3l0,0c0.2,0,0.4-0.1,0.5-0.1c-0.3,0.4-0.3,1,0.1,1.3l1.4,1.4
			c0.2,0.2,0.4,0.3,0.7,0.3l0,0c0.3,0,0.5-0.1,0.7-0.3l4.2-4.3l0.2,0.1c0.2,0.2,0.4,0.3,0.7,0.3l0,0c0.3,0,0.5-0.1,0.7-0.3l1-1.1
			c0.4-0.4,0.4-1.1,0-1.5l-3.2-3.2c-0.1-0.1-0.2-0.2-0.3-0.2c0-0.1-0.1-0.2-0.2-0.3l-1.5-1.3c-0.1-0.1-0.2-0.2-0.4-0.2
			c-0.1-0.1-0.1-0.3-0.2-0.4l-1.2-1.2c-0.2-0.2-0.4-0.3-0.7-0.3c-0.1,0-0.1,0-0.2,0c0.1-0.3,0-0.7-0.3-1l-1.2-1.2
			C22,1.4,21.8,1.3,21.4,1.3L21.4,1.3z M35.5,14.9L35.5,14.9c-0.3,0-0.5,0.1-0.7,0.3l-5.9,6.1c-0.2,0.2-0.3,0.4-0.3,0.7
			c0,0.3,0.1,0.5,0.3,0.7l2.7,2.6c0.1,0.1,0.2,0.2,0.3,0.2c0.1,0.1,0.1,0.2,0.2,0.3l1.4,1.3c0.2,0.2,0.4,0.3,0.7,0.3
			c0.2,0,0.4,0,0.5-0.1c-0.2,0.4-0.2,1,0.2,1.3l1.4,1.4c0.2,0.2,0.4,0.3,0.7,0.3l0,0c0.3,0,0.5-0.1,0.7-0.3l4.2-4.3l0.1,0.1
			l-1.3,2.6L38.6,31c-0.2,0.2-0.3,0.4-0.3,0.7c0,0.3,0.1,0.5,0.3,0.7l1.3,1.3c0.2,0.2,0.4,0.3,0.7,0.3c0.3,0,0.5-0.1,0.7-0.3
			l2.3-2.4l4.5-2.4c0.3-0.2,0.5-0.4,0.5-0.7s-0.1-0.6-0.3-1L47.1,26c-0.2-0.2-0.4-0.3-0.7-0.3l0,0c0-0.3-0.1-0.5-0.3-0.7l-1.2-1.3
			c0,0,0,0-0.1-0.1c0,0,0,0-0.1-0.1l-3.2-3.2c-0.1-0.1-0.2-0.2-0.3-0.2c0-0.1-0.1-0.2-0.2-0.3l-1.4-1.3c-0.2-0.2-0.4-0.3-0.7-0.3
			l0,0c-0.3,0-0.5,0.1-0.7,0.3L33.8,23l-0.5-0.5l4.3-4.4c0.4-0.4,0.4-1.1,0-1.5l-1.4-1.3C36,15,35.8,14.9,35.5,14.9L35.5,14.9z"/>
	</g>
	<g>
		<path class="st1" d="M32.2,12.8l1.6,1.5l-4.9,7.3l-1.3-1.3l1.1-1.5l-1-0.8l-1.5,1.1L25,17.8L32.2,12.8z M29.4,17.9l2-2.7l-2.6,2.1
			L29.4,17.9z"/>
		
			<linearGradient id="SVGID_3_" gradientUnits="userSpaceOnUse" x1="27.4239" y1="29.7717" x2="32.7186" y2="24.477" gradientTransform="matrix(1 0 0 -1 0 43.7593)">
			<stop  offset="0" style="stop-color:#000000"/>
			<stop  offset="1" style="stop-color:#000000"/>
		</linearGradient>
		<path class="st4" d="M32.2,12.8l1.6,1.5l-4.9,7.3l-1.3-1.3l1.1-1.5l-1-0.8l-1.5,1.1L25,17.8L32.2,12.8 M31.4,15.2l-2.6,2.1
			l0.6,0.6L31.4,15.2 M32.2,11.8c-0.2,0-0.4,0.1-0.6,0.2l-7.1,5c-0.2,0.2-0.4,0.4-0.4,0.7c0,0.3,0.1,0.6,0.3,0.8l1.3,1.3
			c0.2,0.2,0.4,0.3,0.7,0.3c0.1,0,0.2,0,0.3,0c-0.1,0.3,0,0.7,0.3,1.1l1.3,1.3c0.2,0.2,0.4,0.3,0.7,0.3h0.1c0.3,0,0.6-0.2,0.7-0.4
			l4.9-7.3c0.3-0.4,0.2-1-0.1-1.4L33,12.1C32.8,11.9,32.5,11.8,32.2,11.8L32.2,11.8z"/>
	</g>
</g>
</svg>
