<svg width="42" height="42" viewBox="0 0 42 42" fill="none" xmlns="http://www.w3.org/2000/svg">
<g clip-path="url(#clip0)">
<path d="M28.85 25.3108L41.17 37.6408C41.5171 37.991 41.7529 38.4359 41.8478 38.9198C41.9426 39.4036 41.8923 39.9047 41.7031 40.36C41.514 40.8153 41.1944 41.2046 40.7846 41.4787C40.3747 41.7529 39.893 41.8997 39.4 41.9008C39.0727 41.9028 38.7484 41.8393 38.4461 41.7139C38.1438 41.5885 37.8697 41.4038 37.64 41.1708L25.32 28.8508L19.64 39.0908C19.3649 39.5873 18.9547 39.9957 18.4568 40.2684C17.959 40.5411 17.394 40.6669 16.8275 40.6313C16.261 40.5957 15.7162 40.4001 15.2564 40.0672C14.7966 39.7344 14.4407 39.2779 14.23 38.7508L0.229973 4.13079C0.0117492 3.58561 -0.0416719 2.98836 0.0763329 2.41311C0.194338 1.83785 0.478579 1.30987 0.893817 0.894633C1.70123 0.0872179 2.90018 0.422613 3.74583 1.18989C9.10451 6.05192 28.3702 25.1188 28.85 25.3108Z" fill="url(#paint0_linear)"/>
<path d="M18.4972 1.12667L19.5627 2.22466L16.2215 6.67927L20.7326 3.43031L21.8608 4.59289L15.0172 9.17169L13.701 7.81535L18.4972 1.12667ZM22.4344 5.184L23.681 6.46858L17.8681 12.1095L16.6215 10.8249L22.4344 5.184ZM24.0761 8.78546L23.2264 7.90994L24.1809 6.98371L27.1267 10.0194L26.1722 10.9456L25.3296 10.0772L20.4711 14.7919L19.2176 13.5002L24.0761 8.78546ZM31.459 14.4838L32.7056 15.7684L27.761 20.5666L29.0564 21.9014L28.188 22.7441L25.6461 20.1247L31.459 14.4838ZM34.5536 17.6727L35.8002 18.9573L29.9872 24.5982L28.7407 23.3136L34.5536 17.6727ZM36.1952 21.2742L35.3456 20.3986L36.3001 19.4724L39.2459 22.508L38.2914 23.4343L37.4487 22.5659L32.5903 27.2806L31.3368 25.9889L36.1952 21.2742ZM37.0153 27.0876L39.3804 22.6466L40.5573 23.8595L39.2564 26.1949L41.5741 24.9072L42.7022 26.0698L38.2131 28.322L35.8377 30.6271L34.6399 29.3927L37.0153 27.0876Z" fill="#E5E5E5"/>
<path d="M28.4172 11.3492L29.8379 12.8132L25.0766 19.5378L23.9275 18.3537L24.9666 16.9691L24.1379 16.1151L22.7158 17.105L21.5388 15.8922L28.4172 11.3492ZM25.6161 16.1019L27.5844 13.5927L25.0172 15.4847L25.6161 16.1019Z" fill="#FFB914"/>
</g>
<defs>
<linearGradient id="paint0_linear" x1="1.33584e-07" y1="4.52542e-07" x2="42" y2="42" gradientUnits="userSpaceOnUse">
<stop stop-color="#E5E5E5"/>
<stop offset="1" stop-color="#FFB914"/>
</linearGradient>
<clipPath id="clip0">
<rect width="41.9" height="41.9" fill="white"/>
</clipPath>
</defs>
</svg>
