<?xml version="1.0" encoding="utf-8"?>
<!-- Generator: Adobe Illustrator 23.0.6, SVG Export Plug-In . SVG Version: 6.00 Build 0)  -->
<svg version="1.1" id="Calque_1" xmlns="http://www.w3.org/2000/svg" xmlns:xlink="http://www.w3.org/1999/xlink" x="0px" y="0px"
	 viewBox="0 0 43.3 42.8" style="enable-background:new 0 0 43.3 42.8;" xml:space="preserve">
<style type="text/css">
	.st0{fill:url(#SVGID_1_);}
	.st1{fill:#E5E5E5;}
	.st2{fill:url(#SVGID_2_);}
</style>
<g>
	
		<linearGradient id="SVGID_1_" gradientUnits="userSpaceOnUse" x1="6.5313" y1="25.709" x2="21.8004" y2="7.3862" gradientTransform="matrix(1 0 0 -1 0 38.0739)">
		<stop  offset="0" style="stop-color:#FF1B1B"/>
		<stop  offset="1" style="stop-color:#2B66FF"/>
	</linearGradient>
	<path class="st0" d="M40,42.2c-0.3,0-0.6-0.1-0.9-0.2c-0.3-0.1-0.6-0.3-0.8-0.5L26,29.1l-5.7,10.2c-0.3,0.5-0.7,0.9-1.2,1.2
		c-0.4,0.2-0.9,0.4-1.4,0.4c-0.1,0-0.1,0-0.2,0c-0.6,0-1.1-0.2-1.6-0.6c-0.5-0.3-0.8-0.8-1-1.3L0.9,4.4C0.7,3.8,0.6,3.2,0.7,2.7
		c0.1-0.6,0.4-1.1,0.8-1.5c0.3-0.3,0.7-0.5,1.1-0.5c0.1,0,0.2,0,0.3,0C3.5,0.8,4,1,4.4,1.4C7,3.8,12.9,9.6,18.8,15.3l1,1
		c2.4,2.3,4.6,4.5,6.3,6.1c1,0.9,1.8,1.7,2.4,2.3c0.3,0.3,0.5,0.5,0.7,0.6l0.2,0.2c0,0,0.1,0.1,0.1,0.1l12.3,12.3
		c0.3,0.4,0.6,0.8,0.7,1.3c0.1,0.5,0,1-0.1,1.4c-0.2,0.5-0.5,0.8-0.9,1.1C41,42,40.6,42.2,40,42.2C40.1,42.2,40,42.2,40,42.2z"/>
	<path class="st1" d="M2.7,1.2c0.1,0,0.1,0,0.2,0c0.4,0.1,0.8,0.3,1.2,0.6c2.7,2.4,8.8,8.4,14.4,13.8c0.4,0.3,0.7,0.7,1,1
		c2.4,2.3,4.6,4.5,6.3,6.1c1,0.9,1.8,1.7,2.4,2.3c0.3,0.3,0.5,0.5,0.7,0.7c0.1,0.1,0.2,0.1,0.2,0.2c0,0,0.1,0,0.1,0.1l0,0
		c0,0,0,0,0,0l12.3,12.3c0,0,0,0,0,0c0.3,0.3,0.5,0.6,0.5,1c0.1,0.4,0,0.8-0.1,1.2c-0.2,0.4-0.4,0.7-0.7,0.9
		c-0.3,0.2-0.7,0.3-1.1,0.3h0c0,0,0,0,0,0c-0.3,0-0.5-0.1-0.7-0.1c-0.2-0.1-0.5-0.2-0.6-0.4l0,0L26.3,28.8l-0.5-0.5l-0.3,0.6
		l-5.7,10.2l0,0c-0.2,0.4-0.6,0.8-1,1c-0.4,0.2-0.8,0.3-1.2,0.3c-0.1,0-0.1,0-0.2,0c-0.5,0-0.9-0.2-1.3-0.5
		c-0.4-0.3-0.7-0.7-0.9-1.1l0,0L1.4,4.2c0,0,0,0,0,0c-0.2-0.5-0.2-1-0.1-1.4c0.1-0.5,0.3-0.9,0.7-1.3C2.1,1.3,2.4,1.2,2.7,1.2
		 M2.7,0.2c-0.6,0-1.1,0.2-1.5,0.6c-0.5,0.5-0.8,1.1-1,1.8c-0.1,0.7-0.1,1.4,0.2,2l14,34.6c0.2,0.6,0.7,1.1,1.2,1.5
		c0.5,0.4,1.2,0.6,1.8,0.7c0.1,0,0.1,0,0.2,0c0.6,0,1.2-0.1,1.7-0.4c0.6-0.3,1.1-0.8,1.4-1.4l5.4-9.7l11.9,11.9
		c0.3,0.3,0.6,0.5,1,0.7c0.4,0.1,0.7,0.2,1.1,0.2c0.6,0,1.2-0.2,1.7-0.5c0.5-0.3,0.9-0.8,1.1-1.3c0.2-0.5,0.3-1.1,0.2-1.7
		c-0.1-0.6-0.4-1.1-0.8-1.5L29.9,25.3c0,0-0.1-0.1-0.1-0.1l0,0c-0.1,0-0.1-0.1-0.2-0.2c-0.2-0.2-0.4-0.4-0.7-0.6
		c-0.6-0.5-1.4-1.3-2.4-2.3c-1.7-1.6-3.9-3.8-6.2-6.1l-0.1-0.1l-1-1C13.3,9.2,7.4,3.5,4.7,1.1C4.2,0.6,3.6,0.3,3,0.2
		C2.9,0.2,2.8,0.2,2.7,0.2L2.7,0.2z"/>
</g>
<g>
	<path class="st1" d="M15,8c-0.5-0.4-0.7-0.9-0.7-1.4c0-0.5,0.2-1,0.6-1.4l1.5-1.5c0.4-0.4,0.9-0.7,1.4-0.6c0.5,0,1,0.2,1.4,0.7
		c0.5,0.4,0.7,0.9,0.7,1.4c0,0.5-0.2,0.9-0.7,1.4l-0.8,0.8l-1.7-1.6l-0.8,0.8c-0.3,0.3-0.3,0.5-0.1,0.7c0.2,0.2,0.4,0.2,0.7-0.1
		l0.4-0.4l1.1,1l-0.4,0.4c-0.4,0.4-0.8,0.6-1.3,0.6C15.8,8.7,15.4,8.5,15,8z M17.8,5.7l0.4-0.4c0.1-0.2,0.2-0.3,0.2-0.4
		c0-0.1,0-0.2-0.1-0.3c-0.1-0.1-0.2-0.1-0.3-0.1c-0.1,0-0.3,0.1-0.4,0.3l-0.3,0.4L17.8,5.7z M18.7,11.7c-0.4-0.4-0.7-0.8-0.8-1.2
		c-0.1-0.4-0.1-0.8,0.1-1.1c0.2-0.4,0.5-0.8,0.9-1.2l3.9-4L24,5.4l-4.1,4.2c-0.2,0.2-0.4,0.4-0.5,0.6c-0.1,0.2,0,0.4,0.2,0.6
		c0.2,0.2,0.4,0.2,0.6,0.1c0.2-0.1,0.4-0.2,0.6-0.5l4.1-4.2l1.3,1.2l-3.9,4c-0.4,0.4-0.8,0.7-1.2,0.9c-0.4,0.2-0.8,0.2-1.1,0.1
		C19.5,12.4,19.1,12.1,18.7,11.7z M27,8.3l0.9,0.9l-1.5,4l2.7-2.8l1.1,1l-5.6,5.8l-0.9-0.8l1.7-4.2l-2.9,3l-1.1-1.1L27,8.3z
		 M31,12.2l1.3,1.2l-5.6,5.8L25.3,18L31,12.2z M32.7,15.7l-0.9-0.9l0.9-1l3,2.9l-0.9,1L34,17l-4.7,4.9L28,20.6L32.7,15.7z
		 M36.3,17.4l2.6,2.5l-0.9,0.9l-1.3-1.3l-1.4,1.4l1,1l-0.9,0.9l-1-1l-1.7,1.7l1.3,1.3l-0.8,0.9l-2.6-2.6L36.3,17.4z M39.5,20.5
		l1.5,1.4c0.5,0.5,0.8,0.9,1,1.3c0.2,0.4,0.2,0.8,0,1.2c-0.1,0.4-0.4,0.8-0.9,1.2l-2,2.1c-0.4,0.4-0.8,0.8-1.2,0.9
		c-0.4,0.2-0.8,0.2-1.2,0c-0.4-0.1-0.9-0.5-1.4-0.9l-1.5-1.4L39.5,20.5z M36.2,26.9c0.2,0.2,0.3,0.3,0.5,0.3c0.1,0,0.3,0,0.4-0.1
		c0.1-0.1,0.3-0.2,0.5-0.4l2.5-2.5c0.2-0.2,0.3-0.3,0.4-0.5c0.1-0.1,0.1-0.3,0-0.4c0-0.1-0.2-0.3-0.3-0.5L40,22.6l-3.9,4L36.2,26.9z
		"/>
	<linearGradient id="SVGID_2_" gradientUnits="userSpaceOnUse" x1="13.2394" y1="15.9429" x2="43.1344" y2="15.9429">
		<stop  offset="0" style="stop-color:#FF1B1B"/>
		<stop  offset="1" style="stop-color:#2B66FF"/>
	</linearGradient>
	<path class="st2" d="M17.7,3.1C17.7,3.1,17.7,3.1,17.7,3.1c0.5,0,1,0.2,1.4,0.7c0.5,0.4,0.7,0.9,0.7,1.4c0,0.5-0.2,0.9-0.7,1.4
		l-0.8,0.8l-1.7-1.6l-0.8,0.8c-0.3,0.3-0.3,0.5-0.1,0.7c0.1,0.1,0.2,0.1,0.3,0.1c0.1,0,0.3-0.1,0.4-0.2l0.4-0.4l1.1,1l-0.4,0.4
		c-0.4,0.4-0.8,0.6-1.2,0.6c0,0,0,0-0.1,0c-0.4,0-0.9-0.2-1.3-0.7c-0.5-0.4-0.7-0.9-0.7-1.4c0-0.5,0.2-1,0.6-1.4l1.5-1.5
		C16.8,3.3,17.2,3.1,17.7,3.1 M17.8,5.7l0.4-0.4c0.1-0.2,0.2-0.3,0.2-0.4c0-0.1,0-0.2-0.1-0.3c-0.1-0.1-0.1-0.1-0.2-0.1
		c0,0-0.1,0-0.1,0c-0.1,0-0.3,0.1-0.4,0.3l-0.3,0.4L17.8,5.7 M22.7,4.1L24,5.4l-4.1,4.2c-0.2,0.2-0.4,0.4-0.5,0.6
		c-0.1,0.2,0,0.4,0.2,0.6c0.1,0.1,0.2,0.2,0.4,0.2c0.1,0,0.1,0,0.2,0c0.2-0.1,0.4-0.2,0.6-0.5l4.1-4.2l1.3,1.2l-3.9,4
		c-0.4,0.4-0.8,0.7-1.2,0.9c-0.2,0.1-0.5,0.2-0.7,0.2c-0.1,0-0.3,0-0.4-0.1c-0.4-0.1-0.8-0.4-1.2-0.8c-0.4-0.4-0.7-0.8-0.8-1.2
		c-0.1-0.4-0.1-0.8,0.1-1.1c0.2-0.4,0.5-0.8,0.9-1.2L22.7,4.1 M27,8.3l0.9,0.9l-1.5,4l2.7-2.8l1.1,1l-5.6,5.8l-0.9-0.8l1.7-4.2
		l-2.9,3l-1.1-1.1L27,8.3 M31,12.2l1.3,1.2l-5.6,5.8L25.3,18L31,12.2 M32.8,13.9l3,2.9l-0.9,1L34,17l-4.7,4.9L28,20.6l4.7-4.9
		l-0.9-0.9L32.8,13.9 M36.3,17.4l2.6,2.5l-0.9,0.9l-1.3-1.3l-1.4,1.4l1,1l-0.9,0.9l-1-1l-1.7,1.7l1.3,1.3l-0.8,0.9l-2.6-2.6
		L36.3,17.4 M39.5,20.5l1.5,1.4c0.5,0.5,0.8,0.9,1,1.3c0.2,0.4,0.2,0.8,0,1.2c-0.1,0.4-0.4,0.8-0.9,1.2l-2,2.1
		c-0.4,0.4-0.8,0.8-1.2,0.9c-0.2,0.1-0.4,0.1-0.6,0.1c-0.2,0-0.4,0-0.6-0.1c-0.4-0.1-0.9-0.5-1.4-0.9l-1.5-1.4L39.5,20.5 M36.9,27.2
		c0.1,0,0.2,0,0.3-0.1c0.1-0.1,0.3-0.2,0.5-0.4l2.5-2.5c0.2-0.2,0.3-0.3,0.4-0.5c0.1-0.1,0.1-0.3,0-0.4c0-0.1-0.2-0.3-0.3-0.5
		L40,22.6l-3.9,4l0.2,0.2c0.2,0.2,0.3,0.3,0.5,0.3C36.8,27.2,36.8,27.2,36.9,27.2 M17.7,2.1c-0.8,0-1.4,0.3-2.1,1l-1.5,1.5
		c-0.6,0.6-0.9,1.4-0.9,2.1c0,0.8,0.4,1.5,1,2.1c0.6,0.6,1.3,0.9,2,0.9c0,0,0.1,0,0.1,0c0.2,0,0.3,0,0.5,0c-0.1,0.4,0,0.7,0.1,1.1
		c0.2,0.6,0.5,1.1,1.1,1.6c0.6,0.5,1.1,0.9,1.7,1c0.2,0.1,0.5,0.1,0.7,0.1c0,0,0.1,0,0.1,0c-0.2,0.4-0.2,0.9,0.1,1.3l1.1,1.1
		c0.2,0.2,0.4,0.3,0.7,0.3c0,0,0,0,0,0c0.1,0,0.1,0,0.2,0c-0.1,0.3,0,0.7,0.3,0.9l0.9,0.8c0.2,0.2,0.4,0.3,0.6,0.3
		c0,0.2,0.1,0.4,0.3,0.6l1.3,1.2c0.2,0.2,0.4,0.3,0.7,0.3c0.2,0,0.4,0,0.5-0.1c-0.2,0.4-0.2,0.9,0.2,1.2l1.3,1.3
		c0.2,0.2,0.4,0.3,0.7,0.3c0,0,0,0,0,0c0.2,0,0.3,0,0.5-0.1c-0.1,0.1-0.1,0.3-0.1,0.5c0,0.3,0.1,0.5,0.3,0.7l2.6,2.6
		c0.1,0.1,0.2,0.2,0.4,0.2c0.1,0.1,0.1,0.2,0.2,0.3l1.5,1.4c0.6,0.6,1.2,1,1.7,1.2c0.3,0.1,0.6,0.2,0.9,0.2c0.3,0,0.7-0.1,1-0.2
		c0.5-0.2,1-0.6,1.6-1.1l2-2.1c0.5-0.6,0.9-1.1,1.1-1.6c0.2-0.6,0.2-1.2,0-1.9c-0.2-0.5-0.6-1.1-1.2-1.7l-1.5-1.4
		c-0.1-0.1-0.2-0.2-0.4-0.2c-0.1-0.1-0.1-0.3-0.2-0.4L37,16.7c-0.1-0.1-0.2-0.2-0.3-0.2c-0.1-0.1-0.1-0.2-0.2-0.3l-3-2.9
		c-0.1-0.1-0.2-0.2-0.3-0.2c-0.1-0.1-0.1-0.2-0.2-0.3l-1.3-1.2c-0.2-0.2-0.4-0.3-0.6-0.3c0-0.2-0.1-0.4-0.3-0.6l-1.1-1
		c-0.2-0.2-0.4-0.3-0.7-0.3c-0.1,0-0.1,0-0.2,0c0.1-0.3,0-0.7-0.3-0.9l-0.9-0.9c-0.2-0.1-0.3-0.2-0.5-0.3c0-0.2-0.1-0.4-0.3-0.5
		l-1.3-1.2c-0.2-0.2-0.4-0.3-0.6-0.3c0-0.2-0.1-0.4-0.3-0.6l-1.3-1.2c-0.2-0.2-0.4-0.3-0.7-0.3c-0.3,0-0.5,0.1-0.7,0.3l-1.2,1.2
		c-0.1-0.6-0.4-1.1-1-1.7C19.2,2.4,18.5,2.1,17.7,2.1C17.7,2.1,17.7,2.1,17.7,2.1L17.7,2.1z M36.8,20.9L36.8,20.9l0.5,0.5l0,0
		c0-0.1-0.1-0.2-0.2-0.2L36.8,20.9L36.8,20.9z M34.2,23.6l0.3-0.3l0.3,0.3c0.1,0.1,0.1,0.1,0.2,0.2L34.7,24L34.2,23.6L34.2,23.6z"/>
</g>
</svg>
