<?xml version="1.0" encoding="utf-8"?>
<!-- Generator: Adobe Illustrator 23.0.6, SVG Export Plug-In . SVG Version: 6.00 Build 0)  -->
<svg version="1.1" id="Calque_1" xmlns="http://www.w3.org/2000/svg" xmlns:xlink="http://www.w3.org/1999/xlink" x="0px" y="0px"
	 viewBox="0 0 43 42.6" style="enable-background:new 0 0 43 42.6;" xml:space="preserve">
<style type="text/css">
	.st0{fill:url(#SVGID_1_);}
	.st1{fill:#E5E5E5;}
</style>
<g>
	<g>
		<g>
			
				<linearGradient id="SVGID_1_" gradientUnits="userSpaceOnUse" x1="-5.1961" y1="38.0124" x2="37.5545" y2="-4.7382" gradientTransform="matrix(1 0 0 -1 0 43.068)">
				<stop  offset="0" style="stop-color:#E5E5E5"/>
				<stop  offset="1" style="stop-color:#000000"/>
			</linearGradient>
			<path class="st0" d="M39.9,42c-0.3,0-0.6-0.1-0.9-0.2c-0.3-0.1-0.6-0.3-0.8-0.5c0,0-12.3-12.3-12.3-12.3l-5.7,10.2
				c-0.3,0.5-0.7,0.9-1.2,1.2c-0.4,0.2-0.9,0.4-1.4,0.4c-0.1,0-0.1,0-0.2,0c-0.6,0-1.1-0.2-1.6-0.6c-0.5-0.3-0.8-0.8-1-1.3L0.7,4.2
				C0.5,3.7,0.5,3.1,0.6,2.5S1,1.4,1.4,1c0.3-0.3,0.7-0.5,1.1-0.5c0.1,0,0.2,0,0.3,0c0.5,0.1,1,0.3,1.4,0.7
				c2.6,2.4,8.5,8.1,14.4,13.8l1.5,1.5c2.2,2.1,4.3,4.1,5.9,5.7c1,0.9,1.8,1.7,2.4,2.3c0.3,0.3,0.5,0.5,0.7,0.6
				c0.1,0.1,0.3,0.3,0.3,0.3l12.3,12.3c0.4,0.4,0.6,0.8,0.7,1.3s0,1-0.1,1.4c-0.2,0.5-0.5,0.8-0.9,1.1C40.9,41.9,40.4,42,39.9,42
				v-0.5V42z"/>
			<path class="st1" d="M2.5,1c0.1,0,0.1,0,0.2,0c0.4,0.1,0.8,0.3,1.2,0.6c2.7,2.4,8.8,8.4,14.4,13.8c0.4,0.3,0.7,0.7,1,1
				c2.4,2.3,4.6,4.5,6.3,6.1c1,0.9,1.8,1.7,2.4,2.3c0.3,0.3,0.5,0.5,0.7,0.7c0.1,0.1,0.2,0.1,0.2,0.2c0,0,0.1,0,0.1,0.1l0,0
				c0,0,0,0,0,0l12.3,12.3c0,0,0,0,0,0c0.3,0.3,0.5,0.6,0.5,1c0.1,0.4,0,0.8-0.1,1.2c-0.2,0.4-0.4,0.7-0.7,0.9
				c-0.3,0.2-0.7,0.3-1.1,0.3h0c0,0,0,0,0,0c-0.3,0-0.5-0.1-0.7-0.1c-0.2-0.1-0.5-0.2-0.6-0.4l0,0L26.2,28.6l-0.5-0.5l-0.3,0.6
				l-5.7,10.2l0,0c-0.2,0.4-0.6,0.8-1,1c-0.4,0.2-0.8,0.3-1.2,0.3c-0.1,0-0.1,0-0.2,0c-0.5,0-0.9-0.2-1.3-0.5
				c-0.4-0.3-0.7-0.7-0.9-1.1l0,0L1.2,4c0,0,0,0,0,0C1,3.6,1,3.1,1.1,2.6c0.1-0.5,0.3-0.9,0.7-1.3C2,1.1,2.2,1,2.5,1 M2.5,0
				C2.5,0,2.5,0,2.5,0C2,0,1.5,0.2,1.1,0.6c-0.5,0.5-0.8,1.1-1,1.8C0,3.1,0,3.8,0.3,4.4l14,34.6c0.2,0.6,0.7,1.1,1.2,1.5
				c0.5,0.4,1.2,0.6,1.8,0.7c0.1,0,0.1,0,0.2,0c0.6,0,1.2-0.1,1.7-0.4c0.6-0.3,1.1-0.8,1.4-1.4l5.4-9.7l11.9,11.9
				c0.3,0.3,0.6,0.5,1,0.7c0.4,0.1,0.7,0.2,1.1,0.2c0.6,0,1.2-0.2,1.7-0.5c0.5-0.3,0.9-0.8,1.1-1.3c0.2-0.5,0.3-1.1,0.2-1.7
				c-0.1-0.6-0.4-1.1-0.8-1.5L29.8,25.1c0,0-0.1-0.1-0.1-0.1c-0.1-0.1-0.1-0.1-0.2-0.2c-0.2-0.2-0.4-0.4-0.7-0.6
				c-0.6-0.5-1.4-1.3-2.4-2.3c-1.7-1.6-3.9-3.8-6.2-6L20,15.8l-0.3-0.2L19,14.7C13.1,9,7.2,3.3,4.6,0.9C4.1,0.5,3.5,0.1,2.9,0.1
				C2.8,0,2.6,0,2.5,0L2.5,0z"/>
		</g>
		<g>
			<path class="st1" d="M30.2,22.2c-0.2,0-0.4,0-0.6-0.1c-0.4-0.1-0.8-0.4-1.2-0.7c-0.7-0.6-1-1.3-1-2c0-0.4,0.1-0.8,0.4-1.2
				c-0.4,0.2-0.7,0.4-1.1,0.4c-0.1,0-0.2,0-0.3,0c-0.6,0-1.2-0.3-1.8-0.9c-0.7-0.7-1-1.4-0.9-2.1c0.1-0.7,0.4-1.3,1.1-2l0.2-0.2
				c0.1-0.1,0.2-0.1,0.4-0.2c0,0,0,0,0,0c0.1,0,0.3,0.1,0.3,0.1l1,0.9c0,0,0,0,0-0.1c0-0.1,0-0.3,0.1-0.4l0.8-0.8
				c0.1-0.1,0.1-0.1,0.2-0.1l-0.9-0.8c-0.1-0.1-0.1-0.2-0.2-0.4c0-0.1,0-0.3,0.1-0.4l0.3-0.4c0.1-0.1,0.1-0.1,0.2-0.2
				c0,0-0.5-0.5-0.5-0.5l-4.4,4.5c-0.1,0.1-0.2,0.2-0.4,0.2c-0.1,0-0.3,0-0.3-0.1l-1.3-1.3c-0.1-0.1-0.1-0.2-0.2-0.4
				c0-0.1,0-0.3,0.1-0.4l4.4-4.5L24.3,8c-0.1-0.1-0.1-0.2-0.2-0.4c0-0.1,0-0.3,0.1-0.4l0.9-1c0.1-0.1,0.2-0.2,0.4-0.2
				c0.1,0,0.3,0,0.3,0.1l3,2.9c0.2,0.2,0.2,0.5,0,0.7l-0.3,0.3c0.1,0,0.2,0,0.3,0c0,0,0,0,0,0c0.7,0,1.4,0.3,1.9,0.9
				c0.6,0.6,0.9,1.2,0.9,1.9c0,0.4-0.1,0.8-0.3,1.1c0.3-0.2,0.7-0.3,1.1-0.3c0.7,0,1.4,0.3,2,0.9c0.7,0.7,0.9,1.3,0.8,2
				c-0.1,0.6-0.4,1.2-0.9,1.7c-0.1,0.1-0.2,0.2-0.4,0.2c-0.1,0-0.2,0-0.3-0.1l-1.1-0.9l0.1,0.8c0.1,0.6,0,1.1-0.1,1.6
				c-0.1,0.5-0.4,1-0.8,1.4c-0.3,0.3-0.7,0.6-1.1,0.7C30.6,22.2,30.4,22.2,30.2,22.2z M30.2,19.1c-0.2,0.3-0.3,0.4-0.3,0.5
				c0,0,0,0,0,0.1c0,0,0,0,0.1-0.1C30.1,19.4,30.2,19.3,30.2,19.1C30.2,19.1,30.2,19.1,30.2,19.1z M28.9,17.1c0.1,0,0.1,0,0.2,0.1
				l1.1,0.8l-0.1-0.7c0-0.5,0-1,0.1-1.4c0-0.2,0.1-0.3,0.2-0.5c-0.2,0.1-0.3,0.2-0.5,0.2c-0.1,0-0.3,0.1-0.4,0.1
				c0,0.1,0,0.3-0.1,0.4C29.3,16.5,29.2,16.8,28.9,17.1z M26.9,14.9c0,0.1,0,0.3-0.1,0.4l-0.2,0.2c-0.3,0.3-0.4,0.5-0.4,0.5
				c0,0,0.2-0.1,0.5-0.4c0.3-0.3,0.4-0.5,0.4-0.6C27,15.1,27,15,26.9,14.9z M28.5,13.5C28.6,13.5,28.6,13.5,28.5,13.5
				c0.1,0,0.3,0,0.6-0.4c0.2-0.2,0.3-0.4,0.3-0.4c0,0-0.2,0.1-0.4,0.3l-0.3,0.3C28.7,13.4,28.6,13.5,28.5,13.5z"/>
			<path d="M25.6,6.7l3,2.9l-0.9,1l-0.9-0.8l-4.7,4.9l-1.3-1.3l4.7-4.9l-0.9-0.9L25.6,6.7 M29.1,10.7c0.5,0,1.1,0.2,1.6,0.7
				c0.5,0.5,0.8,1,0.8,1.6c0,0.5-0.2,1.1-0.7,1.6c-0.3,0.3-0.7,0.5-1,0.7c-0.1,0-0.3,0.1-0.4,0.1c-0.2,0-0.4,0-0.5-0.1
				c0.1,0.3,0.2,0.6,0.1,0.9c-0.1,0.3-0.3,0.7-0.7,1.1c-0.5,0.6-1.1,0.9-1.7,1c-0.1,0-0.1,0-0.2,0c-0.5,0-1-0.2-1.5-0.7
				c-0.6-0.6-0.8-1.1-0.8-1.7c0.1-0.6,0.4-1.1,0.9-1.7l0.2-0.2l1.2,1.2l-0.2,0.2c-0.3,0.3-0.5,0.5-0.5,0.7c-0.1,0.2,0,0.3,0.2,0.5
				c0.1,0.1,0.2,0.2,0.3,0.2c0.1,0,0.1,0,0.2,0c0.2-0.1,0.4-0.2,0.7-0.5c0.3-0.3,0.5-0.6,0.5-0.8c0.1-0.2,0-0.5-0.3-0.7L27,14.4
				l0.8-0.8l0.2,0.2c0.2,0.2,0.4,0.3,0.6,0.3c0,0,0.1,0,0.1,0c0.2,0,0.5-0.2,0.8-0.5c0.2-0.2,0.4-0.4,0.4-0.6c0-0.2,0-0.3-0.2-0.5
				c-0.1-0.1-0.2-0.1-0.3-0.1c-0.1,0-0.1,0-0.2,0c-0.2,0.1-0.4,0.2-0.6,0.5L28.4,13l-1.2-1.2l0.3-0.4C28,11,28.6,10.7,29.1,10.7
				C29.1,10.7,29.1,10.7,29.1,10.7 M32.8,14.3C32.8,14.3,32.8,14.3,32.8,14.3c0.6,0,1.1,0.3,1.6,0.8c0.5,0.5,0.8,1.1,0.7,1.6
				c-0.1,0.5-0.4,1-0.8,1.5L33,17.2c0.3-0.3,0.5-0.6,0.5-0.7c0.1-0.2,0.1-0.3-0.1-0.5c-0.1-0.1-0.2-0.1-0.3-0.1c0,0-0.1,0-0.1,0
				c-0.1,0-0.3,0.1-0.4,0.2c-0.2,0.2-0.3,0.4-0.4,0.6c0,0.2,0,0.5,0,0.9l0.1,0.9c0,0.5,0,1-0.1,1.4c-0.1,0.4-0.3,0.8-0.7,1.2
				c-0.3,0.3-0.6,0.5-0.9,0.6c-0.2,0.1-0.3,0.1-0.5,0.1c-0.2,0-0.3,0-0.5-0.1c-0.4-0.1-0.7-0.3-1-0.6c-0.6-0.5-0.8-1.1-0.8-1.6
				c0-0.6,0.3-1.2,0.9-1.8l1.3,0.9c-0.4,0.4-0.6,0.7-0.6,0.9c-0.1,0.2,0,0.4,0.2,0.6c0.1,0.1,0.2,0.1,0.3,0.1c0.1,0,0.3-0.1,0.4-0.2
				c0.2-0.2,0.4-0.5,0.4-0.7c0.1-0.3,0.1-0.6,0-1l-0.1-0.9c0-0.5,0-0.9,0.1-1.2c0.1-0.4,0.3-0.7,0.6-1
				C31.8,14.6,32.3,14.3,32.8,14.3 M25.6,5.7C25.6,5.7,25.6,5.7,25.6,5.7c-0.3,0-0.5,0.1-0.7,0.3l-0.9,1c-0.4,0.4-0.4,1,0,1.4
				l0.2,0.2l-4,4.1c-0.4,0.4-0.4,1,0,1.4l1.3,1.3c0.2,0.2,0.4,0.3,0.7,0.3c0.3,0,0.5-0.1,0.7-0.3l0.5-0.5c-0.1,0.3-0.2,0.6-0.2,0.8
				c-0.1,0.9,0.3,1.7,1.1,2.5c0.7,0.7,1.4,1,2.2,1c0.1,0,0.2,0,0.3,0c0.1,0,0.1,0,0.2,0c0,0.1,0,0.2,0,0.3c0,0.9,0.4,1.7,1.1,2.4
				c0.4,0.4,0.9,0.7,1.4,0.8c0.3,0.1,0.5,0.1,0.8,0.1c0.3,0,0.5,0,0.8-0.1c0.5-0.1,1-0.4,1.4-0.8c0.5-0.5,0.8-1.1,1-1.7
				c0.1-0.4,0.2-0.9,0.1-1.4l0.3,0.2c0.2,0.1,0.4,0.2,0.6,0.2c0.3,0,0.5-0.1,0.7-0.3c0.6-0.6,0.9-1.3,1.1-1.9
				c0.1-0.6,0.1-1.5-0.9-2.5c-0.7-0.7-1.4-1-2.2-1.1l-0.1,0c-0.1,0-0.2,0-0.3,0c0-0.1,0-0.3,0-0.4c0-0.8-0.4-1.6-1.1-2.2
				c-0.5-0.5-1.1-0.8-1.7-0.9c0-0.3-0.1-0.6-0.3-0.8l-3-2.9C26.1,5.8,25.9,5.7,25.6,5.7L25.6,5.7z M25.2,12.9l1-1
				c0,0.3,0.1,0.5,0.3,0.7l0.5,0.4l-0.6,0.6l-0.5-0.4C25.7,13,25.5,12.9,25.2,12.9C25.2,12.9,25.2,12.9,25.2,12.9L25.2,12.9z
				 M29.6,17C29.6,17,29.6,17,29.6,17C29.6,17,29.6,17,29.6,17L29.6,17L29.6,17z"/>
		</g>
	</g>
</g>
</svg>
