<?xml version="1.0" encoding="utf-8"?>
<!-- Generator: Adobe Illustrator 23.0.6, SVG Export Plug-In . SVG Version: 6.00 Build 0)  -->
<svg version="1.1" id="Calque_1" xmlns="http://www.w3.org/2000/svg" xmlns:xlink="http://www.w3.org/1999/xlink" x="0px" y="0px"
	 viewBox="0 0 44.9 44.3" style="enable-background:new 0 0 44.9 44.3;" xml:space="preserve">
<style type="text/css">
	.st0{fill:url(#SVGID_1_);}
	.st1{fill:#FFDD2C;}
</style>
<g>
	
		<linearGradient id="SVGID_1_" gradientUnits="userSpaceOnUse" x1="21.5393" y1="39.8747" x2="21.5393" y2="-2.9818" gradientTransform="matrix(1 0 0 -1 0 41.3044)">
		<stop  offset="0" style="stop-color:#FFDD2C"/>
		<stop  offset="1" style="stop-color:#000000"/>
	</linearGradient>
	<path class="st0" d="M40,43.8c-0.3,0-0.6-0.1-0.9-0.2c-0.3-0.1-0.6-0.3-0.8-0.5L25.9,30.7L20.2,41c-0.3,0.5-0.7,0.9-1.2,1.2
		c-0.4,0.2-0.9,0.4-1.4,0.4c-0.1,0-0.1,0-0.2,0c-0.6,0-1.1-0.2-1.6-0.6c-0.5-0.3-0.8-0.8-1-1.3L0.8,6C0.6,5.5,0.5,4.9,0.7,4.3
		c0.1-0.6,0.4-1.1,0.8-1.5c0.3-0.3,0.7-0.5,1.1-0.5c0.1,0,0.2,0,0.3,0c0.5,0.1,1,0.3,1.4,0.7c2.6,2.4,8.5,8.1,14.4,13.8l1,1
		c2.4,2.3,4.6,4.5,6.3,6.1c1,0.9,1.8,1.7,2.4,2.3c0.3,0.3,0.5,0.5,0.7,0.6l0.3,0.3l12.3,12.3c0.3,0.4,0.6,0.8,0.7,1.3
		c0.1,0.5,0,1-0.1,1.4c-0.2,0.5-0.5,0.8-0.9,1.1C41,43.6,40.5,43.8,40,43.8L40,43.8z"/>
	<path d="M2.6,2.8c0.1,0,0.1,0,0.2,0C3.2,2.9,3.6,3.1,4,3.4c2.7,2.4,8.8,8.4,14.4,13.8c0.4,0.3,0.7,0.7,1,1c2.4,2.3,4.6,4.5,6.3,6.1
		c1,0.9,1.8,1.7,2.4,2.3c0.3,0.3,0.5,0.5,0.7,0.7c0.1,0.1,0.2,0.1,0.2,0.2c0,0,0.1,0,0.1,0.1l0,0c0,0,0,0,0,0l12.3,12.3c0,0,0,0,0,0
		c0.3,0.3,0.5,0.6,0.5,1c0.1,0.4,0,0.8-0.1,1.2c-0.2,0.4-0.4,0.7-0.7,0.9c-0.3,0.2-0.7,0.3-1.1,0.3h0c0,0,0,0,0,0
		c-0.3,0-0.5-0.1-0.7-0.1c-0.2-0.1-0.5-0.2-0.6-0.4l0,0L26.3,30.4l-0.5-0.5l-0.3,0.6l-5.7,10.2l0,0c-0.2,0.4-0.6,0.8-1,1
		C18.4,41.9,18,42,17.6,42c-0.1,0-0.1,0-0.2,0c-0.5,0-0.9-0.2-1.3-0.5c-0.4-0.3-0.7-0.7-0.9-1.1l0,0L1.3,5.8c0,0,0,0,0,0
		c-0.2-0.5-0.2-1-0.1-1.4c0.1-0.5,0.3-0.9,0.7-1.3C2.1,2.9,2.3,2.8,2.6,2.8 M2.6,1.8C2,1.8,1.5,2,1.1,2.4c-0.5,0.5-0.8,1.1-1,1.8
		C0,4.9,0.1,5.6,0.3,6.2l14,34.6c0.2,0.6,0.7,1.1,1.2,1.5c0.5,0.4,1.2,0.6,1.8,0.7c0.1,0,0.1,0,0.2,0c0.6,0,1.2-0.1,1.7-0.4
		c0.6-0.3,1.1-0.8,1.4-1.4l5.4-9.7l11.9,11.9c0.3,0.3,0.6,0.5,1,0.7c0.4,0.1,0.7,0.2,1.1,0.2c0.6,0,1.2-0.2,1.7-0.5
		c0.5-0.3,0.9-0.8,1.1-1.3c0.2-0.5,0.3-1.1,0.2-1.7c-0.1-0.6-0.4-1.1-0.8-1.5L29.8,26.9l-0.1-0.1l-0.1,0l0,0c-0.1,0-0.1-0.1-0.2-0.2
		c-0.2-0.2-0.4-0.4-0.7-0.6c-0.6-0.5-1.4-1.3-2.4-2.3c-1.7-1.6-3.9-3.8-6.2-6.1l-0.1-0.1l-1-1C13.2,10.8,7.3,5.1,4.7,2.7
		C4.2,2.2,3.6,1.9,3,1.8C2.8,1.8,2.7,1.8,2.6,1.8L2.6,1.8z"/>
</g>
<g>
	<path class="st1" d="M38.7,32.6c-0.2,0-0.4,0-0.6-0.1c-0.4-0.1-0.8-0.4-1.2-0.7c-0.7-0.6-1-1.3-1-2c0-0.3,0.1-0.6,0.2-0.8l-0.4,0.7
		c-0.1,0.1-0.2,0.2-0.4,0.2c0,0,0,0-0.1,0c-0.1,0-0.3,0-0.3-0.1l-1.2-1.1c-0.2-0.2-0.2-0.4-0.1-0.6l0.8-1.1l-0.2-0.2l-1.1,0.8
		c-0.1,0.1-0.2,0.1-0.3,0.1c-0.1,0-0.3,0-0.3-0.1l-1.2-1.2c-0.1-0.1-0.2-0.2-0.1-0.4s0.1-0.3,0.2-0.4l6.7-4.7
		c0.1-0.1,0.2-0.1,0.3-0.1c0.1,0,0.3,0,0.3,0.1l1.5,1.4c0.2,0.2,0.2,0.4,0.1,0.6L37,27.6c0,0,0,0,0,0c0.1-0.1,0.2-0.2,0.4-0.2
		c0.1,0,0.2,0,0.3,0.1l1.1,0.8l-0.1-0.7c0-0.5,0-1,0.1-1.4c0.1-0.5,0.4-0.9,0.7-1.3c0.6-0.6,1.2-0.9,1.8-0.9c0.7,0,1.4,0.3,2,0.9
		c0.7,0.7,0.9,1.3,0.8,2c-0.1,0.6-0.4,1.2-0.9,1.7c-0.1,0.1-0.2,0.2-0.4,0.2c-0.1,0-0.2,0-0.3-0.1L41.4,28l0.1,0.8
		c0.1,0.6,0,1.1-0.1,1.6c-0.1,0.5-0.4,1-0.8,1.4c-0.3,0.3-0.7,0.6-1.1,0.7C39.2,32.5,38.9,32.6,38.7,32.6z M38.8,29.4
		c-0.2,0.3-0.3,0.4-0.3,0.5c0,0,0,0,0,0.1c0,0,0,0,0.1-0.1C38.6,29.8,38.7,29.6,38.8,29.4C38.8,29.4,38.8,29.4,38.8,29.4z
		 M30.8,25.4c-0.1,0-0.3,0-0.3-0.1l-1.3-1.3C29,24,29,23.8,29,23.7c0-0.1,0-0.3,0.1-0.4l4.4-4.5L33,18.3c-0.1-0.1-0.1-0.1-0.1-0.2
		l-4.4,4.5c-0.1,0.1-0.2,0.1-0.4,0.2c0,0,0,0,0,0c-0.1,0-0.3-0.1-0.3-0.1l-1.3-1.2c-0.2-0.2-0.2-0.5,0-0.7l5.6-5.8
		c0.1-0.1,0.2-0.1,0.4-0.2c0,0,0,0,0,0c0.1,0,0.3,0.1,0.3,0.1l1.3,1.2c0.1,0.1,0.2,0.2,0.2,0.4c0,0,0,0,0,0c0.1,0,0.3,0.1,0.3,0.1
		l3,2.9c0.1,0.1,0.1,0.2,0.2,0.4c0,0.1,0,0.3-0.1,0.4l-0.9,1c-0.1,0.1-0.2,0.2-0.4,0.2c-0.1,0-0.3,0-0.3-0.1l-0.5-0.5l-4.4,4.5
		C31,25.4,30.9,25.4,30.8,25.4z M25.9,20.7c-0.1,0-0.3-0.1-0.3-0.1l-0.9-0.8c-0.1-0.1-0.2-0.4-0.1-0.6l0.7-1.7l-1.1,1.1
		c-0.1,0.1-0.2,0.1-0.4,0.2c0,0,0,0,0,0c-0.1,0-0.3-0.1-0.3-0.1l-1.1-1.1c-0.2-0.2-0.2-0.5,0-0.7L28,11c0.1-0.1,0.2-0.2,0.4-0.2
		c0.1,0,0.3,0,0.3,0.1l0.9,0.9c0.1,0.1,0.2,0.4,0.1,0.5l-0.6,1.7l1-1c0.1-0.1,0.2-0.2,0.4-0.2c0.1,0,0.3,0,0.3,0.1l1.1,1
		c0.1,0.1,0.1,0.2,0.2,0.4c0,0.1,0,0.3-0.1,0.4l-5.6,5.8C26.2,20.7,26.1,20.7,25.9,20.7C25.9,20.7,25.9,20.7,25.9,20.7z M22,16.9
		c-0.1,0-0.3-0.1-0.3-0.1l-0.8-0.8c-0.1-0.1-0.2-0.2-0.2-0.4c-0.3-0.1-0.7-0.3-0.9-0.5c-0.7-0.7-1-1.4-0.9-2.2
		c0.1-0.7,0.5-1.4,1.2-2.1l1.9-2c0.7-0.7,1.4-1.2,2.1-1.3c0.1,0,0.2,0,0.3,0c0.7,0,1.3,0.3,2,0.9c0.7,0.7,1.1,1.4,1,2.1
		c0,0.7-0.4,1.3-1,2L26,12.9c-0.1,0.1-0.2,0.2-0.4,0.2c-0.1,0-0.3,0-0.3-0.1l-1.3-1.2c-0.1-0.1-0.1-0.2-0.2-0.4c0-0.1,0-0.3,0.1-0.4
		l0.5-0.5c0.2-0.2,0.3-0.4,0.3-0.4l-0.1-0.1c0,0-0.1,0.1-0.4,0.3l-0.9,0.9c0,0,0.1,0,0.1,0.1l1.7,1.6c0.2,0.2,0.2,0.5,0,0.7l-2.9,3
		C22.2,16.8,22.1,16.9,22,16.9C22,16.9,22,16.9,22,16.9z M21.7,13.1c-0.2,0.2-0.3,0.4-0.3,0.4l0.1,0.1c0,0,0.2,0,0.4-0.3l0.3-0.3
		l-0.2-0.2c0,0-0.1-0.1-0.1-0.1L21.7,13.1z M17.7,12.8c-0.1,0-0.3-0.1-0.3-0.1l-1.3-1.2c-0.2-0.2-0.2-0.5,0-0.7l5.6-5.8
		c0.1-0.1,0.2-0.1,0.4-0.2c0,0,0,0,0,0c0.1,0,0.3,0.1,0.3,0.1l1.3,1.2c0.2,0.2,0.2,0.5,0,0.7l-5.6,5.8C18,12.7,17.9,12.8,17.7,12.8
		C17.7,12.8,17.7,12.8,17.7,12.8z M15.6,9.9c-0.2,0-0.5,0-0.7-0.1c-0.5-0.2-1-0.5-1.5-1l-1.5-1.4c-0.2-0.2-0.2-0.5,0-0.7l5.6-5.8
		c0.1-0.1,0.2-0.2,0.4-0.2c0.1,0,0.3,0,0.3,0.1l1.5,1.4c0.6,0.5,0.9,1,1.1,1.5c0.2,0.5,0.2,1,0,1.5c-0.2,0.4-0.5,0.9-1,1.4l-2,2.1
		c-0.5,0.5-0.9,0.8-1.4,1C16.2,9.9,15.9,9.9,15.6,9.9z M15.1,7.3C15.1,7.3,15.2,7.3,15.1,7.3c0.2,0,0.3-0.1,0.5-0.3L18,4.4
		c0.2-0.2,0.3-0.3,0.3-0.3c0,0,0,0,0-0.1L15.1,7.3z"/>
	<path d="M17.9,1.1l1.5,1.4c0.5,0.5,0.8,0.9,1,1.3c0.2,0.4,0.2,0.8,0,1.2c-0.1,0.4-0.4,0.8-0.9,1.2l-2,2.1c-0.4,0.4-0.8,0.8-1.2,0.9
		c-0.2,0.1-0.4,0.1-0.6,0.1c-0.2,0-0.4,0-0.6-0.1c-0.4-0.1-0.9-0.5-1.4-0.9l-1.5-1.4L17.9,1.1 M15.2,7.8c0.1,0,0.2,0,0.3-0.1
		c0.1-0.1,0.3-0.2,0.5-0.4l2.5-2.5c0.2-0.2,0.3-0.3,0.4-0.5c0.1-0.1,0.1-0.3,0-0.4c0-0.1-0.2-0.3-0.3-0.5l-0.2-0.2l-3.9,4l0.2,0.2
		c0.2,0.2,0.3,0.3,0.5,0.3C15.1,7.8,15.1,7.8,15.2,7.8 M22.1,5.2l1.3,1.2l-5.6,5.8L16.4,11L22.1,5.2 M24.3,8c0.5,0,1.1,0.3,1.6,0.8
		c0.6,0.6,0.9,1.2,0.9,1.7c0,0.6-0.3,1.1-0.8,1.6l-0.4,0.4l-1.3-1.2l0.5-0.5c0.2-0.2,0.4-0.4,0.4-0.6c0.1-0.2,0-0.3-0.2-0.5
		c-0.1-0.1-0.3-0.2-0.4-0.2c-0.1,0-0.1,0-0.2,0c-0.2,0.1-0.4,0.2-0.6,0.5l-2.6,2.7c-0.2,0.2-0.4,0.4-0.4,0.6c-0.1,0.2,0,0.4,0.2,0.6
		c0.1,0.1,0.3,0.2,0.4,0.2c0.2,0,0.5-0.2,0.8-0.5L23,13l-0.5-0.5l0.7-0.8l1.7,1.6l-2.9,3l-0.8-0.8l0.4-0.6c-0.2,0.1-0.3,0.1-0.5,0.1
		c-0.4,0-0.7-0.1-1-0.4c-0.6-0.6-0.8-1.1-0.7-1.7c0.1-0.6,0.5-1.2,1.1-1.8l1.9-2c0.6-0.7,1.3-1,1.9-1.1C24.2,8.1,24.3,8,24.3,8
		 M28.4,11.4l0.9,0.9l-1.5,4l2.7-2.8l1.1,1l-5.6,5.8L25,19.4l1.7-4.2l-2.9,3l-1.1-1.1L28.4,11.4 M32.4,15.3l1.3,1.2l-5.6,5.8
		l-1.3-1.2L32.4,15.3 M34.2,17l3,2.9l-0.9,1l-0.9-0.8l-4.7,4.9l-1.3-1.3l4.7-4.9L33.3,18L34.2,17 M38.3,21l1.5,1.4l-4.6,6.9
		l-1.2-1.1l1-1.4l-0.9-0.8l-1.4,1l-1.2-1.2L38.3,21 M37.6,23.3l-2.5,2l0.6,0.6L37.6,23.3 M41.4,24.6C41.4,24.6,41.4,24.6,41.4,24.6
		c0.6,0,1.1,0.3,1.6,0.8c0.5,0.5,0.8,1.1,0.7,1.6c-0.1,0.5-0.4,1-0.8,1.5l-1.2-0.9c0.3-0.3,0.5-0.6,0.5-0.7c0.1-0.2,0.1-0.3-0.1-0.5
		c-0.1-0.1-0.2-0.1-0.3-0.1c0,0-0.1,0-0.1,0c-0.1,0-0.3,0.1-0.4,0.2c-0.2,0.2-0.3,0.4-0.4,0.6c0,0.2,0,0.5,0,0.9l0.1,0.9
		c0,0.5,0,1-0.1,1.4c-0.1,0.4-0.3,0.8-0.7,1.2c-0.3,0.3-0.6,0.5-0.9,0.6c-0.2,0.1-0.3,0.1-0.5,0.1c-0.2,0-0.3,0-0.5-0.1
		c-0.4-0.1-0.7-0.3-1-0.6c-0.6-0.5-0.8-1.1-0.8-1.6c0-0.6,0.3-1.2,0.9-1.8l1.3,0.9c-0.4,0.4-0.6,0.7-0.6,0.9c-0.1,0.2,0,0.4,0.2,0.6
		c0.1,0.1,0.2,0.1,0.3,0.1c0.1,0,0.3-0.1,0.4-0.2c0.2-0.2,0.4-0.5,0.4-0.7c0.1-0.3,0.1-0.6,0-1l-0.1-0.9c0-0.5,0-0.9,0.1-1.2
		c0.1-0.4,0.3-0.7,0.6-1C40.3,24.9,40.8,24.6,41.4,24.6 M17.9,0.1c-0.3,0-0.5,0.1-0.7,0.3l-5.6,5.8c-0.4,0.4-0.4,1,0,1.4L13,9.1
		c0.6,0.6,1.2,1,1.7,1.2c0.3,0.1,0.6,0.2,0.9,0.2c0,0,0,0,0,0c-0.3,0.4-0.3,1,0.1,1.3L17,13c0.2,0.2,0.4,0.3,0.7,0.3c0,0,0,0,0,0
		c0.2,0,0.4-0.1,0.5-0.2c0,0.6,0.2,1.4,1,2.3c0.3,0.3,0.6,0.5,0.9,0.6c0.1,0.1,0.1,0.2,0.2,0.3l0.8,0.8c0.1,0.1,0.3,0.2,0.5,0.3
		c0,0.2,0.1,0.4,0.3,0.5l1.1,1.1c0.2,0.2,0.4,0.3,0.7,0.3c0,0,0,0,0,0c0.1,0,0.1,0,0.2,0c-0.1,0.3,0,0.7,0.3,0.9l0.9,0.8
		c0.2,0.2,0.4,0.3,0.6,0.3c0,0.2,0.1,0.4,0.3,0.6l1.3,1.2c0.2,0.2,0.4,0.3,0.7,0.3c0.2,0,0.4,0,0.5-0.1c-0.2,0.4-0.2,0.9,0.2,1.2
		l1.3,1.3c0.2,0.1,0.3,0.2,0.6,0.3c0,0.2,0.1,0.4,0.3,0.5l1.2,1.2c0.2,0.2,0.4,0.3,0.7,0.3c0.1,0,0.2,0,0.3,0c-0.1,0.3,0,0.7,0.3,1
		l1.2,1.1c0.2,0.2,0.4,0.3,0.7,0.3c0,0,0.1,0,0.1,0c0,0,0.1,0,0.1,0c0.1,0.7,0.5,1.3,1.1,1.8c0.4,0.4,0.9,0.7,1.4,0.8
		c0.3,0.1,0.5,0.1,0.8,0.1c0.3,0,0.5,0,0.8-0.1c0.5-0.1,1-0.4,1.4-0.8c0.5-0.5,0.8-1.1,1-1.7C42,30,42,29.6,42,29l0.3,0.2
		c0.2,0.1,0.4,0.2,0.6,0.2c0.3,0,0.5-0.1,0.7-0.3c0.6-0.6,0.9-1.3,1.1-1.9c0.1-0.6,0.1-1.5-0.9-2.5c-0.7-0.7-1.4-1-2.2-1.1l-0.1,0
		c-0.5,0-1,0.1-1.4,0.4l0.7-1c0.3-0.4,0.2-0.9-0.1-1.3L39,20.3c-0.2-0.2-0.4-0.3-0.7-0.3c0,0,0,0-0.1,0c0,0,0,0,0-0.1
		c0-0.3-0.1-0.5-0.3-0.7l-3-2.9c-0.1-0.1-0.2-0.2-0.3-0.2c-0.1-0.1-0.1-0.2-0.2-0.3l-1.3-1.2c-0.2-0.2-0.4-0.3-0.6-0.3
		c0-0.2-0.1-0.4-0.3-0.6l-1.1-1c-0.2-0.2-0.4-0.3-0.7-0.3c-0.1,0-0.1,0-0.2,0c0.1-0.3,0-0.7-0.3-0.9l-0.9-0.9
		c-0.2-0.2-0.4-0.3-0.7-0.3c-0.2,0-0.4,0.1-0.6,0.2c0-0.8-0.4-1.6-1.2-2.4C25.9,7.4,25.1,7,24.3,7c-0.1,0-0.1,0-0.2,0
		c0.1-0.2,0.2-0.4,0.2-0.6c0-0.3-0.1-0.5-0.3-0.7l-1.3-1.2c-0.2-0.2-0.4-0.3-0.7-0.3c-0.2,0-0.4,0.1-0.6,0.2c0-0.3-0.1-0.6-0.2-0.9
		C21,3,20.6,2.4,20,1.8l-1.5-1.4C18.4,0.2,18.1,0.1,17.9,0.1L17.9,0.1z M34.6,22.4l0.9-0.9l0.2,0.1c0,0,0,0,0,0L34.6,22.4L34.6,22.4
		z M37.9,27.1l0.3-0.5c0,0.2,0,0.4,0,0.7L37.9,27.1C37.9,27.1,37.9,27.1,37.9,27.1L37.9,27.1z"/>
</g>
</svg>
