<?xml version="1.0" encoding="utf-8"?>
<!-- Generator: Adobe Illustrator 23.0.6, SVG Export Plug-In . SVG Version: 6.00 Build 0)  -->
<svg version="1.1" id="Calque_1" xmlns="http://www.w3.org/2000/svg" xmlns:xlink="http://www.w3.org/1999/xlink" x="0px" y="0px"
	 viewBox="0 0 47.6 45.4" style="enable-background:new 0 0 47.6 45.4;" xml:space="preserve">
<style type="text/css">
	.st0{fill:#FF1F00;}
	.st1{fill:#E5E5E5;}
</style>
<g>
	<path class="st0" d="M40,44.7c-0.3,0-0.6-0.1-0.9-0.2c-0.3-0.1-0.6-0.3-0.8-0.5L25.9,31.6l-5.7,10.2c-0.3,0.5-0.7,0.9-1.2,1.2
		c-0.4,0.2-0.9,0.4-1.4,0.4c-0.1,0-0.1,0-0.2,0c-0.6,0-1.1-0.2-1.6-0.6c-0.5-0.3-0.8-0.8-1-1.3L0.8,6.9C0.6,6.4,0.6,5.8,0.7,5.2
		c0.1-0.6,0.4-1.1,0.8-1.5c0.3-0.3,0.7-0.5,1.1-0.5c0.1,0,0.2,0,0.3,0c0.5,0.1,1,0.3,1.4,0.7c2.6,2.4,8.5,8.1,14.4,13.8l1,1
		c2.4,2.3,4.6,4.5,6.3,6.1c1,0.9,1.8,1.7,2.4,2.3c0.3,0.3,0.5,0.5,0.7,0.6l0.3,0.3l12.3,12.3c0.3,0.4,0.6,0.8,0.7,1.3
		c0.1,0.5,0,1-0.1,1.4c-0.2,0.5-0.5,0.8-0.9,1.1S40.5,44.7,40,44.7L40,44.7z"/>
	<path class="st1" d="M2.6,3.7c0.1,0,0.1,0,0.2,0C3.2,3.8,3.6,4,4,4.3c2.7,2.4,8.8,8.4,14.4,13.8c0.4,0.3,0.7,0.7,1,1
		c2.4,2.3,4.6,4.5,6.3,6.1c1,0.9,1.8,1.7,2.4,2.3c0.3,0.3,0.5,0.5,0.7,0.7c0.1,0.1,0.2,0.1,0.2,0.2c0,0,0.1,0,0.1,0.1l0,0
		c0,0,0,0,0,0l12.3,12.3c0,0,0,0,0,0c0.3,0.3,0.5,0.6,0.5,1c0.1,0.4,0,0.8-0.1,1.2c-0.2,0.4-0.4,0.7-0.7,0.9
		c-0.3,0.2-0.7,0.3-1.1,0.3h0c0,0,0,0,0,0c-0.3,0-0.5-0.1-0.7-0.1c-0.2-0.1-0.5-0.2-0.6-0.4l0,0L26.3,31.3l-0.5-0.5l-0.3,0.6
		l-5.7,10.2l0,0c-0.2,0.4-0.6,0.8-1,1c-0.4,0.2-0.8,0.3-1.2,0.3c-0.1,0-0.1,0-0.2,0c-0.5,0-0.9-0.2-1.3-0.5
		c-0.4-0.3-0.7-0.7-0.9-1.1l0,0L1.3,6.7c0,0,0,0,0,0c-0.2-0.5-0.2-1-0.1-1.4C1.3,4.8,1.5,4.4,1.9,4C2.1,3.8,2.3,3.7,2.6,3.7
		 M2.6,2.7L2.6,2.7c-0.6,0-1.1,0.2-1.5,0.6c-0.5,0.5-0.8,1.1-1,1.8c-0.1,0.7-0.1,1.4,0.2,2l14,34.6c0.2,0.6,0.7,1.1,1.2,1.5
		c0.5,0.4,1.2,0.6,1.8,0.7c0.1,0,0.1,0,0.2,0c0.6,0,1.2-0.1,1.7-0.4c0.6-0.3,1.1-0.8,1.4-1.4l5.4-9.7l11.9,11.9
		c0.3,0.3,0.6,0.5,1,0.7c0.4,0.1,0.7,0.2,1.1,0.2c0.6,0,1.2-0.2,1.7-0.5c0.5-0.3,0.9-0.8,1.1-1.3c0.2-0.5,0.3-1.1,0.2-1.7
		c-0.1-0.6-0.4-1.1-0.8-1.5L29.8,27.8l-0.1-0.1l-0.1-0.1c-0.1-0.1-0.1-0.1-0.2-0.2c-0.2-0.2-0.4-0.4-0.7-0.6
		c-0.6-0.5-1.4-1.3-2.4-2.3c-1.7-1.6-3.9-3.8-6.2-6l-0.1-0.1l-0.3-0.2l-0.8-0.8C13.2,11.7,7.3,6,4.7,3.6C4.2,3.1,3.6,2.8,3,2.7
		C2.9,2.7,2.7,2.7,2.6,2.7L2.6,2.7z"/>
</g>
<g>
	<path class="st0" d="M41.2,35.5c-0.1,0-0.3-0.1-0.3-0.1l-1-1c-0.2-0.2-0.2-0.5,0-0.7l1.8-1.8l1.1-2.2c0,0-0.1,0-0.1-0.1l-0.3-0.3
		l-3.4,3.5c-0.1,0.1-0.2,0.1-0.4,0.2c0,0,0,0,0,0c-0.1,0-0.3-0.1-0.3-0.1l-1-1c-0.2-0.2-0.2-0.5,0-0.7l3.4-3.5l-0.3-0.3
		c0,0,0,0,0-0.1l-3.4,3.5c-0.1,0.1-0.2,0.2-0.4,0.2c-0.1,0-0.3,0-0.3-0.1l-1-1c-0.1-0.1-0.1-0.2-0.2-0.4c0-0.1,0-0.3,0.1-0.4
		l0.5-0.5c-0.2,0.1-0.4,0.2-0.6,0.2c-0.1,0-0.1,0-0.2,0c-0.5,0-1.1-0.3-1.6-0.8c-0.6-0.6-0.9-1.2-0.8-1.8c0-0.3,0.1-0.7,0.3-1
		c-0.3,0.2-0.7,0.3-1,0.4c-0.1,0-0.1,0-0.2,0c-0.6,0-1.1-0.3-1.7-0.8c-0.6-0.6-0.9-1.2-0.8-1.8c0-0.6,0.4-1.2,0.9-1.8l0.9-1
		c-0.1,0-0.3,0.1-0.4,0.1c-0.1,0-0.1,0-0.2,0l-1.4,2.5c-0.1,0.1-0.2,0.2-0.4,0.3c0,0-0.1,0-0.1,0c-0.1,0-0.3,0-0.3-0.1l-1.1-1
		c-0.2-0.2-0.2-0.4-0.1-0.6l0.3-0.5l-0.3,0.3c-0.1,0.1-0.2,0.1-0.4,0.2c0,0,0,0,0,0c-0.1,0-0.3-0.1-0.3-0.1l-1-1
		c-0.2-0.2-0.2-0.5,0-0.7l2.2-2.3C27,17,26.9,17,26.7,17c0,0-0.1,0-0.1,0c-0.5,0-1.1-0.3-1.6-0.8L25,16.1l-1.6,1.6
		c-0.1,0.1-0.2,0.1-0.4,0.2c0,0,0,0,0,0c-0.1,0-0.3-0.1-0.3-0.1l-1-1c-0.2-0.2-0.2-0.4-0.1-0.6c-0.1,0-0.2,0.1-0.2,0.1c0,0,0,0,0,0
		c-0.1,0-0.3-0.1-0.3-0.1l-1-1c-0.2-0.2-0.2-0.5,0-0.7l0.5-0.5c-0.2,0.1-0.4,0.2-0.6,0.2c-0.1,0-0.1,0-0.2,0c-0.5,0-1.1-0.3-1.6-0.8
		c-0.6-0.6-0.9-1.2-0.8-1.8c0-0.1,0-0.1,0-0.2L17,11.5c-0.1,0.1-0.2,0.1-0.4,0.2c0,0,0,0,0,0c-0.1,0-0.3-0.1-0.3-0.1l-2.1-2
		C14.1,9.3,14,9.2,14,9.1c0,0,0,0-0.1,0c-0.1,0-0.3,0-0.3-0.1l-1.1-1c-0.2-0.2-0.2-0.4-0.1-0.6l0.3-0.5l-0.3,0.3
		c-0.1,0.1-0.2,0.2-0.4,0.2c-0.1,0-0.3,0-0.3-0.1l-1-1c-0.1-0.1-0.1-0.2-0.2-0.4c0-0.1,0-0.3,0.1-0.4l4.5-4.6
		c0.1-0.1,0.2-0.1,0.4-0.2c0,0,0,0,0,0c0.1,0,0.3,0.1,0.3,0.1L17.2,2c0.6,0.6,0.9,1.1,1,1.7c0.1,0.3,0,0.7-0.1,1l0.6-0.6
		C18.8,4,18.9,3.9,19,3.9c0,0,0,0,0,0c0.1,0,0.3,0.1,0.3,0.1l2.1,2c0.1,0.1,0.1,0.2,0.2,0.4c0,0.1,0,0.3-0.1,0.4l-0.2,0.2
		c0.1,0,0.1,0,0.2,0c0.1,0,0.1,0,0.2,0c0.6,0,1.1,0.3,1.7,0.8c0.6,0.6,0.9,1.2,0.8,1.7c0,0.2-0.1,0.4-0.1,0.6l0.4-0.5
		c0.1-0.1,0.2-0.1,0.4-0.2c0,0,0,0,0,0c0.1,0,0.3,0.1,0.3,0.1l1,1c0.2,0.2,0.2,0.4,0.1,0.6c0.1,0,0.2-0.1,0.3-0.1
		c0.1,0,0.3,0,0.3,0.1l1.6,1.5c0.5,0.5,0.8,1,0.7,1.6c0,0.1,0,0.3-0.1,0.4l0.3-0.4c0.1-0.1,0.2-0.1,0.4-0.2c0,0,0,0,0,0
		c0.1,0,0.3,0.1,0.3,0.1l1.3,1.2c0.6,0.6,0.9,1.1,1,1.7c0.1,0.4,0,0.7-0.2,1.1c0.3-0.1,0.5-0.2,0.8-0.2c0.1,0,0.1,0,0.2,0
		c0.6,0,1.1,0.3,1.7,0.8c0.6,0.6,0.9,1.2,0.9,1.8c0,0.3-0.1,0.7-0.3,1c0.3-0.2,0.6-0.3,1-0.4c0.1,0,0.1,0,0.2,0
		c0.6,0,1.1,0.3,1.7,0.8c0.6,0.6,0.9,1.2,0.8,1.7c0,0.2-0.1,0.4-0.1,0.6l0.4-0.5c0.1-0.1,0.2-0.1,0.4-0.2c0,0,0,0,0,0
		c0.1,0,0.3,0.1,0.3,0.1l1,1c0.1,0.1,0.1,0.2,0.1,0.3c0.1,0,0.2,0.1,0.3,0.1L44,28c0,0,0,0,0,0.1c0,0,0,0,0.1,0.1l1,0.9
		c0.2,0.2,0.2,0.4,0.1,0.6L45,30l0.3-0.2c0.1,0,0.2-0.1,0.3-0.1c0.1,0,0.3,0,0.3,0.1l0.9,0.9c0.1,0.1,0.2,0.3,0.1,0.4
		c0,0.2-0.1,0.3-0.3,0.4l-3.5,1.9l-1.8,1.8C41.4,35.4,41.3,35.5,41.2,35.5C41.2,35.5,41.2,35.5,41.2,35.5z M35.4,25.6
		c0.1,0,0.3,0,0.3,0.1l1,1c0.1,0.1,0.1,0.2,0.1,0.3l0.7-0.7c-0.1,0-0.2-0.1-0.3-0.1l-1-1c-0.1-0.1-0.2-0.4-0.1-0.5l-0.9,1
		C35.3,25.6,35.3,25.6,35.4,25.6z M33.6,20.6C33.6,20.6,33.6,20.6,33.6,20.6L33.6,20.6z M29.6,17.9C29.7,17.9,29.7,18,29.6,17.9
		c0.1,0.1,0.2,0,0.4-0.2s0.2-0.3,0.2-0.3l0,0c0,0,0,0-0.1-0.1L29.6,17.9z M26.4,14.7c0,0,0.1-0.1,0.3-0.2c0.1-0.1,0.2-0.2,0.2-0.3
		c0,0,0,0,0,0L26.4,14.7C26.4,14.7,26.4,14.7,26.4,14.7z M20.4,11c0.1,0,0.3,0.1,0.3,0.1l1,1c0.1,0.1,0.1,0.2,0.1,0.3l0.7-0.7
		c-0.1,0-0.2-0.1-0.3-0.1l-1-1c-0.1-0.1-0.1-0.2-0.2-0.4c0-0.1,0-0.1,0-0.2l-0.9,1C20.3,11,20.3,11,20.4,11C20.4,11,20.4,11,20.4,11
		z M17.6,10.1C17.7,10.1,17.7,10.1,17.6,10.1c0.2-0.1,0.3-0.2,0.5-0.4l0.4-0.4c0,0-0.1,0-0.1,0c0,0,0,0,0,0c-0.1,0-0.3-0.1-0.3-0.1
		l-0.4-0.4l-0.7,0.7L17.6,10.1z M19.4,7.7c0.1,0.1,0.1,0.2,0.2,0.4c0,0,0,0.1,0,0.1L19.7,8c0.2-0.2,0.3-0.3,0.5-0.4
		c0,0-0.1,0-0.1-0.1l-0.7-0.7L19,7.3L19.4,7.7z M14.8,8.1l2-2c-0.1,0-0.1,0.1-0.2,0.1c-0.2,0.1-0.4,0.1-0.6,0.1c-0.1,0-0.1,0-0.2,0
		L14.8,8.1z M15.4,4.1C15.5,4.1,15.5,4.1,15.4,4.1c0.1,0.1,0.2,0,0.4-0.2C16,3.7,16,3.6,16,3.6c0,0,0,0,0,0c0,0,0,0-0.1-0.1
		L15.4,4.1z"/>
	<path class="st1" d="M15.6,1.1l1.3,1.2c0.5,0.5,0.8,1,0.9,1.4c0.1,0.4-0.1,0.9-0.5,1.3c-0.3,0.3-0.6,0.5-0.8,0.6
		c-0.1,0.1-0.3,0.1-0.4,0.1c-0.1,0-0.3,0-0.5-0.1L14,8.6l-1.1-1l1.5-2.6l-0.3-0.3l-2,2.1l-1-1L15.6,1.1 M15.5,4.6
		C15.5,4.6,15.5,4.6,15.5,4.6c0.3,0,0.5-0.2,0.7-0.4c0.2-0.2,0.3-0.4,0.3-0.6c0-0.2-0.1-0.4-0.2-0.5l-0.3-0.3l-1.2,1.3L15,4.3
		C15.2,4.5,15.3,4.6,15.5,4.6 M19,4.4l2.1,2l-0.7,0.7l-1.1-1l-1.1,1.2l0.8,0.8l-0.7,0.7L17.6,8l-1.3,1.4l1.1,1l-0.7,0.7l-2.1-2
		L19,4.4 M21.7,7.5c0.4,0,0.9,0.2,1.3,0.7c0.5,0.5,0.7,0.9,0.7,1.4c0,0.4-0.2,0.9-0.7,1.3l-0.4,0.4l-1-1l0.5-0.5
		c0.2-0.2,0.3-0.3,0.3-0.5c0.1-0.1,0-0.3-0.1-0.4c-0.1-0.1-0.2-0.1-0.3-0.1c0,0-0.1,0-0.1,0c-0.1,0.1-0.3,0.2-0.5,0.4l-2.1,2.2
		c-0.2,0.2-0.3,0.3-0.3,0.5c0,0.1,0,0.3,0.1,0.4c0.1,0.1,0.2,0.1,0.3,0.1c0,0,0.1,0,0.1,0c0.1-0.1,0.3-0.2,0.5-0.4l0.5-0.5l1,1
		L21,12.9c-0.4,0.4-0.9,0.7-1.3,0.7c0,0-0.1,0-0.1,0c-0.4,0-0.8-0.2-1.3-0.6c-0.5-0.5-0.7-1-0.7-1.4c0-0.5,0.3-1,0.8-1.5l1.6-1.7
		c0.5-0.5,1-0.8,1.4-0.9C21.6,7.5,21.6,7.5,21.7,7.5 M24.8,10.1l1,1l-4.5,4.6l-1-1L24.8,10.1 M26.6,11.8l1.6,1.5
		c0.4,0.4,0.6,0.8,0.6,1.2c0,0.4-0.2,0.9-0.7,1.3c-0.5,0.5-0.9,0.7-1.3,0.7c0,0-0.1,0-0.1,0c-0.4,0-0.8-0.3-1.3-0.7L25,15.4l-1.9,2
		l-1-1L26.6,11.8 M26.4,15.3C26.5,15.3,26.5,15.3,26.4,15.3c0.2,0,0.4-0.2,0.6-0.4c0.2-0.2,0.3-0.4,0.4-0.5c0-0.2,0-0.3-0.2-0.5
		l-0.3-0.3l-1.2,1.2L26,15C26.2,15.2,26.3,15.3,26.4,15.3 M29.8,14.9l1.3,1.2c0.5,0.5,0.8,1,0.9,1.4c0.1,0.4-0.1,0.9-0.5,1.3
		c-0.3,0.3-0.6,0.5-0.8,0.6c-0.1,0.1-0.3,0.1-0.4,0.1c-0.1,0-0.3,0-0.5-0.1l-1.5,2.9l-1.1-1l1.5-2.6l-0.3-0.3l-2,2.1l-1-1L29.8,14.9
		 M29.7,18.5C29.8,18.5,29.8,18.4,29.7,18.5c0.3,0,0.5-0.2,0.7-0.4c0.2-0.2,0.3-0.4,0.3-0.6c0-0.2-0.1-0.4-0.2-0.5l-0.3-0.3
		l-1.2,1.3l0.3,0.3C29.4,18.4,29.6,18.5,29.7,18.5 M33.3,18.8c0.4,0,0.9,0.2,1.3,0.7c0.5,0.5,0.7,1,0.7,1.4c0,0.5-0.3,1-0.8,1.5
		l-1.7,1.7c-0.5,0.5-1,0.8-1.4,0.8c0,0-0.1,0-0.1,0c-0.4,0-0.9-0.2-1.3-0.7c-0.5-0.5-0.7-1-0.7-1.4c0-0.5,0.3-1,0.8-1.5l1.7-1.7
		c0.5-0.5,1-0.8,1.4-0.8C33.2,18.8,33.3,18.8,33.3,18.8 M31,23.7c0,0,0.1,0,0.1,0c0.1-0.1,0.3-0.2,0.5-0.3l2.2-2.2
		c0.2-0.2,0.3-0.3,0.3-0.5s0-0.3-0.1-0.4c-0.1-0.1-0.2-0.1-0.3-0.1c0,0-0.1,0-0.1,0c-0.1,0.1-0.3,0.2-0.5,0.3l-2.2,2.2
		c-0.2,0.2-0.3,0.3-0.3,0.5c-0.1,0.1,0,0.3,0.1,0.4C30.8,23.6,30.9,23.7,31,23.7 M36.7,22.1c0.4,0,0.9,0.2,1.3,0.7
		c0.5,0.5,0.7,0.9,0.7,1.4c0,0.4-0.2,0.9-0.7,1.3l-0.4,0.4l-1-1l0.5-0.5c0.2-0.2,0.3-0.3,0.3-0.5c0.1-0.1,0-0.3-0.1-0.4
		c-0.1-0.1-0.2-0.1-0.3-0.1c0,0-0.1,0-0.1,0c-0.1,0.1-0.3,0.2-0.5,0.4l-2.1,2.2c-0.2,0.2-0.3,0.3-0.3,0.5c0,0.1,0,0.3,0.1,0.4
		c0.1,0.1,0.2,0.1,0.3,0.1c0,0,0.1,0,0.1,0c0.1-0.1,0.3-0.2,0.5-0.4l0.5-0.5l1,1L36,27.4c-0.4,0.4-0.9,0.7-1.3,0.7c0,0-0.1,0-0.1,0
		c-0.4,0-0.8-0.2-1.3-0.6c-0.5-0.5-0.7-1-0.7-1.4c0-0.5,0.3-1,0.8-1.5l1.6-1.7c0.5-0.5,1-0.8,1.4-0.9C36.6,22.1,36.6,22.1,36.7,22.1
		 M39.8,24.6l1,1l-4.5,4.6l-1-1L39.8,24.6 M41.3,26l2.4,2.4l-0.7,0.8l-0.7-0.7l-3.8,3.9l-1-1l3.8-3.9l-0.7-0.7L41.3,26 M43.8,28.5
		l1,0.9l-1,1.9l1.8-1.1l0.9,0.9L43,33.1L41.2,35l-1-1l1.8-1.9L43.8,28.5 M15.6,0.1C15.6,0.1,15.6,0.1,15.6,0.1
		c-0.3,0-0.5,0.1-0.7,0.3L10.4,5c-0.4,0.4-0.4,1,0,1.4l1,1c0.1,0.1,0.3,0.2,0.5,0.3c0,0.2,0.1,0.4,0.3,0.5l1.1,1
		c0.1,0.1,0.2,0.2,0.3,0.2c0.1,0.1,0.1,0.2,0.2,0.3l2.1,2c0.2,0.2,0.4,0.3,0.7,0.3c0,0,0,0,0,0c0,0,0.1,0,0.1,0
		c0.1,0.5,0.4,1,0.9,1.5c0.5,0.5,1.1,0.8,1.7,0.9c0,0.1,0,0.1,0,0.2c0,0.3,0.1,0.5,0.3,0.7l1,1c0.1,0.1,0.3,0.2,0.4,0.2
		c0,0.2,0.1,0.3,0.3,0.4l1,1c0.2,0.2,0.4,0.3,0.7,0.3c0.3,0,0.5-0.1,0.7-0.3l1.2-1.3c0.3,0.3,0.7,0.5,1,0.6l-1.5,1.5
		c-0.2,0.2-0.3,0.4-0.3,0.7c0,0.3,0.1,0.5,0.3,0.7l1,1c0.1,0.1,0.3,0.2,0.5,0.3c0,0.2,0.1,0.4,0.3,0.5l1.1,1
		c0.2,0.2,0.4,0.3,0.7,0.3c0,0,0.1,0,0.1,0c0.1,0.5,0.4,1.1,1,1.6c0.7,0.6,1.3,1,2,1c0.1,0,0.2,0,0.2,0c0,0,0.1,0,0.1,0
		c0,0,0,0.1,0,0.1c-0.1,0.8,0.3,1.6,1,2.3c0.5,0.5,1.1,0.8,1.7,0.9c0,0.3,0,0.6,0.3,0.9l1,1c0.2,0.2,0.4,0.3,0.7,0.3c0,0,0,0,0,0
		c0,0,0.1,0,0.1,0c0,0.3,0.1,0.6,0.3,0.8l1,1c0.2,0.2,0.4,0.3,0.7,0.3c0,0,0,0,0,0c0.3,0,0.5-0.1,0.7-0.3l2.5-2.6l-0.5,1l-1.7,1.8
		c-0.2,0.2-0.3,0.4-0.3,0.7c0,0.3,0.1,0.5,0.3,0.7l1,1c0.2,0.2,0.4,0.3,0.7,0.3c0.3,0,0.5-0.1,0.7-0.3l1.7-1.8l3.4-1.8
		c0.3-0.2,0.5-0.4,0.5-0.7c0-0.3-0.1-0.6-0.3-0.9l-0.9-0.9c-0.2-0.2-0.3-0.2-0.5-0.3c0-0.2-0.1-0.4-0.3-0.5l-1-0.9c0,0,0,0-0.1-0.1
		c0,0,0,0-0.1-0.1L42,25.3c-0.1-0.1-0.1-0.1-0.2-0.2c0-0.1-0.1-0.2-0.2-0.2l-1-1c-0.2-0.2-0.4-0.3-0.7-0.3c0,0,0,0,0,0
		c-0.1,0-0.1,0-0.2,0c-0.1-0.6-0.4-1.1-1-1.7c-0.6-0.6-1.3-0.9-2-0.9c-0.1,0-0.2,0-0.3,0c0,0-0.1,0-0.1,0c0,0,0-0.1,0-0.1
		c0.1-0.8-0.3-1.5-1-2.2c-0.6-0.6-1.3-0.9-2-0.9c-0.1,0-0.2,0-0.2,0c0,0,0,0,0,0c0-0.2,0-0.3,0-0.4c-0.1-0.6-0.5-1.3-1.2-1.9
		l-1.3-1.2c-0.2-0.2-0.4-0.3-0.7-0.3c-0.1,0-0.1,0-0.2,0c-0.1-0.4-0.3-0.9-0.8-1.4L27.2,11c-0.1-0.1-0.3-0.2-0.4-0.2
		c0-0.2-0.1-0.3-0.3-0.4l-1-1c-0.2-0.2-0.4-0.3-0.7-0.3c0,0,0,0,0,0c-0.1,0-0.1,0-0.2,0c-0.1-0.6-0.4-1.1-1-1.7
		c-0.5-0.5-1-0.8-1.6-0.9c0-0.3-0.1-0.6-0.3-0.8l-2.1-2c-0.2-0.2-0.4-0.3-0.7-0.3c0,0,0,0,0,0c-0.1,0-0.2,0-0.3,0
		c-0.1-0.6-0.5-1.2-1.2-1.9l-1.3-1.2C16.1,0.2,15.8,0.1,15.6,0.1L15.6,0.1z"/>
</g>
</svg>
