<svg width="42" height="42" viewBox="0 0 42 42" fill="none" xmlns="http://www.w3.org/2000/svg">
<path d="M28.85 25.3108L41.17 37.6408C41.5171 37.991 41.7529 38.4359 41.8478 38.9198C41.9426 39.4036 41.8923 39.9047 41.7031 40.36C41.514 40.8153 41.1944 41.2046 40.7846 41.4787C40.3747 41.7529 39.893 41.8997 39.4 41.9008C39.0727 41.9028 38.7484 41.8393 38.4461 41.7139C38.1438 41.5885 37.8697 41.4038 37.64 41.1708L25.32 28.8508L19.64 39.0908C19.3649 39.5873 18.9547 39.9957 18.4568 40.2684C17.959 40.5411 17.394 40.6669 16.8275 40.6313C16.261 40.5957 15.7162 40.4001 15.2564 40.0672C14.7966 39.7344 14.4407 39.2779 14.23 38.7508L0.229973 4.13079C0.0117492 3.58561 -0.0416719 2.98836 0.0763329 2.41311C0.194338 1.83785 0.478579 1.30987 0.893817 0.894633C1.70123 0.0872179 2.90018 0.422613 3.74583 1.18989C9.10451 6.05192 28.3702 25.1188 28.85 25.3108Z" fill="#E5E5E5"/>
</svg>
