<?xml version="1.0" encoding="utf-8"?>
<!-- Generator: Adobe Illustrator 23.0.6, SVG Export Plug-In . SVG Version: 6.00 Build 0)  -->
<svg version="1.1" id="Calque_1" xmlns="http://www.w3.org/2000/svg" xmlns:xlink="http://www.w3.org/1999/xlink" x="0px" y="0px"
	 viewBox="0 0 43 42.6" style="enable-background:new 0 0 43 42.6;" xml:space="preserve">
<style type="text/css">
	.st0{fill:url(#SVGID_1_);}
	.st1{fill:url(#SVGID_2_);}
</style>
<g>
	<g>
		<g>
			
				<linearGradient id="SVGID_1_" gradientUnits="userSpaceOnUse" x1="5.8918" y1="29.935" x2="32.8665" y2="-1.1112" gradientTransform="matrix(1 0 0 -1 0 42.5965)">
				<stop  offset="0" style="stop-color:#0DF1D6"/>
				<stop  offset="1" style="stop-color:#E5E5E5"/>
			</linearGradient>
			<path class="st0" d="M40,42c-0.3,0-0.6-0.1-0.9-0.2c-0.3-0.1-0.6-0.3-0.8-0.5L25.9,29l-5.7,10.2c-0.3,0.5-0.7,0.9-1.2,1.2
				c-0.4,0.2-0.9,0.4-1.4,0.4c-0.1,0-0.1,0-0.2,0c-0.6,0-1.1-0.2-1.6-0.6c-0.5-0.3-0.8-0.8-1-1.3L0.8,4.3C0.6,3.7,0.6,3.1,0.7,2.6
				C0.8,2,1.1,1.5,1.5,1c0.3-0.3,0.7-0.5,1.1-0.5c0.1,0,0.2,0,0.3,0c0.5,0.1,1,0.3,1.4,0.7C7,3.7,12.9,9.5,18.7,15.1l1.5,1.5
				c2.2,2.1,4.3,4.1,5.9,5.7c1,0.9,1.8,1.7,2.4,2.3c0.3,0.3,0.5,0.5,0.7,0.6l0.2,0.2c0,0,0.1,0.1,0.1,0.1l12.3,12.3
				c0.3,0.4,0.6,0.8,0.7,1.3c0.1,0.5,0,1-0.1,1.4c-0.2,0.5-0.5,0.8-0.9,1.1S40.5,42,40,42C40,42,40,42,40,42z"/>
			<path d="M2.6,1.1c0.1,0,0.1,0,0.2,0C3.2,1.2,3.7,1.4,4,1.7c2.7,2.4,8.8,8.4,14.4,13.8c0.4,0.3,0.7,0.7,1,1
				c2.4,2.3,4.6,4.5,6.3,6.1c1,0.9,1.8,1.7,2.4,2.3c0.3,0.3,0.5,0.5,0.7,0.7c0.1,0.1,0.2,0.1,0.2,0.2c0,0,0.1,0,0.1,0.1l0,0
				c0,0,0,0,0,0l12.3,12.3c0,0,0,0,0,0c0.3,0.3,0.5,0.6,0.5,1c0.1,0.4,0,0.8-0.1,1.2c-0.2,0.4-0.4,0.7-0.7,0.9
				c-0.3,0.2-0.7,0.3-1.1,0.3h0c0,0,0,0,0,0c-0.3,0-0.5-0.1-0.7-0.1c-0.2-0.1-0.5-0.2-0.6-0.4l0,0L26.3,28.6l-0.5-0.5l-0.3,0.6
				L19.8,39l0,0c-0.2,0.4-0.6,0.8-1,1c-0.4,0.2-0.8,0.3-1.2,0.3c-0.1,0-0.1,0-0.2,0c-0.5,0-0.9-0.2-1.3-0.5
				c-0.4-0.3-0.7-0.7-0.9-1.1l0,0L1.3,4.1c0,0,0,0,0,0c-0.2-0.5-0.2-1-0.1-1.4c0.1-0.5,0.3-0.9,0.7-1.3C2.1,1.2,2.3,1.1,2.6,1.1
				 M2.6,0.1C2.6,0.1,2.6,0.1,2.6,0.1c-0.6,0-1.1,0.2-1.5,0.6c-0.5,0.5-0.8,1.1-1,1.8c-0.1,0.7-0.1,1.4,0.2,2l14,34.6
				c0.2,0.6,0.7,1.1,1.2,1.5c0.5,0.4,1.2,0.6,1.8,0.7c0.1,0,0.1,0,0.2,0c0.6,0,1.2-0.1,1.7-0.4c0.6-0.3,1.1-0.8,1.4-1.4l5.4-9.7
				l11.9,11.9c0.3,0.3,0.6,0.5,1,0.7c0.4,0.1,0.7,0.2,1.1,0.2c0.6,0,1.2-0.2,1.7-0.5c0.5-0.3,0.9-0.8,1.1-1.3
				c0.2-0.5,0.3-1.1,0.2-1.7c-0.1-0.6-0.4-1.1-0.8-1.5L29.9,25.1c0,0-0.1-0.1-0.1-0.1c-0.1-0.1-0.1-0.1-0.2-0.2
				c-0.2-0.2-0.4-0.4-0.7-0.6c-0.6-0.5-1.4-1.3-2.4-2.3c-1.7-1.6-3.9-3.8-6.2-6l-0.1-0.1l-0.3-0.2l-0.8-0.8C13.2,9.1,7.3,3.3,4.7,1
				C4.2,0.5,3.6,0.2,3,0.1C2.9,0.1,2.7,0.1,2.6,0.1L2.6,0.1z"/>
		</g>
		<g>
			<path d="M21.1,2.8L22.4,4l-2.3,2.4L21,7.2l2.3-2.4l1.3,1.3l-5.6,5.8l-1.3-1.3l2.5-2.5l-0.9-0.9l-2.5,2.5l-1.3-1.2L21.1,2.8z
				 M26.2,7.8l1.5,1.4l-4.6,6.9L22,14.9l1-1.4l-0.9-0.8l-1.4,1l-1.2-1.2L26.2,7.8z M23.6,12.6l1.9-2.6L23,12L23.6,12.6z M28.9,10.3
				l1.1,1.1L26.8,16l4.4-3.4l1.2,1.1l-6.7,4.8l-1.4-1.3L28.9,10.3z M28.8,21.7c-0.6-0.6-0.9-1.2-0.9-1.8c0-0.6,0.4-1.2,1-1.8L31,16
				c0.6-0.6,1.2-1,1.8-1c0.6-0.1,1.2,0.2,1.8,0.8c0.6,0.6,0.9,1.2,0.9,1.8c0,0.6-0.4,1.2-1,1.8l-2.1,2.2c-0.6,0.6-1.2,1-1.8,1
				C30,22.6,29.4,22.3,28.8,21.7z M29.7,20.8C29.9,21,30,21,30.2,21c0.2-0.1,0.4-0.2,0.6-0.4l2.7-2.8c0.2-0.2,0.3-0.4,0.4-0.6
				c0.1-0.2,0-0.4-0.2-0.5c-0.2-0.2-0.3-0.2-0.5-0.1c-0.2,0.1-0.4,0.2-0.6,0.4l-2.7,2.8c-0.2,0.2-0.3,0.4-0.4,0.6
				C29.4,20.5,29.5,20.6,29.7,20.8z M33,25.8c-0.6-0.6-0.9-1.2-0.9-1.8c0.1-0.6,0.4-1.2,1-1.8l2-2.1c0.6-0.6,1.2-1,1.8-1.1
				c0.6-0.1,1.2,0.2,1.8,0.8c0.6,0.6,0.9,1.2,0.9,1.7c0,0.5-0.3,1.1-0.8,1.6l-0.5,0.5l-1.3-1.2l0.6-0.6c0.2-0.2,0.4-0.4,0.4-0.6
				c0.1-0.2,0-0.3-0.2-0.5c-0.2-0.2-0.4-0.2-0.5-0.2c-0.2,0.1-0.4,0.2-0.6,0.4l-2.7,2.7c-0.2,0.2-0.4,0.4-0.4,0.6
				c-0.1,0.2,0,0.4,0.2,0.5c0.2,0.2,0.3,0.2,0.5,0.1c0.2-0.1,0.4-0.2,0.6-0.5l0.6-0.6l1.3,1.2l-0.5,0.5c-0.5,0.5-1.1,0.8-1.6,0.9
				C34.2,26.7,33.6,26.4,33,25.8z"/>
			<linearGradient id="SVGID_2_" gradientUnits="userSpaceOnUse" x1="14.4269" y1="14.6866" x2="40.6701" y2="14.6866">
				<stop  offset="0" style="stop-color:#0DF1D6"/>
				<stop  offset="1" style="stop-color:#E5E5E5"/>
			</linearGradient>
			<path class="st1" d="M21.1,2.8L22.4,4l-2.3,2.4L21,7.2l2.3-2.4l1.3,1.3l-5.6,5.8l-1.3-1.3l2.5-2.5l-0.9-0.9l-2.5,2.5l-1.3-1.2
				L21.1,2.8 M26.2,7.8l1.5,1.4l-4.6,6.9L22,14.9l1-1.4l-0.9-0.8l-1.4,1l-1.2-1.2L26.2,7.8 M25.5,10.1L23,12l0.6,0.6L25.5,10.1
				 M28.9,10.3l1.1,1.1L26.8,16l4.4-3.4l1.2,1.1l-6.7,4.8l-1.4-1.3L28.9,10.3 M32.9,14.9c0.5,0,1.1,0.3,1.7,0.8
				c0.6,0.6,0.9,1.2,0.9,1.8c0,0.6-0.4,1.2-1,1.8l-2.1,2.2c-0.6,0.6-1.2,1-1.8,1c-0.1,0-0.1,0-0.2,0c-0.5,0-1.1-0.3-1.7-0.8
				c-0.6-0.6-0.9-1.2-0.9-1.8c0-0.6,0.4-1.2,1-1.8L31,16c0.6-0.6,1.2-1,1.8-1C32.8,14.9,32.9,14.9,32.9,14.9 M30.1,21
				c0,0,0.1,0,0.1,0c0.2-0.1,0.4-0.2,0.6-0.4l2.7-2.8c0.2-0.2,0.3-0.4,0.4-0.6c0.1-0.2,0-0.4-0.2-0.5c-0.1-0.1-0.2-0.2-0.4-0.2
				c-0.1,0-0.1,0-0.2,0c-0.2,0.1-0.4,0.2-0.6,0.4l-2.7,2.8c-0.2,0.2-0.3,0.4-0.4,0.6c-0.1,0.2,0,0.3,0.2,0.5
				C29.8,20.9,29.9,21,30.1,21 M37.2,19c0.5,0,1.1,0.3,1.6,0.8c0.6,0.6,0.9,1.2,0.9,1.7c0,0.5-0.3,1.1-0.8,1.6l-0.5,0.5l-1.3-1.2
				l0.6-0.6c0.2-0.2,0.4-0.4,0.4-0.6c0.1-0.2,0-0.3-0.2-0.5c-0.1-0.1-0.3-0.2-0.4-0.2c-0.1,0-0.1,0-0.2,0c-0.2,0.1-0.4,0.2-0.6,0.4
				l-2.7,2.7c-0.2,0.2-0.4,0.4-0.4,0.6c-0.1,0.2,0,0.4,0.2,0.5c0.1,0.1,0.2,0.2,0.4,0.2c0.1,0,0.1,0,0.1,0c0.2-0.1,0.4-0.2,0.6-0.5
				l0.6-0.6l1.3,1.2l-0.5,0.5c-0.5,0.5-1.1,0.8-1.6,0.9c0,0-0.1,0-0.1,0c-0.5,0-1-0.3-1.6-0.8c-0.6-0.6-0.9-1.2-0.9-1.8
				c0.1-0.6,0.4-1.2,1-1.8l2-2.1c0.6-0.6,1.2-1,1.8-1.1C37,19,37.1,19,37.2,19 M21.1,1.8C21.1,1.8,21.1,1.8,21.1,1.8
				c-0.3,0-0.5,0.1-0.7,0.3l-5.6,5.8c-0.2,0.2-0.3,0.4-0.3,0.7c0,0.3,0.1,0.5,0.3,0.7l1.3,1.2c0.2,0.2,0.4,0.3,0.6,0.3
				c0,0.2,0.1,0.4,0.3,0.6l1.3,1.3c0.1,0.1,0.2,0.2,0.4,0.2c0.1,0.1,0.1,0.3,0.2,0.4l1.2,1.2c0.2,0.2,0.4,0.3,0.7,0.3
				c0.1,0,0.2,0,0.3,0c-0.1,0.3,0,0.7,0.3,1l1.2,1.1c0.2,0.2,0.4,0.3,0.7,0.3c0,0,0.1,0,0.1,0c0,0,0,0,0,0c0,0.3,0.1,0.6,0.3,0.8
				l1.4,1.3c0.2,0.2,0.4,0.3,0.7,0.3c0.2,0,0.4-0.1,0.6-0.2l1.2-0.8c-0.3,0.5-0.4,0.9-0.5,1.4c-0.1,0.9,0.3,1.8,1.2,2.6
				c0.8,0.7,1.6,1.1,2.4,1.1c0.1,0,0.2,0,0.3,0c0.2,0,0.3,0,0.5-0.1c0,0.1-0.1,0.3-0.1,0.4c-0.1,0.9,0.3,1.8,1.2,2.6
				c0.7,0.7,1.5,1.1,2.3,1.1c0.1,0,0.2,0,0.2,0c0.8-0.1,1.5-0.5,2.2-1.2l0.5-0.5c0.4-0.4,0.4-1,0-1.4l-1.3-1.2c0,0-0.1-0.1-0.2-0.1
				l0.2-0.2c0,0.1,0.1,0.1,0.1,0.2l1.3,1.2c0.2,0.2,0.4,0.3,0.7,0.3c0.3,0,0.5-0.1,0.7-0.3l0.5-0.5c0.7-0.7,1.1-1.5,1.1-2.3
				c0-0.8-0.3-1.7-1.2-2.5C38.7,18.4,38,18,37.2,18c-0.1,0-0.2,0-0.3,0c-0.1,0-0.3,0-0.4,0.1c0-0.2,0.1-0.3,0.1-0.5
				c0.1-0.9-0.3-1.7-1.2-2.6c-0.6-0.6-1.3-1-2-1.1c0-0.1,0-0.1,0-0.2c0-0.3-0.1-0.6-0.3-0.8l-1.2-1.1c-0.2-0.2-0.4-0.3-0.7-0.3
				c-0.1,0-0.2,0-0.2,0c0.1-0.3,0-0.7-0.3-0.9l-1.1-1.1c-0.2-0.2-0.4-0.3-0.7-0.3c0,0-0.1,0-0.1,0c0,0-0.1,0-0.1,0
				c0-0.3-0.1-0.6-0.3-0.9l-1.5-1.4c-0.2-0.2-0.4-0.3-0.7-0.3c-0.2,0-0.4,0.1-0.6,0.2l-1.7,1.2l1.3-1.4c0.4-0.4,0.4-1,0-1.4
				l-1.3-1.3c-0.2-0.2-0.4-0.3-0.6-0.3c0-0.2-0.1-0.4-0.3-0.6L21.8,2C21.6,1.9,21.3,1.8,21.1,1.8L21.1,1.8z"/>
		</g>
	</g>
</g>
</svg>
