<?xml version="1.0" encoding="utf-8"?>
<!-- Generator: Adobe Illustrator 23.0.6, SVG Export Plug-In . SVG Version: 6.00 Build 0)  -->
<svg version="1.1" id="Calque_1" xmlns="http://www.w3.org/2000/svg" xmlns:xlink="http://www.w3.org/1999/xlink" x="0px" y="0px"
	 viewBox="0 0 43 42.6" style="enable-background:new 0 0 43 42.6;" xml:space="preserve">
<style type="text/css">
	.st0{fill:#FF9900;}
	.st1{fill:#E5E5E5;}
</style>
<g>
	<g>
		<g>
			<path class="st0" d="M40,42c-0.3,0-0.6-0.1-0.9-0.2c-0.3-0.1-0.6-0.3-0.8-0.5L25.9,28.9l-5.7,10.2c-0.3,0.5-0.7,0.9-1.2,1.2
				c-0.4,0.2-0.9,0.4-1.4,0.4c-0.1,0-0.1,0-0.2,0c-0.6,0-1.1-0.2-1.6-0.6c-0.5-0.3-0.8-0.8-1-1.3L0.8,4.2C0.6,3.7,0.5,3.1,0.7,2.5
				C0.8,1.9,1.1,1.4,1.5,1c0.3-0.3,0.7-0.5,1.1-0.5c0.1,0,0.2,0,0.3,0c0.5,0.1,1,0.3,1.4,0.7c2.6,2.4,8.5,8.1,14.4,13.8l1.5,1.5
				c2.2,2.1,4.3,4.1,5.9,5.7c1,0.9,1.8,1.7,2.4,2.3c0.3,0.3,0.5,0.5,0.7,0.6l0.3,0.3l12.3,12.3c0.3,0.4,0.6,0.8,0.7,1.3
				c0.1,0.5,0,1-0.1,1.4c-0.2,0.5-0.5,0.8-0.9,1.1S40.5,42,40,42L40,42z"/>
			<path d="M2.6,1c0.1,0,0.1,0,0.2,0C3.2,1.1,3.6,1.3,4,1.7c2.7,2.4,8.8,8.4,14.4,13.8c0.4,0.3,0.7,0.7,1,1c2.4,2.3,4.6,4.5,6.3,6.1
				c1,0.9,1.8,1.7,2.4,2.3c0.3,0.3,0.5,0.5,0.7,0.7c0.1,0.1,0.2,0.1,0.2,0.2c0,0,0.1,0,0.1,0.1l0,0c0,0,0,0,0,0l12.3,12.3
				c0,0,0,0,0,0c0.3,0.3,0.5,0.6,0.5,1c0.1,0.4,0,0.8-0.1,1.2c-0.2,0.4-0.4,0.7-0.7,0.9c-0.3,0.2-0.7,0.3-1.1,0.3h0c0,0,0,0,0,0
				c-0.3,0-0.5-0.1-0.7-0.1c-0.2-0.1-0.5-0.2-0.6-0.4l0,0L26.3,28.6l-0.5-0.5l-0.3,0.6l-5.7,10.2l0,0c-0.2,0.4-0.6,0.8-1,1
				c-0.4,0.2-0.8,0.3-1.2,0.3c-0.1,0-0.1,0-0.2,0c-0.5,0-0.9-0.2-1.3-0.5c-0.4-0.3-0.7-0.7-0.9-1.1l0,0L1.3,4c0,0,0,0,0,0
				c-0.2-0.5-0.2-1-0.1-1.4c0.1-0.5,0.3-0.9,0.7-1.3C2.1,1.1,2.3,1,2.6,1 M2.6,0L2.6,0C2,0,1.5,0.2,1.1,0.6c-0.5,0.5-0.8,1.1-1,1.8
				C0,3.1,0.1,3.8,0.4,4.4l14,34.6c0.2,0.6,0.7,1.1,1.2,1.5c0.5,0.4,1.2,0.6,1.8,0.7c0.1,0,0.1,0,0.2,0c0.6,0,1.2-0.1,1.7-0.4
				c0.6-0.3,1.1-0.8,1.4-1.4l5.4-9.7l11.9,11.9c0.3,0.3,0.6,0.5,1,0.7c0.4,0.1,0.7,0.2,1.1,0.2c0.6,0,1.2-0.2,1.7-0.5
				c0.5-0.3,0.9-0.8,1.1-1.3c0.2-0.5,0.3-1.1,0.2-1.7c-0.1-0.6-0.4-1.1-0.8-1.5L29.8,25.1L29.8,25L29.7,25c-0.1-0.1-0.1-0.1-0.2-0.2
				c-0.2-0.2-0.4-0.4-0.7-0.6c-0.6-0.5-1.4-1.3-2.4-2.3c-1.7-1.6-3.9-3.8-6.2-6l-0.1-0.1l-0.3-0.2l-0.8-0.8C13.2,9,7.3,3.3,4.7,0.9
				C4.2,0.4,3.6,0.1,3,0C2.8,0,2.7,0,2.6,0L2.6,0z"/>
		</g>
		<g>
			<path class="st1" d="M35.2,28.5c-0.1,0-0.3-0.1-0.4-0.1l-2.6-2.6c-0.1-0.1-0.1-0.2-0.1-0.4c0-0.1,0.1-0.3,0.1-0.4l1.3-1.4
				c-0.5,0.5-1.1,0.7-1.7,0.8c-0.1,0-0.1,0-0.2,0c-0.6,0-1.3-0.3-1.9-1c-0.7-0.7-1.1-1.5-1-2.2c0.1-0.7,0.5-1.4,1.2-2.1l2.1-2.1
				c0.7-0.7,1.4-1.1,2.1-1.2c0.1,0,0.2,0,0.2,0c0.7,0,1.3,0.3,2,1c0.7,0.7,1,1.4,1,2.1c0,0.6-0.3,1.1-0.7,1.6l1.3-1.3
				c0.1-0.1,0.2-0.1,0.4-0.1c0,0,0,0,0,0c0.1,0,0.3,0.1,0.4,0.1l2.6,2.6c0.1,0.1,0.1,0.2,0.1,0.4s-0.1,0.3-0.1,0.4l-0.9,0.9
				c-0.1,0.1-0.2,0.1-0.4,0.1c-0.1,0-0.3,0-0.4-0.1l-1-0.9L38,23.2l0.6,0.6c0.1,0.1,0.1,0.2,0.1,0.4c0,0.1-0.1,0.3-0.1,0.4l-0.9,0.9
				c-0.1,0.1-0.2,0.1-0.4,0.1c0,0,0,0,0,0c-0.1,0-0.3-0.1-0.4-0.1l-0.6-0.6l-1,1l1,1c0.2,0.2,0.2,0.5,0,0.7l-0.8,0.9
				C35.4,28.4,35.3,28.5,35.2,28.5C35.2,28.5,35.2,28.5,35.2,28.5z M32.7,20.8c0.1,0,0.3,0.1,0.4,0.1l1.2,1.2
				c0.1,0.1,0.1,0.2,0.1,0.4c0,0.1,0,0.2-0.1,0.3l1.4-1.4c-0.1,0-0.2,0.1-0.3,0.1c0,0,0,0,0,0c-0.1,0-0.3-0.1-0.4-0.1l-1.2-1.2
				c-0.1-0.1-0.1-0.2-0.1-0.4c0-0.1,0.1-0.3,0.1-0.4l0.6-0.6c0.2-0.2,0.2-0.3,0.3-0.4c0,0-0.1-0.1-0.1-0.1c0,0-0.2,0.1-0.4,0.3
				l-2.7,2.7c-0.2,0.2-0.3,0.4-0.3,0.4l0.1,0c0,0,0.1-0.1,0.3-0.3l0.6-0.6C32.5,20.9,32.6,20.8,32.7,20.8
				C32.7,20.8,32.7,20.8,32.7,20.8z M21.8,15.3c-0.1,0-0.3-0.1-0.4-0.1l-1.3-1.3c-0.2-0.2-0.2-0.5,0-0.7l0.8-0.8
				c-0.1,0.1-0.3,0.1-0.5,0.2c-0.2,0.1-0.4,0.1-0.6,0.1c-0.2,0-0.4,0-0.7-0.1c-0.4-0.1-0.8-0.4-1.2-0.7c-0.7-0.6-1-1.3-1-2
				c0-0.7,0.4-1.4,1.1-2.1c0.1-0.1,0.2-0.2,0.4-0.2c0.1,0,0.2,0,0.3,0.1l1.1,0.8l-0.1-0.7c0-0.5,0-1,0.1-1.4
				c0.1-0.5,0.4-0.9,0.8-1.3c0.6-0.6,1.2-0.8,1.8-0.8c0.8,0,1.4,0.3,2,0.9c0.7,0.7,0.9,1.4,0.8,2c-0.1,0.6-0.5,1.2-0.9,1.7
				c-0.1,0.1-0.2,0.2-0.4,0.2c-0.1,0-0.2,0-0.3-0.1l-1.1-0.9l0.1,0.8c0,0.6,0,1.1-0.1,1.6c-0.1,0.2-0.1,0.4-0.2,0.6l3.7-3.7
				c0.1-0.1,0.2-0.1,0.4-0.1c0.1,0,0.3,0,0.4,0.1l1.9,1.9c0.6,0.6,0.9,1.3,0.9,1.9c0,0.7-0.4,1.3-1,1.9c-0.7,0.7-1.3,1-2,1
				c-0.1,0-0.1,0-0.2,0c-0.6-0.1-1.3-0.4-1.9-1l-0.2-0.2l-2.1,2.1C22.1,15.3,22,15.3,21.8,15.3C21.9,15.3,21.9,15.3,21.8,15.3z
				 M25.9,11.5c0.1,0.1,0.2,0.1,0.2,0.1c0,0,0.1,0,0.4-0.4c0.3-0.3,0.3-0.4,0.3-0.4l0,0c0,0,0-0.1-0.1-0.2l-0.1-0.1L25.9,11.5
				L25.9,11.5z M19.9,9.6c-0.2,0.3-0.3,0.4-0.3,0.5c0,0,0,0,0,0.1c0,0,0,0,0.1-0.1C19.8,9.9,19.9,9.7,19.9,9.6
				C19.9,9.6,19.9,9.6,19.9,9.6z"/>
			<path d="M22.5,4.8C22.6,4.8,22.6,4.8,22.5,4.8c0.6,0,1.1,0.3,1.6,0.8c0.5,0.5,0.8,1.1,0.6,1.6c-0.1,0.5-0.4,1-0.8,1.5l-1.2-0.9
				c0.3-0.3,0.5-0.5,0.5-0.7c0.1-0.2,0.1-0.3-0.1-0.5c-0.1-0.1-0.2-0.1-0.3-0.1c0,0-0.1,0-0.1,0c-0.1,0-0.3,0.1-0.4,0.2
				c-0.2,0.2-0.3,0.4-0.4,0.6c0,0.2,0,0.5,0,0.9L22.1,9c0,0.5,0,1-0.1,1.4c-0.1,0.4-0.3,0.8-0.7,1.2c-0.3,0.3-0.6,0.5-0.9,0.6
				c-0.2,0-0.3,0.1-0.5,0.1c-0.2,0-0.3,0-0.5-0.1c-0.4-0.1-0.7-0.3-1-0.6c-0.6-0.5-0.8-1.1-0.8-1.6c0-0.6,0.3-1.2,0.9-1.8L19.8,9
				c-0.4,0.4-0.6,0.7-0.7,0.9c-0.1,0.2,0,0.4,0.1,0.6c0.1,0.1,0.2,0.1,0.3,0.1c0.1,0,0.3-0.1,0.4-0.2c0.2-0.2,0.4-0.5,0.4-0.7
				c0.1-0.3,0.1-0.6,0-1l-0.1-0.9c0-0.5,0-0.9,0.1-1.2c0.1-0.4,0.3-0.7,0.6-1C21.5,5,22,4.8,22.5,4.8 M26.3,7.8l1.9,1.9
				c0.5,0.5,0.7,1,0.7,1.6c0,0.5-0.3,1.1-0.8,1.6c-0.6,0.6-1.1,0.9-1.6,0.9c0,0-0.1,0-0.1,0c-0.5,0-1-0.3-1.6-0.9l-0.5-0.5l-2.4,2.4
				l-1.3-1.3L26.3,7.8 M26.1,12.2c0,0,0.1,0,0.1,0c0.2,0,0.4-0.2,0.7-0.5c0.3-0.3,0.4-0.5,0.5-0.7c0.1-0.2,0-0.4-0.3-0.6l-0.4-0.4
				l-1.5,1.5l0.4,0.4C25.8,12.1,25.9,12.2,26.1,12.2 M34.3,16.4c0.5,0,1.1,0.3,1.6,0.8c0.6,0.6,0.9,1.2,0.9,1.7
				c0,0.5-0.3,1.1-0.8,1.6L35.5,21l-1.2-1.2l0.6-0.6c0.2-0.2,0.4-0.4,0.4-0.6c0.1-0.2,0-0.3-0.2-0.5c-0.1-0.1-0.3-0.2-0.4-0.2
				c-0.1,0-0.1,0-0.2,0c-0.2,0.1-0.4,0.2-0.6,0.4l-2.7,2.7c-0.2,0.2-0.4,0.4-0.4,0.6c-0.1,0.2,0,0.4,0.2,0.5
				c0.1,0.1,0.2,0.2,0.4,0.2c0,0,0.1,0,0.1,0c0.2-0.1,0.4-0.2,0.6-0.4l0.6-0.6l1.2,1.2l-0.5,0.5c-0.5,0.5-1.1,0.8-1.6,0.9
				c0,0-0.1,0-0.1,0c-0.5,0-1-0.3-1.6-0.8c-0.6-0.6-0.9-1.2-0.9-1.8c0.1-0.6,0.4-1.2,1-1.8l2.1-2.1c0.6-0.6,1.2-1,1.8-1.1
				C34.2,16.4,34.3,16.4,34.3,16.4 M38.3,19.6l2.6,2.6L40,23.1l-1.3-1.3l-1.4,1.4l1,1l-0.9,0.9l-1-1l-1.7,1.7l1.3,1.3L35.2,28
				l-2.6-2.6L38.3,19.6 M22.5,3.8c-0.8,0-1.5,0.3-2.2,1c-0.4,0.4-0.7,0.9-0.9,1.5c-0.1,0.4-0.1,0.8-0.1,1.2l-0.3-0.2
				c-0.2-0.1-0.4-0.2-0.6-0.2c-0.3,0-0.5,0.1-0.7,0.3C17,8.2,16.6,9,16.6,9.9c0,0.9,0.3,1.7,1.1,2.4c0.4,0.4,0.9,0.7,1.4,0.8
				c0.2,0.1,0.4,0.1,0.6,0.1c-0.1,0.4-0.1,0.8,0.2,1.1l1.3,1.3c0.2,0.2,0.4,0.3,0.7,0.3c0,0,0,0,0,0c0.3,0,0.5-0.1,0.7-0.3l1.7-1.7
				c0.6,0.6,1.3,0.9,2,0.9c0.1,0,0.1,0,0.2,0c0.8,0,1.6-0.4,2.3-1.2c0.7-0.7,1.1-1.5,1.1-2.3c0.1-0.8-0.3-1.6-1-2.3L27,7.1
				c-0.2-0.2-0.4-0.3-0.7-0.3c0,0,0,0,0,0c-0.1,0-0.3,0-0.4,0.1c0-0.6-0.2-1.3-1-2c-0.7-0.7-1.4-1-2.2-1.1L22.5,3.8L22.5,3.8z
				 M23.1,9.5c0-0.1,0-0.2,0-0.3l0.2,0.1L23.1,9.5L23.1,9.5z M34.3,15.4c-0.1,0-0.2,0-0.3,0c-0.8,0.1-1.6,0.5-2.4,1.3l-2.1,2.1
				c-0.8,0.8-1.2,1.6-1.3,2.4c-0.1,0.9,0.3,1.8,1.1,2.6c0.7,0.7,1.5,1.1,2.2,1.1c-0.1,0.1-0.1,0.3-0.1,0.4c0,0.3,0.1,0.5,0.3,0.7
				l2.6,2.6c0.2,0.2,0.4,0.3,0.7,0.3c0,0,0,0,0,0c0.3,0,0.5-0.1,0.7-0.3l0.8-0.9c0.4-0.4,0.4-1,0-1.4l-0.6-0.6l0.3-0.3l0.3,0.3
				c0.2,0.2,0.4,0.3,0.7,0.3c0,0,0,0,0,0c0.3,0,0.5-0.1,0.7-0.3l0.9-0.9c0.4-0.4,0.4-1,0-1.4l-0.3-0.3l0,0l0.6,0.6
				c0.2,0.2,0.4,0.3,0.7,0.3c0,0,0,0,0,0c0.3,0,0.5-0.1,0.7-0.3l0.9-0.9c0.4-0.4,0.4-1,0-1.4L39,18.9c-0.2-0.2-0.4-0.3-0.7-0.3
				c-0.1,0-0.3,0-0.4,0.1c0-0.7-0.4-1.5-1.2-2.2C35.9,15.8,35.1,15.4,34.3,15.4L34.3,15.4z M33.3,20.5l0.2-0.2
				c0,0.1,0.1,0.1,0.1,0.2l1.2,1.2l-0.1,0.1l-1.2-1.2C33.4,20.6,33.3,20.5,33.3,20.5L33.3,20.5z"/>
		</g>
		<g>
			<path class="st0" d="M28,21.4c-0.1,0-0.3-0.1-0.4-0.1l-1.2-1.2c-0.2-0.2-0.2-0.4-0.1-0.6l0.8-1.1l-0.2-0.2l-1.1,0.8
				C25.8,19,25.7,19,25.6,19c-0.1,0-0.3,0-0.4-0.1L24,17.7c-0.1-0.1-0.2-0.3-0.1-0.4c0-0.1,0.1-0.3,0.2-0.4l6.8-4.7
				c0.1-0.1,0.2-0.1,0.3-0.1c0.1,0,0.3,0,0.4,0.1l1.5,1.4c0.2,0.2,0.2,0.4,0.1,0.6l-4.6,6.8C28.3,21.3,28.2,21.3,28,21.4
				C28,21.4,28,21.4,28,21.4z"/>
			<path d="M31.1,12.6l1.5,1.4L28,20.9l-1.2-1.2l1-1.4L27,17.5l-1.4,1l-1.2-1.2L31.1,12.6 M30.4,14.9l-2.5,1.9l0.6,0.6L30.4,14.9
				 M31.1,11.6c-0.2,0-0.4,0.1-0.6,0.2l-6.8,4.7c-0.2,0.2-0.4,0.4-0.4,0.7s0.1,0.6,0.3,0.8l1.2,1.2c0.2,0.2,0.4,0.3,0.7,0.3
				c0.1,0,0.2,0,0.3,0c-0.1,0.3,0,0.7,0.3,1l1.2,1.2c0.2,0.2,0.4,0.3,0.7,0.3c0,0,0.1,0,0.1,0c0.3,0,0.6-0.2,0.7-0.4l4.6-6.8
				c0.3-0.4,0.2-0.9-0.1-1.3l-1.5-1.4C31.7,11.7,31.4,11.6,31.1,11.6L31.1,11.6z"/>
		</g>
	</g>
</g>
</svg>
