<?xml version="1.0" encoding="utf-8"?>
<!-- Generator: Adobe Illustrator 23.0.6, SVG Export Plug-In . SVG Version: 6.00 Build 0)  -->
<svg version="1.1" id="Calque_1" xmlns="http://www.w3.org/2000/svg" xmlns:xlink="http://www.w3.org/1999/xlink" x="0px" y="0px"
	 viewBox="0 0 43 42.6" style="enable-background:new 0 0 43 42.6;" xml:space="preserve">
<style type="text/css">
	.st0{fill:url(#SVGID_1_);}
	.st1{fill:#E5E5E5;}
	.st2{fill:#2B66FF;}
</style>
<g>
	<g>
		<g>
			
				<linearGradient id="SVGID_1_" gradientUnits="userSpaceOnUse" x1="21.4939" y1="42.8709" x2="21.4939" y2="1.432016e-02" gradientTransform="matrix(1 0 0 -1 0 42.5526)">
				<stop  offset="0" style="stop-color:#2B66FF"/>
				<stop  offset="1" style="stop-color:#000C2B"/>
			</linearGradient>
			<path class="st0" d="M39.9,42c-0.3,0-0.6-0.1-0.9-0.2c-0.3-0.1-0.6-0.3-0.8-0.5L25.9,29l-5.7,10.2c-0.3,0.5-0.7,0.9-1.2,1.2
				c-0.4,0.2-0.9,0.4-1.4,0.4c-0.1,0-0.1,0-0.2,0c-0.6,0-1.1-0.2-1.6-0.6c-0.5-0.3-0.8-0.8-1-1.3L0.8,4.3C0.6,3.7,0.5,3.1,0.6,2.5
				C0.7,2,1,1.4,1.4,1c0.3-0.3,0.7-0.5,1.1-0.5c0.1,0,0.2,0,0.3,0c0.5,0.1,1,0.3,1.4,0.7c2.6,2.4,8.5,8.1,14.4,13.8l1.5,1.5
				c2.2,2.1,4.3,4.1,5.9,5.7c1,0.9,1.8,1.7,2.4,2.3c0.3,0.3,0.5,0.5,0.7,0.6l0.2,0.2c0,0,0.1,0.1,0.1,0.1l12.3,12.3
				c0.3,0.4,0.6,0.8,0.7,1.3c0.1,0.5,0,1-0.1,1.4c-0.2,0.5-0.5,0.8-0.9,1.1S40.4,42,39.9,42C39.9,42,39.9,42,39.9,42z"/>
			<path class="st1" d="M2.6,1.1c0.1,0,0.1,0,0.2,0c0.4,0.1,0.8,0.3,1.2,0.6c2.7,2.4,8.8,8.4,14.4,13.8c0.4,0.3,0.7,0.7,1,1
				c2.4,2.3,4.6,4.5,6.3,6.1c1,0.9,1.8,1.7,2.4,2.3c0.3,0.3,0.5,0.5,0.7,0.7c0.1,0.1,0.2,0.1,0.2,0.2c0,0,0.1,0,0.1,0.1l0,0
				c0,0,0,0,0,0l12.3,12.3c0,0,0,0,0,0c0.3,0.3,0.5,0.6,0.5,1c0.1,0.4,0,0.8-0.1,1.2c-0.2,0.4-0.4,0.7-0.7,0.9
				c-0.3,0.2-0.7,0.3-1.1,0.3h0c0,0,0,0,0,0c-0.3,0-0.5-0.1-0.7-0.1c-0.2-0.1-0.5-0.2-0.6-0.4l0,0L26.2,28.6l-0.5-0.5l-0.3,0.6
				L19.7,39l0,0c-0.2,0.4-0.6,0.8-1,1c-0.4,0.2-0.8,0.3-1.2,0.3c-0.1,0-0.1,0-0.2,0c-0.5,0-0.9-0.2-1.3-0.5
				c-0.4-0.3-0.7-0.7-0.9-1.1l0,0L1.2,4.1c0,0,0,0,0,0C1.1,3.6,1,3.1,1.1,2.6c0.1-0.5,0.3-0.9,0.7-1.3C2,1.2,2.3,1.1,2.6,1.1
				 M2.6,0.1C2.6,0.1,2.6,0.1,2.6,0.1C2,0.1,1.5,0.3,1.1,0.7c-0.5,0.5-0.8,1.1-1,1.8C0,3.1,0,3.8,0.3,4.4l14,34.6
				c0.2,0.6,0.7,1.1,1.2,1.5c0.5,0.4,1.2,0.6,1.8,0.7c0.1,0,0.1,0,0.2,0c0.6,0,1.2-0.1,1.7-0.4c0.6-0.3,1.1-0.8,1.4-1.4l5.4-9.7
				l11.9,11.9c0.3,0.3,0.6,0.5,1,0.7c0.4,0.1,0.7,0.2,1.1,0.2c0.6,0,1.2-0.2,1.7-0.5c0.5-0.3,0.9-0.8,1.1-1.3
				c0.2-0.5,0.3-1.1,0.2-1.7c-0.1-0.6-0.4-1.1-0.8-1.5L29.8,25.1c0,0-0.1-0.1-0.1-0.1c-0.1-0.1-0.1-0.1-0.2-0.2
				c-0.2-0.2-0.4-0.4-0.7-0.6c-0.6-0.5-1.4-1.3-2.4-2.3c-1.7-1.6-3.9-3.8-6.2-6l-0.1-0.1l-0.3-0.2L19,14.8C13.2,9.1,7.2,3.3,4.6,0.9
				C4.1,0.5,3.5,0.2,2.9,0.1C2.8,0.1,2.7,0.1,2.6,0.1L2.6,0.1z"/>
		</g>
		<g>
			<path class="st2" d="M35.6,28.5c-0.1,0-0.3,0-0.3-0.1l-2.6-2.6c-0.2-0.2-0.2-0.5,0-0.7l1.3-1.4c-0.5,0.5-1.1,0.7-1.6,0.8
				c-0.1,0-0.1,0-0.2,0c-0.6,0-1.3-0.3-1.9-1c-0.7-0.7-1.1-1.5-1-2.2c0.1-0.6,0.4-1.2,0.9-1.9c-0.6,0.6-1.2,0.9-1.9,0.9
				c-0.1,0-0.1,0-0.2,0c-0.7,0-1.3-0.3-2-1c-0.7-0.7-1.1-1.4-1-2.2c0-0.1,0-0.3,0.1-0.4l-0.4,0.4c-0.1,0.1-0.2,0.2-0.4,0.2
				c-0.1,0-0.3,0-0.3-0.1l-2.6-2.5c-0.1-0.1-0.2-0.3-0.1-0.4c0,0-0.1,0-0.1,0c-0.1,0-0.3,0-0.3-0.1l-2.6-2.6c-0.2-0.2-0.2-0.5,0-0.7
				l4.9-5l-5.9,4.2c-0.1,0.1-0.2,0.1-0.3,0.1c-0.1,0-0.3,0-0.3-0.1l-1.4-1.3c-0.2-0.2-0.2-0.4-0.1-0.6l4.6-6.8
				c0.1-0.1,0.2-0.2,0.4-0.2c0,0,0,0,0.1,0c0.1,0,0.3,0.1,0.3,0.1l1.1,1.1c0.2,0.2,0.2,0.4,0.1,0.6l-1.3,1.9L22,3.4
				c0.1-0.1,0.2-0.1,0.3-0.1c0.1,0,0.3,0,0.3,0.1l1.2,1.1C24,4.7,24,4.8,24,5c0,0,0,0,0,0c0,0,0.1,0,0.1,0c0.1,0,0.3,0,0.3,0.1
				L27,7.7c0.1,0.1,0.1,0.2,0.2,0.4c0,0,0,0.1,0,0.1c0,0,0.1,0,0.1,0c0.1,0,0.3,0,0.3,0.1l1.3,1.2c0.1,0.1,0.1,0.2,0.2,0.4
				c0,0.1,0,0.3-0.1,0.4l-4.5,4.6l1,0.9c0,0,0,0.1,0.1,0.1c0.2-0.2,0.3-0.4,0.5-0.7l2.1-2.2c0.7-0.7,1.4-1.1,2.1-1.2
				c0.1,0,0.1,0,0.2,0c0.7,0,1.3,0.3,2,1c0.7,0.7,1.1,1.5,1,2.2c0,0.6-0.3,1.3-0.9,1.9c0.6-0.6,1.2-0.9,1.8-0.9c0.1,0,0.2,0,0.2,0
				c0.7,0,1.3,0.3,2,1c0.7,0.7,1.1,1.4,1,2.1c0,0.6-0.3,1.1-0.7,1.6l1.3-1.3c0.1-0.1,0.2-0.1,0.4-0.2c0,0,0,0,0,0
				c0.1,0,0.3,0.1,0.3,0.1l2.6,2.5c0.2,0.2,0.2,0.5,0,0.7l-0.8,0.9c-0.1,0.1-0.2,0.1-0.4,0.2c0,0,0,0,0,0c-0.1,0-0.3-0.1-0.3-0.1
				l-1-0.9l-0.7,0.7l0.7,0.6c0.1,0.1,0.1,0.2,0.2,0.4c0,0.1,0,0.3-0.1,0.4l-0.9,0.9c-0.1,0.1-0.2,0.1-0.4,0.2c0,0,0,0,0,0
				c-0.1,0-0.3-0.1-0.3-0.1l-0.7-0.6l-1,1l1,1c0.1,0.1,0.1,0.2,0.2,0.4c0,0.1,0,0.3-0.1,0.4L36,28.3C35.9,28.4,35.7,28.5,35.6,28.5z
				 M33.1,20.9c0.1,0,0.3,0.1,0.3,0.1l1.3,1.2c0.1,0.1,0.1,0.2,0.2,0.4c0,0.1,0,0.2-0.1,0.3l1.3-1.4c-0.1,0-0.2,0.1-0.3,0.1
				c-0.1,0-0.3,0-0.3-0.1l-1.3-1.2c-0.2-0.2-0.2-0.5,0-0.7l0.6-0.6c0.2-0.2,0.2-0.3,0.3-0.4c0,0-0.1-0.1-0.1-0.1
				c0,0-0.2,0.1-0.4,0.3L32,21.5c-0.2,0.2-0.3,0.4-0.3,0.4l0.1,0c0,0,0.1-0.1,0.3-0.3l0.6-0.6C32.8,20.9,33,20.9,33.1,20.9
				C33.1,20.9,33.1,20.9,33.1,20.9z M30.9,14.4c-0.1,0-0.2,0.1-0.4,0.3l-2.7,2.8c-0.2,0.2-0.3,0.3-0.3,0.4l0.1,0
				c0,0,0.1-0.1,0.3-0.3l2.7-2.8C30.9,14.6,30.9,14.5,30.9,14.4C31,14.4,30.9,14.4,30.9,14.4z M22.3,12.6c0.1,0.1,0.1,0.2,0.1,0.3
				l3.4-3.5c-0.1,0-0.2-0.1-0.3-0.1l-1-0.9L23.8,9l0.7,0.6c0.1,0.1,0.1,0.2,0.2,0.4s0,0.3-0.1,0.4l-0.9,0.9
				c-0.1,0.1-0.2,0.1-0.4,0.2c0,0,0,0,0,0c-0.1,0-0.3-0.1-0.3-0.1l-0.7-0.6l-1,1L22.3,12.6z"/>
			<path class="st1" d="M20,1.6l1.1,1.1l-3.2,4.6l4.4-3.4l1.2,1.1l-6.7,4.8l-1.4-1.3L20,1.6 M24.1,5.5L26.7,8l-0.9,0.9l-1.3-1.3
				L23.1,9l1,1l-0.9,0.9l-1-1l-1.7,1.7l1.3,1.3l-0.8,0.9l-2.6-2.6L24.1,5.5 M27.3,8.6l1.3,1.2l-4.8,4.9l1.3,1.3L24.3,17l-2.6-2.5
				L27.3,8.6 M30.5,12.3c0.5,0,1.1,0.3,1.7,0.8c0.6,0.6,0.9,1.2,0.9,1.8c0,0.6-0.4,1.2-1,1.8l-2.1,2.2c-0.6,0.6-1.2,1-1.8,1
				c-0.1,0-0.1,0-0.2,0c-0.5,0-1.1-0.3-1.7-0.8c-0.6-0.6-0.9-1.2-0.9-1.8c0-0.6,0.4-1.2,1-1.8l2.1-2.2c0.6-0.6,1.2-1,1.8-1
				C30.4,12.3,30.4,12.3,30.5,12.3 M27.6,18.4c0,0,0.1,0,0.1,0c0.2-0.1,0.4-0.2,0.6-0.4l2.7-2.8c0.2-0.2,0.3-0.4,0.4-0.6
				c0.1-0.2,0-0.4-0.2-0.5c-0.1-0.1-0.2-0.2-0.4-0.2c-0.1,0-0.1,0-0.2,0c-0.2,0.1-0.4,0.2-0.6,0.4l-2.7,2.8
				c-0.2,0.2-0.3,0.4-0.4,0.6c-0.1,0.2,0,0.3,0.2,0.5C27.3,18.3,27.5,18.4,27.6,18.4 M34.7,16.4c0.5,0,1.1,0.3,1.6,0.8
				c0.6,0.6,0.9,1.2,0.9,1.7c0,0.5-0.3,1.1-0.8,1.6L35.9,21l-1.3-1.2l0.6-0.6c0.2-0.2,0.4-0.4,0.4-0.6c0.1-0.2,0-0.3-0.2-0.5
				c-0.1-0.1-0.3-0.2-0.4-0.2c-0.1,0-0.1,0-0.2,0c-0.2,0.1-0.4,0.2-0.6,0.4l-2.7,2.7c-0.2,0.2-0.4,0.4-0.4,0.6
				c-0.1,0.2,0,0.4,0.2,0.5c0.1,0.1,0.2,0.2,0.4,0.2c0.1,0,0.1,0,0.1,0c0.2-0.1,0.4-0.2,0.6-0.5l0.6-0.6l1.3,1.2l-0.5,0.5
				c-0.5,0.5-1.1,0.8-1.6,0.9c0,0-0.1,0-0.1,0c-0.5,0-1-0.3-1.6-0.8c-0.6-0.6-0.9-1.2-0.9-1.8c0.1-0.6,0.4-1.2,1-1.8l2-2.1
				c0.6-0.6,1.2-1,1.8-1.1C34.6,16.4,34.6,16.4,34.7,16.4 M38.6,19.6l2.6,2.5L40.4,23l-1.3-1.3l-1.4,1.4l1,1L37.8,25l-1-1l-1.7,1.7
				l1.3,1.3L35.6,28L33,25.4L38.6,19.6 M20,0.6c0,0-0.1,0-0.1,0c-0.3,0-0.6,0.2-0.7,0.4l-4.6,6.8c-0.3,0.4-0.2,0.9,0.1,1.3l1.4,1.3
				c0.2,0.2,0.4,0.3,0.7,0.3c0.2,0,0.4-0.1,0.6-0.2l1.4-1l-1.1,1.1c-0.2,0.2-0.3,0.4-0.3,0.7c0,0.3,0.1,0.5,0.3,0.7l2.6,2.6
				c0.1,0.1,0.2,0.2,0.4,0.2c0.1,0.1,0.1,0.2,0.2,0.3l2.6,2.5c0.2,0.2,0.4,0.3,0.7,0.3c0,0,0,0,0,0c0.1,0,0.1,0,0.2,0
				c0.1,0.7,0.5,1.3,1.1,1.9c0.8,0.7,1.6,1.1,2.4,1.1c0.1,0,0.2,0,0.3,0c0.2,0,0.3,0,0.5-0.1c0,0.1-0.1,0.3-0.1,0.4
				c-0.1,0.9,0.3,1.8,1.2,2.6c0.7,0.7,1.5,1.1,2.2,1.1C32,25.1,32,25.3,32,25.4c0,0.3,0.1,0.5,0.3,0.7l2.6,2.6
				c0.2,0.2,0.4,0.3,0.7,0.3c0,0,0,0,0,0c0.3,0,0.5-0.1,0.7-0.3l0.8-0.9c0.2-0.2,0.3-0.4,0.3-0.7s-0.1-0.5-0.3-0.7l-0.6-0.6l0.3-0.3
				l0.3,0.3c0.2,0.2,0.4,0.3,0.7,0.3c0,0,0,0,0,0c0.3,0,0.5-0.1,0.7-0.3l0.9-0.9c0.2-0.2,0.3-0.4,0.3-0.7c0-0.3-0.1-0.5-0.3-0.7
				l-0.3-0.3l0,0l0.6,0.6c0.2,0.2,0.4,0.3,0.7,0.3c0,0,0,0,0,0c0.3,0,0.5-0.1,0.7-0.3l0.9-0.9c0.4-0.4,0.4-1,0-1.4l-2.6-2.5
				c-0.2-0.2-0.4-0.3-0.7-0.3c0,0,0,0,0,0c-0.1,0-0.3,0-0.4,0.1c0-0.7-0.4-1.5-1.2-2.2c-0.8-0.7-1.5-1.1-2.3-1.1c-0.1,0-0.2,0-0.3,0
				c-0.1,0-0.3,0-0.4,0.1c0-0.2,0.1-0.3,0.1-0.5c0.1-0.9-0.3-1.7-1.2-2.6c-0.8-0.7-1.6-1.1-2.3-1.1c-0.1,0-0.2,0-0.3,0
				c-0.8,0.1-1.6,0.5-2.4,1.3l-2.1,2.2c-0.1,0.1-0.2,0.2-0.2,0.2l-0.3-0.3l4.1-4.2c0.4-0.4,0.4-1,0-1.4L28,7.9
				c-0.1-0.1-0.2-0.2-0.4-0.2c-0.1-0.1-0.1-0.3-0.2-0.4l-2.6-2.5c-0.1-0.1-0.2-0.2-0.4-0.2c-0.1-0.1-0.1-0.2-0.2-0.3L23,3.1
				c-0.2-0.2-0.4-0.3-0.7-0.3c-0.1,0-0.2,0-0.2,0c0.1-0.3,0-0.7-0.3-0.9l-1.1-1.1C20.5,0.7,20.3,0.6,20,0.6L20,0.6z M24.5,9L24.5,9
				L25,9.5l0,0c0-0.1-0.1-0.2-0.2-0.2L24.5,9L24.5,9z M22,11.7l0.3-0.3l0.3,0.3c0.1,0.1,0.1,0.1,0.2,0.2l-0.3,0.3L22,11.7L22,11.7z
				 M33.6,20.5l0.2-0.2c0,0.1,0.1,0.1,0.1,0.2l1.2,1.2L35,21.9l-1.2-1.2C33.7,20.6,33.7,20.6,33.6,20.5L33.6,20.5z"/>
		</g>
	</g>
</g>
</svg>
