<svg width="485" height="680" fill="none" xmlns="http://www.w3.org/2000/svg"><g filter="url(#filter0_d)" stroke-miterlimit="10"><path d="M246.301 317.193s-65.159-28.077-25.726-28.623c39.433-.545 19.477-24.125 44.747-1.418 25.271 22.707 35.131-6.713 25.02 12.772-10.112 19.485 23.716 4.8 3.988 26.962-19.728 22.161 2.096 113.578-27.233 87.086-29.33-26.492 23.763-100.538-14.634-82.161-38.396 18.378-6.162-14.618-6.162-14.618z" stroke="url(#paint0_linear)" stroke-width="2"/><path d="M209.851 274.313c35.743-6.503 18.99-29.143 47.393-6.361 30.428 24.394 40.916-14.827 35.327 7.016-5.307 20.819 28.811 10.716 13.974 34.816-.974 1.577-2.049 3.298-3.141 5.228-8.949 15.7-10.692 46.992-5.73 59.923 2.425 6.302 2.912 20.979-1.877 32.215-8.564 20.089-13.118 43.955-29.674 23.496-15.811-19.527-17.766-41.277-16.023-52.614 1.821-11.748 1.005-26.081-4.098-34.17-1.397-2.216-4.419-2.803-8.816-1.595-24.116 6.663-10.072-12.637-6.178-20.441 1.287-2.56 2.473-4.381 1.845-4.674-3.368-1.561-22.115-12.504-31.158-22.406-5.81-6.327-8.722-11.924-4.145-15.104 3.698-2.693 7.892-4.51 12.301-5.329z" stroke="url(#paint1_linear)" stroke-width="2.273"/><path d="M199.136 260.048c31.464-11.749 18.581-34.246 50.022-11.304 35.649 26.014 46.734-22.892 45.666 1.276-1.028 23.278 37.627 15.314 21.196 45.96a122.435 122.435 0 00-3.556 7.166c-10.543 23.639-8.188 67.535-1.971 77.588 7.144 2.744 6.972 24.335-3.006 39.087-14.304 21.189-22.547 56.29-42.33 27.507-19.194-27.91-25.513-51.683-25.906-56.751-.416-5.413-8.07-17.27-11.155-32.056-.691-3.356-2.858-5.588-6.163-5.781-18.645-1.116-2.842-23.085-2.096-30.772.236-2.4.824-4.263-.44-4.858-6.735-3.13-26.926-17.547-33.646-30.05-4.318-7.989-5.276-14.56.18-18.344 3.611-2.492 7.654-6.587 13.205-8.668z" stroke="url(#paint2_linear)" stroke-width="2.545"/><path d="M188.42 245.782c29.415-9.44 18.228-39.44 52.644-16.237 40.925 27.566 52.598-30.948 55.997-4.481 3.298 25.77 46.522 19.963 28.419 57.103-1.343 2.753-2.701 5.791-3.925 9.114-11.996 31.644-7.929 88.79 1.782 95.243 10.88-.26 11.391 27.985-4.122 45.977-19.626 22.707-31.959 68.617-55 31.51-22.554-36.319-33.105-61.971-35.766-60.897-2.504 1.007-17.718-8.484-18.213-29.949-.102-4.448-1.099-8.3-3.517-9.961-12.27-8.467 6.343-33.7 1.994-41.118-.236-2.165-.785-4.146-2.724-5.035-10.104-4.699-31.739-22.607-36.112-37.711-2.834-9.634-1.845-17.178 4.506-21.583 4.491-3.122 9.256-7.569 14.037-11.975z" stroke="url(#paint3_linear)" stroke-width="2.818"/><path d="M177.704 231.525c26.079-12.411 17.915-44.651 55.275-21.18 46.239 29.051 58.509-39.004 66.312-10.238 7.67 28.254 55.479 24.646 35.649 68.256a115.306 115.306 0 00-4.357 11.052c-13.346 39.666-7.631 110.046 5.534 112.907 14.626-3.281 15.952 31.888-5.244 52.866-24.784 24.495-41.348 80.936-67.662 35.513-25.907-44.718-40.823-72.477-45.635-65.034-4.71 7.225-27.563.143-25.27-27.834.463-5.614.628-10.733-.864-14.157-6.155-14.173 14.296-44.332 6.076-51.423-1.071-2.289-2.836-4.123-5.008-5.202-13.471-6.26-36.56-27.65-38.616-45.356-1.343-11.287 1.57-19.813 8.839-24.831 5.472-3.818 10.622-9.541 14.971-15.339z" stroke="url(#paint4_linear)" stroke-width="3.091"/><path d="M166.98 217.26c22.767-15.374 17.625-49.921 57.905-26.115 51.585 30.487 64.436-47.076 76.643-15.985 12.059 30.712 64.46 29.319 42.872 79.391a128.058 128.058 0 00-4.758 12.982c-14.688 47.689-7.065 133.676 9.287 130.563 18.99-3.6 20.576 35.982-6.366 59.73-29.981 26.433-50.636 93.196-80.318 39.524-29.156-53.193-48.515-82.908-55.502-69.179-6.877 13.535-37.494 8.685-32.336-25.712 1.02-6.797 2.072-13.149 1.79-18.335-1.091-19.972 21.337-53.37 10.158-61.753-2.119-1.586-4.129-3.902-7.293-5.379-16.839-7.821-41.371-32.727-41.097-53.009.149-12.939 5.032-22.439 13.158-28.069 6.413-4.464 11.948-11.379 15.857-18.654z" stroke="url(#paint5_linear)" stroke-width="3.364"/><path d="M156.264 202.994c19.399-18.335 17.342-55.224 60.535-31.048 56.947 31.887 70.371-55.174 86.967-21.743 16.485 33.172 73.448 34.011 50.101 90.544a140.243 140.243 0 00-5.166 14.937c-15.983 55.719-6.602 154.403 13.04 148.227 22.766-7.192 25.223 40.162-7.482 66.603-35.209 28.464-60.039 105.523-92.988 43.527-32.508-61.594-56.232-93.33-65.37-73.317-9.099 19.821-47.393 17.144-39.393-23.613 1.57-8.006 3.47-15.701 4.443-22.523 3.776-26.374 29.643-64.22 14.241-72.083-2.874-1.46-5.786-3.784-9.578-5.546-20.207-9.399-46.184-37.762-43.577-60.662 1.633-14.593 8.47-25.066 17.482-31.317 7.348-5.102 13.244-13.267 16.745-21.986z" stroke="url(#paint6_linear)" stroke-width="3.636"/><path d="M145.549 188.737c16.054-21.306 17.067-60.561 63.156-35.999 62.332 33.23 76.322-63.272 97.29-27.482 20.875 35.605 82.469 38.701 57.308 101.679a154.877 154.877 0 00-5.566 16.875c-17.271 63.775-6.28 175.248 16.792 165.9 26.464-10.733 29.887 44.416-8.635 73.475-40.422 30.545-69.374 117.85-105.58 47.538-35.877-70.002-63.942-103.752-75.254-77.462-11.281 26.123-57.308 25.586-46.451-21.507 2.127-9.231 4.875-18.293 7.065-26.702 8.714-33.045 37.824-75.154 18.323-82.404-3.658-1.368-7.434-3.667-11.87-5.731-23.551-10.959-50.988-42.797-46.058-68.307 1.281-7.03 3.871-13.713 7.618-19.651 3.747-5.938 8.572-11.01 14.191-14.913 8.321-5.757 14.633-15.155 17.671-25.309z" stroke="url(#paint7_linear)" stroke-width="3.909"/><path d="M134.833 174.471c9.475-25.904 16.792-65.915 65.786-40.933 67.718 34.539 82.257-71.386 107.614-33.239 25.357 38.148 91.481 43.393 64.554 112.832a167.702 167.702 0 00-5.967 18.814c-18.519 71.78-6.037 196.108 20.545 183.555 30.083-14.199 34.542 48.729-9.719 80.356-45.721 32.652-78.865 130.177-118.313 51.541-39.213-78.393-71.62-114.124-85.115-81.599-13.494 32.525-67.246 34.002-53.508-19.393 2.685-10.43 6.28-20.92 9.75-30.889 13.723-39.817 45.925-86.088 22.405-92.734-4.467-1.267-9.09-3.549-14.13-5.874-26.935-12.52-55.809-47.831-48.54-75.959 4.068-15.609 13.372-29.07 26.135-37.812 9.2-6.437 14.452-17.564 18.503-28.666z" stroke="url(#paint8_linear)" stroke-width="4.182"/><path d="M124.109 160.214c7.066-28.027 16.533-71.327 68.417-45.876 73.118 35.815 88.285-79.568 117.944-38.97 29.753 40.388 100.485 48.083 71.776 123.976a183.652 183.652 0 00-6.374 20.76c-19.768 79.803-5.841 217.004 24.336 201.219 33.663-17.622 39.197 53.068-10.849 87.271-51.02 34.758-88.223 142.429-131 55.485-42.565-86.801-79.289-124.572-94.99-85.744-15.701 38.827-77.17 42.41-60.566-17.287 3.243-11.647 7.756-23.554 12.404-35.076 18.778-46.631 53.964-97.005 26.487-103.056-5.291-1.166-10.739-3.432-16.439-6.075-30.302-14.089-60.62-52.908-51.027-83.613 6.092-19.552 18.786-32.953 30.452-41.059 10.182-7.049 16.203-19.183 19.429-31.955z" stroke="url(#paint9_linear)" stroke-width="4.455"/><path d="M113.393 145.949c4.852-30.453 16.274-76.673 71.047-50.81 78.504 37.073 94.204-87.666 128.259-44.744 34.056 42.922 109.631 52.808 79.007 135.103a204.99 204.99 0 00-6.775 22.699c-20.874 87.867-5.684 237.931 28.065 218.891 37.243-20.978 43.853 57.431-11.972 94.119-56.287 36.989-97.619 154.831-143.662 59.579-46.043-95.251-86.983-135.01-104.819-89.914-17.836 45.096-87.092 50.81-67.63-15.172 3.799-12.873 9.216-26.19 15.048-39.264 23.873-53.47 62.019-107.906 30.617-113.385a75.975 75.975 0 01-18.723-6.252c-33.67-15.658-65.473-57.951-53.548-91.224 7.591-21.238 22.233-35.621 34.793-44.34 11.093-7.687 18.009-20.903 20.293-35.286z" stroke="url(#paint10_linear)" stroke-width="4.727"/><path d="M81.481 170.301c12.043-8.392 19.909-22.708 21.197-38.601 2.684-33.171 16.007-82.069 73.668-55.744 83.921 38.307 100.092-95.772 138.591-50.5 38.498 45.272 118.541 57.464 86.229 146.263-32.313 88.798-16.164 285.562 24.642 261.184 40.807-24.377 48.508 61.812-13.086 100.992-61.595 39.18-107.025 167.141-156.333 63.54-49.309-103.601-94.7-145.391-114.718-93.984-20.019 51.406-96.984 59.159-74.658-13.1 22.327-72.258 96.246-161.065 52.362-167.158-43.883-6.092-93.938-62.684-76.996-105.346 9.114-22.859 25.663-38.215 39.102-47.546z" stroke="url(#paint11_linear)" stroke-width="5"/></g><defs><linearGradient id="paint0_linear" x1="207.104" y1="348.024" x2="301.434" y2="348.024" gradientUnits="userSpaceOnUse"><stop stop-color="#C324FF"/><stop offset="1" stop-color="#2B66FF"/></linearGradient><linearGradient id="paint1_linear" x1="26539.7" y1="81674.8" x2="43654" y2="81674.8" gradientUnits="userSpaceOnUse"><stop stop-color="#C324FF"/><stop offset="1" stop-color="#2B66FF"/></linearGradient><linearGradient id="paint2_linear" x1="29449.5" y1="99288.2" x2="54030.2" y2="99288.2" gradientUnits="userSpaceOnUse"><stop stop-color="#2B66FF"/><stop offset="1" stop-color="#C324FF"/></linearGradient><linearGradient id="paint3_linear" x1="31829.2" y1="117450" x2="66071.2" y2="117450" gradientUnits="userSpaceOnUse"><stop stop-color="#C324FF"/><stop offset="1" stop-color="#2B66FF"/></linearGradient><linearGradient id="paint4_linear" x1="34093.9" y1="136749" x2="82331.7" y2="136749" gradientUnits="userSpaceOnUse"><stop stop-color="#2B66FF"/><stop offset="1" stop-color="#C324FF"/></linearGradient><linearGradient id="paint5_linear" x1="35127.2" y1="155750" x2="100402" y2="155750" gradientUnits="userSpaceOnUse"><stop stop-color="#C324FF"/><stop offset="1" stop-color="#2B66FF"/></linearGradient><linearGradient id="paint6_linear" x1="34766.6" y1="174526" x2="119833" y2="174526" gradientUnits="userSpaceOnUse"><stop stop-color="#2B66FF"/><stop offset="1" stop-color="#C324FF"/></linearGradient><linearGradient id="paint7_linear" x1="33028.9" y1="193016" x2="140644" y2="193016" gradientUnits="userSpaceOnUse"><stop stop-color="#C324FF"/><stop offset="1" stop-color="#2B66FF"/></linearGradient><linearGradient id="paint8_linear" x1="29889" y1="211222" x2="162795" y2="211222" gradientUnits="userSpaceOnUse"><stop stop-color="#2B66FF"/><stop offset=".526" stop-color="#C324FF"/></linearGradient><linearGradient id="paint9_linear" x1="25350.3" y1="229140" x2="186343" y2="229140" gradientUnits="userSpaceOnUse"><stop stop-color="#C324FF"/><stop offset="1" stop-color="#2B66FF"/></linearGradient><linearGradient id="paint10_linear" x1="19388.4" y1="246788" x2="211193" y2="246788" gradientUnits="userSpaceOnUse"><stop stop-color="#2B66FF"/><stop offset="1" stop-color="#C324FF"/></linearGradient><linearGradient id="paint11_linear" x1="12009.4" y1="264129" x2="237404" y2="264129" gradientUnits="userSpaceOnUse"><stop stop-color="#B657FF"/><stop offset="1" stop-color="#2B66FF"/></linearGradient><filter id="filter0_d" x=".496" y="-18.5" width="495.696" height="698.035" filterUnits="userSpaceOnUse" color-interpolation-filters="sRGB"><feFlood flood-opacity="0" result="BackgroundImageFix"/><feColorMatrix in="SourceAlpha" values="0 0 0 0 0 0 0 0 0 0 0 0 0 0 0 0 0 0 127 0"/><feOffset dy="4"/><feGaussianBlur stdDeviation="18"/><feColorMatrix values="0 0 0 0 0.764706 0 0 0 0 0.141176 0 0 0 0 1 0 0 0 1 0"/><feBlend in2="BackgroundImageFix" result="effect1_dropShadow"/><feBlend in="SourceGraphic" in2="effect1_dropShadow" result="shape"/></filter></defs></svg>