<svg width="363" height="482" fill="none" xmlns="http://www.w3.org/2000/svg"><g filter="url(#filter0_d)" stroke-miterlimit="10"><path d="M175.577 228.875s-45.758-18.446-18.066-18.805c27.691-.358 13.678-15.849 31.424-.931s24.67-4.411 17.569 8.39c-7.1 12.801 16.655 3.154 2.801 17.713-13.854 14.56 1.472 74.618-19.124 57.214-20.597-17.405 16.687-66.051-10.277-53.978-26.963 12.074-4.327-9.603-4.327-9.603z" stroke="url(#paint0_linear)" stroke-width="2"/><path d="M149.98 200.704c25.101-4.273 13.336-19.147 33.282-4.179 21.368 16.026 28.733-9.741 24.808 4.609-3.727 13.677 20.233 7.04 9.813 22.873-.684 1.036-1.439 2.166-2.205 3.434-6.285 10.315-7.509 30.873-4.025 39.368 1.704 4.141 2.046 13.783-1.317 21.165-6.015 13.198-9.212 28.876-20.839 15.436-11.103-12.829-12.476-27.118-11.252-34.566 1.279-7.718.706-17.135-2.878-22.449-.981-1.455-3.104-1.841-6.191-1.048-16.935 4.378-7.073-8.302-4.338-13.429.904-1.681 1.736-2.878 1.295-3.071-2.365-1.025-15.53-8.214-21.881-14.719-4.079-4.157-6.125-7.834-2.911-9.924a22.058 22.058 0 018.639-3.5z" stroke="url(#paint1_linear)" stroke-width="2.273"/><path d="M142.455 191.332c22.096-7.719 13.049-22.499 35.129-7.426 25.034 17.09 32.818-15.04 32.068.838-.722 15.292 26.424 10.061 14.885 30.194a78.18 78.18 0 00-2.497 4.708c-7.404 15.53-5.75 44.368-1.384 50.973 5.017 1.802 4.896 15.987-2.111 25.679-10.045 13.92-15.833 36.981-29.726 18.071-13.479-18.336-17.917-33.954-18.193-37.284-.292-3.556-5.667-11.345-7.834-21.059-.485-2.205-2.006-3.672-4.327-3.799-13.094-.733-1.996-15.166-1.472-20.216.165-1.576.579-2.8-.309-3.192-4.73-2.056-18.909-11.527-23.628-19.741-3.033-5.249-3.705-9.565.126-12.052 2.536-1.637 5.375-4.327 9.273-5.694z" stroke="url(#paint2_linear)" stroke-width="2.545"/><path d="M134.93 181.96c20.657-6.203 12.801-25.911 36.97-10.668 28.739 18.11 36.936-20.332 39.323-2.944 2.316 16.93 32.67 13.115 19.957 37.516a62.571 62.571 0 00-2.756 5.987c-8.424 20.789-5.568 58.332 1.251 62.572 7.641-.171 8 18.385-2.894 30.205-13.782 14.918-22.443 45.079-38.624 20.701-15.838-23.86-23.248-40.713-25.117-40.007-1.758.661-12.442-5.574-12.79-19.676-.071-2.922-.771-5.452-2.469-6.544-8.617-5.562 4.454-22.14 1.4-27.013-.166-1.423-.551-2.724-1.913-3.308-7.095-3.087-22.289-14.852-25.36-24.775-1.99-6.329-1.295-11.285 3.165-14.179 3.153-2.051 6.5-4.973 9.857-7.867z" stroke="url(#paint3_linear)" stroke-width="2.818"/><path d="M127.405 172.593c18.314-8.153 12.58-29.334 38.816-13.914 32.472 19.085 41.088-25.625 46.568-6.726 5.386 18.562 38.96 16.191 25.034 44.842a73.014 73.014 0 00-3.059 7.261c-9.372 26.059-5.359 72.296 3.886 74.176 10.271-2.155 11.203 20.949-3.682 34.732-17.405 16.092-29.037 53.172-47.516 23.33-18.193-29.378-28.668-47.615-32.047-42.725-3.308 4.747-19.356.094-17.746-18.286.325-3.688.441-7.051-.607-9.301-4.322-9.311 10.039-29.125 4.267-33.783a7.438 7.438 0 00-3.517-3.418c-9.46-4.113-25.674-18.165-27.118-29.797-.943-7.415 1.103-13.016 6.208-16.313 3.842-2.509 7.459-6.268 10.513-10.078z" stroke="url(#paint4_linear)" stroke-width="3.091"/><path d="M119.874 163.221c15.988-10.099 12.377-32.796 40.663-17.156 36.226 20.029 45.251-30.927 53.823-10.502 8.468 20.177 45.267 19.262 30.106 52.158a80.644 80.644 0 00-3.34 8.529c-10.315 31.33-4.962 87.821 6.521 85.775 13.336-2.365 14.45 23.64-4.471 39.241-21.053 17.366-35.558 61.227-56.402 25.966-20.476-34.946-34.07-54.467-38.977-45.448-4.829 8.892-26.33 5.706-22.708-16.892.717-4.465 1.456-8.639 1.257-12.046-.766-13.12 14.984-35.062 7.134-40.569-1.489-1.042-2.9-2.564-5.122-3.534-11.825-5.138-29.053-21.501-28.86-34.825.105-8.501 3.534-14.742 9.24-18.441 4.504-2.933 8.391-7.476 11.136-12.256z" stroke="url(#paint5_linear)" stroke-width="3.364"/><path d="M112.349 153.85c13.622-12.046 12.178-36.281 42.51-20.398 39.991 20.949 49.418-36.248 61.073-14.284 11.577 21.792 51.579 22.344 35.183 59.484a88.032 88.032 0 00-3.627 9.813c-11.225 36.606-4.637 101.438 9.157 97.381 15.987-4.725 17.713 26.385-5.254 43.756-24.726 18.7-42.163 69.325-65.301 28.596-22.829-40.465-39.489-61.315-45.906-48.167-6.39 13.022-33.282 11.263-27.664-15.513 1.102-5.26 2.437-10.315 3.12-14.797 2.652-17.327 20.817-42.191 10.001-47.356-2.018-.959-4.063-2.487-6.726-3.644-14.19-6.175-32.433-24.809-30.603-39.853 1.147-9.587 5.949-16.467 12.278-20.575 5.16-3.351 9.3-8.716 11.759-14.443z" stroke="url(#paint6_linear)" stroke-width="3.636"/><path d="M104.824 144.483c11.274-13.997 11.985-39.787 44.351-23.651 43.773 21.832 53.597-41.567 68.322-18.055 14.659 23.392 57.914 25.426 40.245 66.801a97.048 97.048 0 00-3.909 11.086c-12.128 41.899-4.41 115.133 11.792 108.991 18.584-7.051 20.988 29.18-6.064 48.271-28.386 20.067-48.718 77.424-74.144 31.231-25.194-45.989-44.902-68.162-52.847-50.89-7.922 17.162-40.244 16.809-32.62-14.129 1.494-6.065 3.424-12.019 4.962-17.543 6.119-21.71 26.561-49.373 12.867-54.137-2.569-.898-5.221-2.409-8.335-3.765-16.54-7.2-35.807-28.116-32.345-44.875a35.08 35.08 0 0115.315-22.708c5.844-3.782 10.276-9.956 12.41-16.627z" stroke="url(#paint7_linear)" stroke-width="3.909"/><path d="M97.299 135.111c6.654-17.019 11.792-43.304 46.198-26.892 47.555 22.691 57.765-46.899 75.571-21.837 17.807 25.062 64.243 28.507 45.333 74.127a105.277 105.277 0 00-4.19 12.36c-13.005 47.158-4.239 128.837 14.428 120.59 21.125-9.328 24.257 32.014-6.825 52.792-32.108 21.451-55.383 85.522-83.086 33.86-27.537-51.502-50.294-74.976-59.771-53.607-9.477 21.368-47.224 22.338-37.576-12.741 1.885-6.853 4.41-13.744 6.847-20.293 9.637-26.159 32.251-56.557 15.734-60.924-3.137-.832-6.384-2.332-9.923-3.859-18.915-8.225-39.192-31.423-34.087-49.903a43.305 43.305 0 0118.353-24.841c6.46-4.228 10.149-11.539 12.994-18.832z" stroke="url(#paint8_linear)" stroke-width="4.182"/><path d="M89.768 125.744c4.962-18.413 11.61-46.86 48.045-30.139 51.348 23.529 61.999-52.274 82.827-25.602 20.894 26.534 70.565 31.589 50.404 81.448a115.216 115.216 0 00-4.476 13.639c-13.882 52.428-4.102 142.565 17.09 132.195 23.64-11.577 27.526 34.864-7.619 57.335-35.828 22.834-61.954 93.571-91.994 36.451-29.891-57.026-55.681-81.84-66.707-56.331-11.026 25.508-54.192 27.862-42.532-11.357 2.277-7.652 5.447-15.475 8.71-23.044 13.187-30.635 37.896-63.729 18.601-67.704-3.716-.767-7.542-2.255-11.544-3.992-21.28-9.256-42.571-34.759-35.834-54.931 4.278-12.845 13.192-21.649 21.384-26.974 7.15-4.631 11.38-12.603 13.645-20.994z" stroke="url(#paint9_linear)" stroke-width="4.455"/><path d="M82.243 116.373c3.407-20.007 11.428-50.372 49.892-33.381 55.129 24.356 66.155-57.594 90.07-29.395 23.915 28.198 76.988 34.693 55.482 88.758a128.289 128.289 0 00-4.757 14.913c-14.659 57.726-3.992 156.313 19.709 143.805 26.153-13.783 30.795 37.73-8.408 61.833-39.527 24.301-68.553 101.719-100.886 39.142-32.334-62.578-61.084-88.698-73.609-59.072-12.526 29.627-61.16 33.381-47.494-9.967 2.668-8.457 6.472-17.206 10.568-25.795 16.765-35.128 43.552-70.891 21.5-74.491a55.909 55.909 0 01-13.148-4.107c-23.645-10.287-45.978-38.072-37.604-59.931 5.331-13.953 15.613-23.403 24.434-29.131 7.79-5.049 12.646-13.732 14.25-23.181z" stroke="url(#paint10_linear)" stroke-width="4.727"/><path d="M59.833 132.371c8.457-5.513 13.98-14.918 14.885-25.36 1.885-21.792 11.24-53.916 51.733-36.622 58.933 25.166 70.29-62.92 97.325-33.177 27.036 29.742 83.246 37.753 60.555 96.091-22.692 58.338-11.352 187.605 17.305 171.59 28.656-16.015 34.064 40.608-9.19 66.348-43.255 25.74-75.158 109.807-109.785 41.744-34.627-68.063-66.503-95.517-80.561-61.745-14.058 33.772-68.106 38.866-52.428-8.606 15.68-47.471 67.589-105.815 36.772-109.817-30.818-4.003-65.968-41.182-54.071-69.21 6.4-15.017 18.022-25.106 27.46-31.236z" stroke="url(#paint11_linear)" stroke-width="5"/></g><defs><linearGradient id="paint0_linear" x1="148.051" y1="249.129" x2="214.294" y2="249.129" gradientUnits="userSpaceOnUse"><stop stop-color="#FFB914"/><stop offset="1" stop-color="#FF1B1B"/></linearGradient><linearGradient id="paint1_linear" x1="18640.1" y1="53678.4" x2="30658.6" y2="53678.4" gradientUnits="userSpaceOnUse"><stop stop-color="#FF1B1B"/><stop offset="1" stop-color="#FFB914"/></linearGradient><linearGradient id="paint2_linear" x1="20683.5" y1="65249.8" x2="37945.3" y2="65249.8" gradientUnits="userSpaceOnUse"><stop stop-color="#FF1B1B"/><stop offset=".885" stop-color="#FFB914"/></linearGradient><linearGradient id="paint3_linear" x1="22354.7" y1="77181.8" x2="46401.1" y2="77181.8" gradientUnits="userSpaceOnUse"><stop stop-color="#FFB914"/><stop offset="1" stop-color="#FF1B1B"/></linearGradient><linearGradient id="paint4_linear" x1="23945" y1="89860.6" x2="57820" y2="89860.6" gradientUnits="userSpaceOnUse"><stop stop-color="#FFB914"/><stop offset="1" stop-color="#FF1B1B"/></linearGradient><linearGradient id="paint5_linear" x1="24670.6" y1="102344" x2="70509.8" y2="102344" gradientUnits="userSpaceOnUse"><stop stop-color="#FFB914"/><stop offset="1" stop-color="#FF1B1B"/></linearGradient><linearGradient id="paint6_linear" x1="24417.4" y1="114679" x2="84155.1" y2="114679" gradientUnits="userSpaceOnUse"><stop stop-color="#FF1B1B"/><stop offset="1" stop-color="#FFB914"/></linearGradient><linearGradient id="paint7_linear" x1="23197.2" y1="126826" x2="98769.6" y2="126826" gradientUnits="userSpaceOnUse"><stop stop-color="#FFB914"/><stop offset="1" stop-color="#FF1B1B"/></linearGradient><linearGradient id="paint8_linear" x1="20992.1" y1="138787" x2="114325" y2="138787" gradientUnits="userSpaceOnUse"><stop stop-color="#FFB914"/><stop offset="1" stop-color="#FF1B1B"/></linearGradient><linearGradient id="paint9_linear" x1="17804.8" y1="150558" x2="130862" y2="150558" gradientUnits="userSpaceOnUse"><stop stop-color="#FF1B1B"/><stop offset="1" stop-color="#FFB914"/></linearGradient><linearGradient id="paint10_linear" x1="13618.1" y1="162153" x2="148313" y2="162153" gradientUnits="userSpaceOnUse"><stop stop-color="#FF1B1B"/><stop offset="1" stop-color="#FFB914"/></linearGradient><linearGradient id="paint11_linear" x1="8436.2" y1="173545" x2="166719" y2="173545" gradientUnits="userSpaceOnUse"><stop stop-color="#FFB914"/><stop offset="1" stop-color="#FF1B1B"/></linearGradient><filter id="filter0_d" x="-8.506" y="-3.5" width="371.031" height="485.001" filterUnits="userSpaceOnUse" color-interpolation-filters="sRGB"><feFlood flood-opacity="0" result="BackgroundImageFix"/><feColorMatrix in="SourceAlpha" values="0 0 0 0 0 0 0 0 0 0 0 0 0 0 0 0 0 0 127 0"/><feOffset dy="4"/><feGaussianBlur stdDeviation="18"/><feColorMatrix values="0 0 0 0 1 0 0 0 0 0.105882 0 0 0 0 0.105882 0 0 0 1 0"/><feBlend in2="BackgroundImageFix" result="effect1_dropShadow"/><feBlend in="SourceGraphic" in2="effect1_dropShadow" result="shape"/></filter></defs></svg>