<?xml version="1.0" encoding="utf-8"?>
<!-- Generator: Adobe Illustrator 25.2.3, SVG Export Plug-In . SVG Version: 6.00 Build 0)  -->
<svg version="1.1" id="Calque_1" xmlns="http://www.w3.org/2000/svg" xmlns:xlink="http://www.w3.org/1999/xlink" x="0px" y="0px"
	 viewBox="0 0 75 72.6" style="enable-background:new 0 0 75 72.6;" xml:space="preserve">
<style type="text/css">
	.st0{fill:url(#SVGID_1_);}
	.st1{fill:url(#SVGID_2_);}
	.st2{fill:url(#SVGID_3_);}
</style>
<linearGradient id="SVGID_1_" gradientUnits="userSpaceOnUse" x1="37.4882" y1="73.3354" x2="37.4882" y2="1.2315" gradientTransform="matrix(1 0 0 -1 0 73.5669)">
	<stop  offset="0" style="stop-color:#FF1B1B"/>
	<stop  offset="1" style="stop-color:#FFB914"/>
</linearGradient>
<path class="st0" d="M9.7,0.2h2.5c0.1,0,0.1,0.1,0.2,0.1c3.3,0.5,5.9,2.1,7.9,4.9c0.1,0.2,0.6,0.3,0.9,0.2c3.1-0.4,6.2-1,9.4-1.3
	c9-0.8,18-0.5,26.9,1.2c5.9,1.1,11.4,3.1,16.5,6.2c0.8,0.5,1.1,1.1,1.1,2.1c0.2,7-0.7,13.9-2.7,20.6C67.6,50.5,58,62.7,43,70.5
	c-1.1,0.6-2.3,1.2-3.4,1.8h-0.4c-0.3-0.2-0.6-0.4-0.8-0.5c-5.9-2.7-11.3-6.2-15.9-10.7C11,50.2,5.5,36.6,4,21.1c0-0.7-0.3-1.4-0.9-2
	C-2.2,13.8-0.7,3.1,7.7,0.7C8.3,0.5,9,0.4,9.7,0.2z M66.2,39.5c-0.5-2.8-2.3-4.9-4.7-6.6c-2.4-1.7-5.1-2.5-8.3-2.1
	c1.5-1.1,3.4-1.7,5-1.3c3.9,0.8,7.3,2.5,9.7,5.9c0.1,0.2,0.3,0.3,0.5,0.5c2-6.3,3.1-12.6,3.1-19.1c0-2.4,0-2.4-2.1-3.6
	C63,9.8,56.1,8.3,48.9,7.6C41.5,6.9,34.1,7,26.7,8c-1.6,0.2-3.3,0.5-4.9,0.8c1.5,8.6-5.5,15.2-14.2,13.1c0,0.2,0,0.3,0,0.5
	c0.5,5,1.6,9.9,3.3,14.6c0.1,0.2,0.2,0.3,0.3,0.4s0.3,0.2,0.5,0.3c2,0.6,4.1,1.4,6.2,1.7c5.8,1,11.5,2.6,16.8,5.3
	c5.2,2.7,10,5.9,13.7,10.5c1.4,1.7,2.5,3.6,3.1,5.7c5.7-4.7,10.4-10.5,13.7-17.1c0.1-0.2,0-0.7-0.2-1c-0.7-0.9-1.8-1.1-2.9-1.2
	c-1.3-0.1-2.6-0.3-3.8-0.6c-2-0.6-3.5-1.8-4.7-3.6L54,37c1.3,0.5,2.5,1.2,3.8,1.4c1.6,0.3,3.3,0.3,4.9,0.4
	C63.8,39,65,39.3,66.2,39.5z M13.9,44c0.1,0.2,0.1,0.4,0.2,0.6C19.7,55.2,28.1,63,38.9,68.2c0.2,0.1,0.3,0.1,0.5,0.1
	c0.2,0,0.4,0,0.5-0.1c3.2-1.9,6.5-3.9,9.7-5.9c0.3-0.2,0.4-0.7,0.4-1c-0.2-1.6-1.1-2.8-2-4c-1.8-2.2-4-3.9-6.4-5.4
	c-7.2-4.4-15.1-6.9-23.5-7.8C16.7,44,15.4,44,13.9,44z M10.8,18.8c4.3,0,7.7-3.2,7.7-7.4c0-1-0.2-2-0.5-2.9
	c-0.4-0.9-0.9-1.8-1.6-2.5c-0.7-0.7-1.5-1.3-2.5-1.7C13,3.9,12,3.7,11,3.7c-4.4,0-7.5,3.1-7.6,7.5C3.4,15.7,6.4,18.8,10.8,18.8
	L10.8,18.8z"/>
<linearGradient id="SVGID_2_" gradientUnits="userSpaceOnUse" x1="30.1327" y1="57.0577" x2="30.1327" y2="35.1026" gradientTransform="matrix(1 0 0 -1 0 73.5669)">
	<stop  offset="0" style="stop-color:#FF1B1B"/>
	<stop  offset="1" style="stop-color:#FFB914"/>
</linearGradient>
<path class="st1" d="M31.6,38.5h-7.9c0-0.4-0.1-0.8-0.1-1.1c0-6.5,0-13.1,0-19.6c0-0.4,0-0.8,0.1-1.2h7.2c0.3,0.1,0.6,0.2,0.9,0.2
	c2.4,0.5,3.7,1.9,4,4.2c0.4,2.9-0.4,4.6-2.6,5.7c2,1.1,2.3,1.3,2.7,2.3c2,3.9,0,8.3-4.1,9.4C31.7,38.4,31.7,38.4,31.6,38.5z
	 M28.1,28.5v6.9c1.3-0.1,2.8,0.3,3.6-1.1c0.4-0.7,0.6-1.6,0.6-2.4c0-0.8-0.2-1.7-0.7-2.4C30.9,28.1,29.4,28.4,28.1,28.5z M28.1,25.4
	c1.3-0.1,2.7,0.3,3.4-1c0.6-1.2,0.7-2.6-0.1-3.9c-0.5-0.8-2.1-1.2-3.4-0.8V25.4z"/>
<linearGradient id="SVGID_3_" gradientUnits="userSpaceOnUse" x1="45.4123" y1="57.0577" x2="45.4123" y2="35.0931" gradientTransform="matrix(1 0 0 -1 0 73.5669)">
	<stop  offset="0" style="stop-color:#FF1B1B"/>
	<stop  offset="1" style="stop-color:#FFB914"/>
</linearGradient>
<path class="st2" d="M43.4,38.5H39c0-0.4-0.1-0.8-0.1-1.1c0-6.5,0-13.1,0-19.6c0-0.4,0-0.8,0.1-1.2h7.4c0.3,0.1,0.6,0.2,0.9,0.2
	c2,0.4,3.6,1.4,4.1,3.5c0.4,1.7,0.4,3.4-0.2,5c-0.3,0.9-1.1,1.6-1.7,2.3c-0.4,0.3-0.5,0.5-0.3,1c0.4,1.3,0.8,2.6,1.1,3.9
	c0.5,2,1.1,4,1.6,6h-4.5c0-0.3-0.1-0.6-0.1-0.8c-0.7-2.6-1.3-5.2-2-7.9c-0.3-1.3-0.4-1.3-1.9-1V38.5z M43.4,26
	c1.4-0.1,2.9,0.3,3.6-1.1c0.7-1.4,0.8-3.1-0.1-4.4c-0.8-1.3-2.2-0.8-3.5-0.8V26z"/>
</svg>
