<svg width="100" height="100" fill="none" xmlns="http://www.w3.org/2000/svg"><path d="M17.7 8.186h2.875c.06.04.117.106.184.117 3.896.564 6.951 2.464 9.197 5.708.16.221.697.332 1.03.287 3.647-.484 7.275-1.17 10.934-1.495 10.547-.938 21.058-.635 31.478 1.371 6.859 1.328 13.348 3.589 19.306 7.301.975.609 1.303 1.299 1.327 2.4a79.778 79.778 0 01-3.14 24.116c-5.473 18.927-16.71 33.221-34.272 42.387a602.745 602.745 0 00-3.966 2.09h-.443a9.832 9.832 0 00-.991-.614c-6.858-3.197-13.15-7.255-18.624-12.498-13.32-12.748-19.78-28.693-21.5-46.779a3.36 3.36 0 00-1.033-2.29c-6.283-6.208-4.518-18.805 5.31-21.542.76-.214 1.546-.374 2.327-.56zm66.114 45.876c-.588-3.244-2.694-5.695-5.438-7.704-2.785-2.04-5.925-2.896-9.677-2.484 1.74-1.328 3.93-1.932 5.86-1.562 4.614.885 8.53 2.964 11.302 6.894.168.206.347.403.537.59 2.356-7.36 3.615-14.77 3.648-22.38.011-2.857 0-2.854-2.49-4.16-7.507-3.924-15.618-5.63-23.956-6.416-8.666-.85-17.4-.71-26.034.416-1.913.257-3.816.613-5.723.923 1.732 10.002-6.476 17.741-16.57 15.283a3.462 3.462 0 00-.027.538 73.43 73.43 0 003.851 17.106 1.57 1.57 0 00.932.819c2.39.725 4.76 1.608 7.21 2.024 6.832 1.14 13.418 3.037 19.59 6.228 6.07 3.146 11.638 6.949 16.036 12.279a18.049 18.049 0 013.593 6.69A60.773 60.773 0 0082.476 59.19c.141-.283 0-.86-.222-1.146-.834-1.093-2.09-1.237-3.358-1.385-1.491-.175-3.015-.303-4.445-.728-2.312-.688-4.146-2.122-5.497-4.188l.55-.628c1.569.617 2.936 1.385 4.399 1.674 1.865.37 3.812.301 5.712.523 1.403.17 2.785.493 4.2.75zm-61.11 5.247c.066.23.144.456.234.677C29.46 72.464 39.22 81.57 51.852 87.661a1.491 1.491 0 001.212-.03 713.145 713.145 0 0011.303-6.86c.294-.183.511-.787.471-1.163-.194-1.836-1.247-3.279-2.376-4.646-2.106-2.562-4.712-4.549-7.522-6.265-8.464-5.173-17.699-8.089-27.522-9.135-1.513-.173-3.046-.173-4.714-.253zm-3.635-29.424c4.969.044 8.942-3.79 9.01-8.69A8.872 8.872 0 0019.23 12.2c-5.157-.013-8.799 3.582-8.832 8.732-.048 5.299 3.456 8.916 8.67 8.96v-.008z" fill="#E5E5E5"/><path d="M43.363 52.877H34.07c-.022-.443-.064-.885-.064-1.317V28.64c0-.476.042-.951.064-1.427h8.407c.35.09.694.195 1.046.27 2.772.6 4.294 2.197 4.664 4.902.467 3.42-.43 5.381-3.064 6.704 2.312 1.279 2.655 1.566 3.212 2.655 2.288 4.535.036 9.68-4.805 10.989-.064.026-.113.097-.168.144zm-4.106-11.704v8.038c1.548-.104 3.274.382 4.166-1.248a5.531 5.531 0 00-.054-5.604c-.907-1.555-2.581-1.208-4.112-1.186zm-.053-3.562c1.528-.062 3.192.38 4.028-1.217.752-1.438.825-3.066-.095-4.528-.62-.987-2.403-1.348-3.934-.912v6.657zM57.08 52.877H51.99c-.022-.443-.064-.885-.064-1.317V28.64c0-.476.042-.951.064-1.427h8.629c.351.086.7.183 1.057.254 2.385.463 4.186 1.615 4.792 4.126.48 1.976.496 3.998-.201 5.883-.372 1.002-1.228 1.874-2.02 2.655-.414.405-.551.628-.38 1.173.47 1.508.884 3.037 1.3 4.564.633 2.336 1.246 4.679 1.867 7.02h-5.31c-.048-.323-.07-.653-.15-.967-.764-3.062-1.534-6.122-2.31-9.18-.382-1.522-.466-1.572-2.185-1.172v11.308zm.064-14.602c1.63-.06 3.385.387 4.243-1.328.84-1.677.885-3.568-.166-5.174-.955-1.465-2.6-.936-4.077-.985v7.487z" fill="#E5E5E5"/></svg>