<svg width="150" height="145" viewBox="0 0 150 145" fill="none" xmlns="http://www.w3.org/2000/svg">
<path d="M19.3599 0H24.2809C24.3831 0.0681363 24.4815 0.181696 24.595 0.200623C31.2611 1.16589 36.4886 4.41751 40.3308 9.96683C40.6033 10.3454 41.5231 10.5346 42.0947 10.4589C48.333 9.62994 54.541 8.45648 60.8019 7.90003C78.8467 6.29504 96.8309 6.81363 114.66 10.2469C126.395 12.5182 137.497 16.3868 147.691 22.7386C149.36 23.7796 149.921 24.9606 149.962 26.8457C150.291 40.7928 148.479 54.7079 144.591 68.1061C135.226 100.49 116 124.947 85.9518 140.63C83.6806 141.814 81.4094 143.014 79.1647 144.207H78.4076C77.8637 143.823 77.2974 143.471 76.7118 143.154C64.9772 137.685 54.2116 130.742 44.8467 121.771C22.0551 99.9598 11.0018 72.6788 8.06063 41.7335C8.00038 40.2481 7.36675 38.8438 6.29286 37.8157C-4.45754 27.194 -1.43682 5.64017 15.3777 0.957694C16.6799 0.590514 18.0237 0.31797 19.3599 0ZM132.481 78.4931C131.474 72.9437 127.871 68.7496 123.177 65.3125C118.411 61.8224 113.04 60.3574 106.62 61.0615C109.595 58.7903 113.343 57.7569 116.647 58.3891C124.54 59.9032 131.24 63.4614 135.983 70.1842C136.27 70.538 136.577 70.8754 136.903 71.1949C140.934 58.601 143.088 45.9239 143.145 32.9023C143.164 28.0154 143.145 28.0192 138.882 25.7858C126.039 19.0706 112.162 16.1521 97.8946 14.8083C83.0683 13.3547 68.1247 13.5934 53.3524 15.5199C50.078 15.959 46.8226 16.5685 43.5597 17.0984C46.5236 34.212 32.4799 47.4532 15.2074 43.2477C15.1684 43.5526 15.1532 43.8602 15.1619 44.1675C16.1818 54.1518 18.3944 63.978 21.7522 73.4358C21.9089 73.7652 22.131 74.0592 22.405 74.3C22.679 74.5408 22.9991 74.7233 23.3459 74.8364C27.4341 76.078 31.492 77.5884 35.6823 78.3C47.3715 80.2495 58.6405 83.4973 69.2016 88.9558C79.5849 94.3386 89.1126 100.846 96.6379 109.964C99.4756 113.301 101.571 117.203 102.785 121.411C114.24 112.104 123.583 100.465 130.191 87.2675C130.434 86.783 130.191 85.795 129.813 85.3067C128.386 83.4367 126.236 83.1907 124.067 82.9371C121.515 82.638 118.907 82.4185 116.462 81.6917C112.506 80.5144 109.368 78.0615 107.055 74.526L107.998 73.451C110.682 74.5071 113.021 75.8206 115.523 76.3165C118.714 76.9486 122.045 76.8313 125.297 77.2098C127.697 77.5013 130.063 78.054 132.481 78.4931ZM27.9224 87.4719C28.0359 87.8647 28.1698 88.2514 28.3236 88.6302C39.4828 109.98 56.18 125.56 77.7944 135.981C78.1246 136.118 78.4799 136.184 78.8372 136.175C79.1946 136.166 79.546 136.082 79.8688 135.928C86.3543 132.075 92.8008 128.163 99.2081 124.194C99.7116 123.879 100.083 122.846 100.014 122.203C99.6813 119.061 97.8795 116.593 95.9489 114.253C92.3453 109.87 87.8861 106.471 83.0788 103.533C68.596 94.683 52.7959 89.6939 35.989 87.9035C33.3998 87.6082 30.7765 87.6082 27.9224 87.4719ZM21.703 37.1267C30.2049 37.2024 37.0034 30.6424 37.1208 22.2579C37.1483 20.2502 36.7773 18.2571 36.0292 16.3938C35.2811 14.5306 34.1707 12.8343 32.7625 11.4031C31.3542 9.97198 29.676 8.83444 27.8251 8.05639C25.9741 7.27834 23.9872 6.87523 21.9794 6.87042C13.1557 6.8477 6.92502 12.9989 6.86824 21.8112C6.78496 30.8771 12.781 37.0662 21.703 37.1419V37.1267Z" fill="url(#paint0_linear)"/>
<path d="M63.2699 76.4653H47.3714C47.3335 75.7082 47.2616 74.9511 47.2616 74.213C47.2616 61.1409 47.2616 48.0688 47.2616 34.9967C47.2616 34.1829 47.3335 33.369 47.3714 32.5552H61.7557C62.3538 32.7104 62.9443 32.8883 63.5462 33.017C68.2892 34.0428 70.8936 36.7758 71.5257 41.4053C72.3244 47.2575 70.7914 50.6113 66.283 52.8749C70.2387 55.0629 70.8254 55.555 71.7793 57.4174C75.6934 65.1773 71.8399 73.9783 63.5575 76.2192C63.4478 76.2646 63.3645 76.3858 63.2699 76.4653ZM56.2442 56.4407V70.1929C58.894 70.015 61.8466 70.8478 63.3721 68.058C64.2123 66.5965 64.6469 64.9372 64.6309 63.2515C64.615 61.5658 64.149 59.915 63.2812 58.4697C61.7292 55.8086 58.8637 56.4029 56.2442 56.4407ZM56.1534 50.3463C58.7691 50.2403 61.6157 50.9974 63.0465 48.2644C64.3335 45.8039 64.4585 43.0179 62.8837 40.5158C61.8238 38.8275 58.7729 38.2105 56.1534 38.9562V50.3463Z" fill="url(#paint1_linear)"/>
<path d="M86.7392 76.4653H78.0329C77.995 75.7082 77.9231 74.9511 77.9231 74.213C77.9231 61.1409 77.9231 48.0688 77.9231 34.9967C77.9231 34.1829 77.995 33.369 78.0329 32.5552H92.7957C93.3976 32.7028 93.9957 32.8694 94.6051 32.9905C98.6857 33.7816 101.767 35.7538 102.804 40.0502C103.626 43.4305 103.652 46.8903 102.46 50.1154C101.824 51.8302 100.359 53.3216 99.0037 54.6578C98.2959 55.3506 98.0612 55.7329 98.3526 56.6641C99.1589 59.2457 99.8668 61.8614 100.578 64.4733C101.661 68.4706 102.71 72.4793 103.773 76.4842H94.6884C94.6051 75.9315 94.5673 75.3675 94.431 74.83C93.1238 69.5911 91.8065 64.3559 90.4791 59.1246C89.8242 56.5202 89.6804 56.4332 86.7392 57.1183V76.4653ZM86.849 51.4819C89.6388 51.3797 92.6405 52.1444 94.1093 49.2107C95.5477 46.3414 95.6234 43.105 93.8254 40.3568C92.1901 37.8509 89.3776 38.7556 86.849 38.6723V51.4819Z" fill="url(#paint2_linear)"/>
<defs>
<linearGradient id="paint0_linear" x1="75" y1="0" x2="75" y2="144.207" gradientUnits="userSpaceOnUse">
<stop stop-color="#2B66FF"/>
<stop offset="0.822917" stop-color="#C324FF"/>
</linearGradient>
<linearGradient id="paint1_linear" x1="60.2892" y1="32.5552" x2="60.2892" y2="76.4653" gradientUnits="userSpaceOnUse">
<stop stop-color="#2B66FF"/>
<stop offset="0.822917" stop-color="#C324FF"/>
</linearGradient>
<linearGradient id="paint2_linear" x1="90.8482" y1="32.5552" x2="90.8482" y2="76.4842" gradientUnits="userSpaceOnUse">
<stop stop-color="#2B66FF"/>
<stop offset="0.822917" stop-color="#C324FF"/>
</linearGradient>
</defs>
</svg>
